<svg width="177" height="35" viewBox="0 0 177 35" fill="none" xmlns="http://www.w3.org/2000/svg">
<g clip-path="url(#clip0_5_1213)">
<path d="M6.95586 4.3672C10.7361 4.3672 13.7728 7.17469 13.7728 10.9804C13.7728 14.7237 10.6742 17.5936 7.14178 17.5936C5.46854 17.5936 3.85727 17.0945 2.6798 15.7219H2.55586V25.3298H0.0150146V11.9786C0.0150146 7.36186 2.6798 4.3672 6.95586 4.3672ZM6.89389 15.3476C9.37276 15.3476 11.108 13.3512 11.108 10.918C11.108 8.54724 9.43473 6.5508 6.89389 6.5508C4.35304 6.5508 2.61783 8.48485 2.61783 10.918C2.61783 13.3512 4.41501 15.3476 6.89389 15.3476Z" fill="#DAEF14"/>
<path d="M16.1277 10.9804C16.1277 7.17469 19.2882 4.3672 23.0066 4.3672C26.7249 4.3672 29.8854 7.17469 29.8854 10.9804C29.8854 14.7861 26.7249 17.5936 23.0066 17.5936C19.2882 17.5936 16.1277 14.7861 16.1277 10.9804ZM23.0066 15.3476C25.5474 15.3476 27.2206 13.4136 27.2206 10.9804C27.2206 8.54724 25.4854 6.61319 23.0066 6.61319C20.5277 6.61319 18.7925 8.54724 18.7925 10.9804C18.7925 13.4136 20.4657 15.3476 23.0066 15.3476Z" fill="#DAEF14"/>
<path d="M39.1812 17.5936C35.215 17.5936 32.2404 14.7861 32.2404 10.9804C32.2404 7.17469 35.153 4.3672 39.1192 4.3672C42.1558 4.3672 44.9446 5.98931 45.6882 9.17113H43.0854C42.4657 7.48663 40.9164 6.61319 39.1812 6.61319C36.5164 6.61319 34.9051 8.60963 34.9051 11.0428C34.9051 13.4759 36.5784 15.41 39.2432 15.41C40.9784 15.41 42.5277 14.5989 43.1474 12.7897H45.7502C44.8206 16.0339 42.0939 17.5936 39.1812 17.5936Z" fill="#DAEF14"/>
<path d="M55.108 15.7843L50.9559 7.04992H50.8939V17.344H48.477V4.61676H52.3192L56.4094 13.2888H56.4714L60.5615 4.61676H64.4038V17.2816H61.9869V7.04992H61.9249L57.7728 15.7843H55.108Z" fill="#DAEF14"/>
<path d="M67.1305 10.9804C67.1305 7.17469 70.2911 4.3672 74.0094 4.3672C77.7277 4.3672 80.8882 7.17469 80.8882 10.9804C80.8882 14.7861 77.7277 17.5936 74.0094 17.5936C70.2911 17.5936 67.1305 14.7861 67.1305 10.9804ZM74.0713 15.3476C76.6122 15.3476 78.2854 13.4136 78.2854 10.9804C78.2854 8.54724 76.5502 6.61319 74.0713 6.61319C71.5305 6.61319 69.8572 8.54724 69.8572 10.9804C69.7953 13.4136 71.5305 15.3476 74.0713 15.3476Z" fill="#DAEF14"/>
<path d="M82.1897 17.4064V14.7861H82.2517C82.7474 14.7861 83.3052 14.5989 83.677 14.1622C84.1728 13.6631 84.3587 12.6649 84.6066 11.2923L84.9784 9.23351C85.4122 6.92513 86.2179 4.55437 89.6883 4.55437H94.5841V17.2816H92.0432V6.92513H90.0601C88.077 6.92513 87.7052 7.48663 87.2094 10.1693L86.8995 12.041C86.5897 13.7879 86.1559 15.2852 85.2883 16.221C84.6066 16.9697 83.677 17.344 82.3756 17.344H82.1897V17.4064Z" fill="#DAEF14"/>
<path d="M97.4348 10.9804C97.4348 7.17469 100.595 4.3672 104.314 4.3672C108.032 4.3672 111.193 7.17469 111.193 10.9804C111.193 14.7861 108.032 17.5936 104.314 17.5936C100.595 17.5936 97.4348 14.7861 97.4348 10.9804ZM104.314 15.3476C106.854 15.3476 108.528 13.4136 108.528 10.9804C108.528 8.54724 106.793 6.61319 104.314 6.61319C101.773 6.61319 100.1 8.54724 100.1 10.9804C100.1 13.4136 101.835 15.3476 104.314 15.3476Z" fill="#DAEF14"/>
<path d="M114.167 20.4011H111.75V14.9733H113.362C114.105 14.1622 114.477 12.9144 114.787 11.4795L115.345 9.10873C115.84 6.86275 116.832 4.55437 119.931 4.55437H124.826V14.9733H126.623V20.4011H124.207V17.344H114.105V20.4011H114.167ZM122.347 15.0356V6.92513H119.993C118.443 6.92513 117.947 8.1729 117.638 9.48307L117.08 11.9162C116.77 13.2888 116.336 14.4118 115.84 14.8485V15.0356H122.347Z" fill="#DAEF14"/>
<path d="M135.424 17.5936C131.395 17.5936 128.483 14.7861 128.483 10.9804C128.483 7.17469 131.395 4.3672 135.3 4.3672C138.336 4.3672 141.931 6.36364 141.931 11.1676V11.6667H130.962C131.209 13.7879 132.883 15.3476 135.362 15.3476C136.849 15.3476 138.584 14.7861 139.08 13.5383H141.683C140.939 16.3458 138.026 17.5936 135.424 17.5936ZM131.085 0H133.688V2.62032H131.085V0ZM139.39 9.73262C139.018 7.79857 137.531 6.5508 135.3 6.5508C133.131 6.5508 131.581 7.92335 131.147 9.73262H139.39ZM136.725 0H139.328V2.62032H136.725V0Z" fill="#DAEF14"/>
<path d="M153.891 4.61676V9.67024H155.998L158.973 4.61676H161.761L158.043 10.6685L162.009 17.2816H159.159L155.998 11.9162H153.829V17.2816H151.474V11.9162H149.367L146.207 17.2816H143.356L147.322 10.6685L143.604 4.61676H146.392L149.367 9.67024H151.474V4.61676H153.891Z" fill="#DAEF14"/>
<path d="M163.807 11.6043L163.745 4.61676H166.285V8.2353H166.347C167.401 6.92514 168.764 6.30125 170.376 6.30125C173.474 6.30125 175.953 8.60963 175.953 11.8538C175.953 15.1604 173.412 17.5936 169.88 17.5936C166.409 17.5936 163.807 15.098 163.807 11.6043ZM169.88 15.3476C171.863 15.3476 173.35 13.9127 173.35 11.9786C173.35 10.0446 171.863 8.54724 169.88 8.54724C167.897 8.54724 166.471 9.98218 166.471 11.9786C166.471 13.9751 167.897 15.3476 169.88 15.3476Z" fill="#DAEF14"/>
<path d="M54.6742 30.3832C54.6742 27.6381 56.5953 25.7665 59.3841 25.7665C60.4995 25.7665 61.4291 26.0784 62.3587 26.6399L61.677 27.8253C60.9333 27.3886 60.1897 27.139 59.3221 27.139C57.339 27.139 56.0995 28.6364 56.0995 30.4456C56.0995 32.3173 57.401 33.7522 59.3221 33.7522C60.1897 33.7522 60.9333 33.4403 61.677 33.0659L62.3587 34.2513C61.4291 34.8128 60.4995 35.1248 59.3841 35.1248C56.5953 35 54.6742 33.1283 54.6742 30.3832Z" fill="#DAEF14"/>
<path d="M72.1502 30.3832C72.1502 33.0659 70.1671 35 67.4404 35C64.7136 35 62.7305 33.0659 62.7305 30.3832C62.7305 27.7005 64.7136 25.7665 67.4404 25.7665C70.1671 25.7041 72.1502 27.6381 72.1502 30.3832ZM64.1559 30.3832C64.1559 32.3797 65.5193 33.6898 67.4404 33.6898C69.2995 33.6898 70.7249 32.3797 70.7249 30.3832C70.7249 28.3868 69.3615 27.0766 67.4404 27.0766C65.5812 27.0766 64.1559 28.3868 64.1559 30.3832Z" fill="#DAEF14"/>
<path d="M73.2657 29.2602C73.2657 27.139 73.7615 24.7059 75.6826 23.5829C76.7981 22.959 78.5953 22.6471 79.5249 22.3975C80.0827 22.2103 80.5784 21.8984 80.5784 21.4617H81.8798C81.8798 22.6471 81.2601 23.2086 80.1446 23.5205C79.401 23.7077 77.4179 24.082 76.3643 24.6435C75.1869 25.2674 74.6291 26.6399 74.4432 28.3868H74.5052C75.1249 26.7647 76.6122 25.8913 78.4094 25.8913C80.9503 25.8913 82.7474 27.7005 82.7474 30.3832C82.7474 33.1283 80.9503 35.0624 78.0376 35.0624C75.3728 35 73.2657 33.4403 73.2657 29.2602ZM81.3841 30.3832C81.3841 28.3244 79.8967 27.0766 78.0996 27.0766C76.3024 27.0766 74.815 28.3244 74.815 30.3209C74.815 32.3797 76.3024 33.6274 78.0996 33.6274C79.8967 33.6898 81.3841 32.4421 81.3841 30.3832Z" fill="#DAEF14"/>
<path d="M91.4855 31.9429C91.4855 33.5651 90.308 34.688 88.5108 34.688H84.4207V25.9536H85.784V29.1979H88.5728C90.3699 29.1979 91.4855 30.2585 91.4855 31.9429ZM90.0601 32.0053C90.0601 31.0071 89.5024 30.508 88.3869 30.508H85.784V33.5651H88.3869C89.5643 33.5027 90.0601 32.9412 90.0601 32.0053ZM93.7164 26.016V34.7504H92.3531V26.016H93.7164Z" fill="#DAEF14"/>
<path d="M102.95 27.2638H99.6038V34.7504H98.2404V27.2638H94.8939V26.016H102.888V27.2638H102.95Z" fill="#DAEF14"/>
<path d="M104.128 26.016H105.491V32.6292H105.553L110.511 26.016H111.874V34.7504H110.511V28.0749H110.449L105.491 34.6881H104.128V26.016Z" fill="#DAEF14"/>
<path d="M120.674 26.016V34.7504H119.311V31.3191H117.514L114.911 34.7504H113.238L115.902 31.3191C114.415 31.1319 113.423 30.1961 113.423 28.6987C113.423 27.0143 114.601 26.016 116.398 26.016H120.674ZM119.311 30.0713V27.2638H116.584C115.469 27.2638 114.849 27.7629 114.849 28.6987C114.849 29.6346 115.407 30.1337 116.584 30.1337H119.311V30.0713Z" fill="#DAEF14"/>
</g>
<defs>
<clipPath id="clip0_5_1213">
<rect width="176" height="35" fill="white" transform="translate(0.0150146)"/>
</clipPath>
</defs>
</svg>
