<svg width="1260" height="107" viewBox="0 0 1260 107" fill="none" xmlns="http://www.w3.org/2000/svg">
<g clip-path="url(#clip0_137_15331)">
<path d="M1260 0H0V107H1260V0Z" fill="#0042AA"/>
<path d="M840.704 45.9254H842.739L847.522 57.6084H847.687L852.47 45.9254H854.504V60H852.91V49.3066H852.772L848.374 60H846.834L842.436 49.3066H842.299V60H840.704V45.9254ZM869.797 52.9627C869.797 54.4471 869.529 55.73 868.993 56.8112C868.457 57.8925 867.721 58.7263 866.787 59.3128C865.852 59.8992 864.784 60.1924 863.584 60.1924C862.384 60.1924 861.316 59.8992 860.382 59.3128C859.447 58.7263 858.712 57.8925 858.176 56.8112C857.64 55.73 857.372 54.4471 857.372 52.9627C857.372 51.4783 857.64 50.1954 858.176 49.1142C858.712 48.033 859.447 47.1991 860.382 46.6127C861.316 46.0262 862.384 45.733 863.584 45.733C864.784 45.733 865.852 46.0262 866.787 46.6127C867.721 47.1991 868.457 48.033 868.993 49.1142C869.529 50.1954 869.797 51.4783 869.797 52.9627ZM868.147 52.9627C868.147 51.744 867.943 50.7155 867.536 49.877C867.133 49.0386 866.585 48.4041 865.893 47.9734C865.206 47.5427 864.436 47.3274 863.584 47.3274C862.732 47.3274 861.96 47.5427 861.268 47.9734C860.581 48.4041 860.033 49.0386 859.626 49.877C859.222 50.7155 859.021 51.744 859.021 52.9627C859.021 54.1814 859.222 55.21 859.626 56.0484C860.033 56.8868 860.581 57.5214 861.268 57.952C861.96 58.3827 862.732 58.598 863.584 58.598C864.436 58.598 865.206 58.3827 865.893 57.952C866.585 57.5214 867.133 56.8868 867.536 56.0484C867.943 55.21 868.147 54.1814 868.147 52.9627ZM883.988 50.3237H882.284C882.183 49.8335 882.007 49.4028 881.755 49.0317C881.507 48.6606 881.205 48.3491 880.847 48.0971C880.495 47.8405 880.103 47.6481 879.672 47.5198C879.242 47.3915 878.793 47.3274 878.325 47.3274C877.473 47.3274 876.701 47.5427 876.009 47.9734C875.322 48.4041 874.775 49.0386 874.367 49.877C873.964 50.7155 873.762 51.744 873.762 52.9627C873.762 54.1814 873.964 55.21 874.367 56.0484C874.775 56.8868 875.322 57.5214 876.009 57.952C876.701 58.3827 877.473 58.598 878.325 58.598C878.793 58.598 879.242 58.5339 879.672 58.4056C880.103 58.2773 880.495 58.0872 880.847 57.8352C881.205 57.5786 881.507 57.2648 881.755 56.8937C882.007 56.518 882.183 56.0873 882.284 55.6017H883.988C883.86 56.321 883.626 56.9647 883.287 57.5328C882.948 58.1009 882.527 58.5843 882.023 58.9829C881.519 59.3769 880.953 59.677 880.325 59.8832C879.702 60.0893 879.035 60.1924 878.325 60.1924C877.125 60.1924 876.057 59.8992 875.123 59.3128C874.188 58.7263 873.453 57.8925 872.917 56.8112C872.381 55.73 872.113 54.4471 872.113 52.9627C872.113 51.4783 872.381 50.1954 872.917 49.1142C873.453 48.033 874.188 47.1991 875.123 46.6127C876.057 46.0262 877.125 45.733 878.325 45.733C879.035 45.733 879.702 45.8361 880.325 46.0423C880.953 46.2484 881.519 46.5508 882.023 46.9494C882.527 47.3434 882.948 47.8245 883.287 48.3926C883.626 48.9561 883.86 49.5998 883.988 50.3237ZM895.017 60L890.178 53.54H888.447V60H886.742V45.9254H888.447V52.0281H889.189L894.824 45.9254H896.858L891.168 52.1105L897.051 60H895.017ZM899.253 60V45.9254H904.174C905.154 45.9254 905.963 46.0949 906.6 46.434C907.237 46.7684 907.711 47.2197 908.022 47.7878C908.334 48.3514 908.49 48.9768 908.49 49.664C908.49 50.2688 908.382 50.7681 908.167 51.1622C907.956 51.5562 907.677 51.8677 907.328 52.0968C906.985 52.3259 906.611 52.4954 906.208 52.6054V52.7428C906.639 52.7703 907.072 52.9215 907.507 53.1964C907.942 53.4713 908.306 53.8653 908.6 54.3784C908.893 54.8916 909.04 55.5192 909.04 56.2614C909.04 56.967 908.879 57.6016 908.558 58.1651C908.238 58.7286 907.732 59.1753 907.04 59.5052C906.348 59.8351 905.448 60 904.339 60H899.253ZM900.958 58.4881H904.339C905.452 58.4881 906.242 58.2727 906.71 57.8421C907.182 57.4068 907.418 56.88 907.418 56.2614C907.418 55.785 907.296 55.3451 907.053 54.942C906.811 54.5342 906.465 54.2089 906.016 53.9661C905.567 53.7187 905.035 53.595 904.421 53.595H900.958V58.4881ZM900.958 52.1105H904.119C904.632 52.1105 905.095 52.0097 905.507 51.8082C905.924 51.6066 906.254 51.3225 906.497 50.956C906.744 50.5895 906.868 50.1588 906.868 49.664C906.868 49.0455 906.653 48.5209 906.222 48.0902C905.791 47.655 905.109 47.4373 904.174 47.4373H900.958V52.1105ZM912.417 60H910.63L915.798 45.9254H917.558L922.726 60H920.939L916.733 48.1521H916.623L912.417 60ZM913.077 54.5021H920.279V56.014H913.077V54.5021ZM925.88 60.11C925.541 60.11 925.25 59.9885 925.007 59.7457C924.765 59.5029 924.643 59.212 924.643 58.8729C924.643 58.5339 924.765 58.243 925.007 58.0001C925.25 57.7573 925.541 57.6359 925.88 57.6359C926.219 57.6359 926.51 57.7573 926.753 58.0001C926.996 58.243 927.117 58.5339 927.117 58.8729C927.117 59.0974 927.06 59.3036 926.945 59.4914C926.835 59.6793 926.687 59.8305 926.499 59.945C926.315 60.055 926.109 60.11 925.88 60.11ZM935.691 60V45.9254H940.611C941.592 45.9254 942.4 46.0949 943.037 46.434C943.674 46.7684 944.148 47.2197 944.46 47.7878C944.771 48.3514 944.927 48.9768 944.927 49.664C944.927 50.2688 944.819 50.7681 944.604 51.1622C944.393 51.5562 944.114 51.8677 943.766 52.0968C943.422 52.3259 943.049 52.4954 942.645 52.6054V52.7428C943.076 52.7703 943.509 52.9215 943.944 53.1964C944.379 53.4713 944.744 53.8653 945.037 54.3784C945.33 54.8916 945.477 55.5192 945.477 56.2614C945.477 56.967 945.316 57.6016 944.996 58.1651C944.675 58.7286 944.169 59.1753 943.477 59.5052C942.785 59.8351 941.885 60 940.776 60H935.691ZM937.395 58.4881H940.776C941.889 58.4881 942.68 58.2727 943.147 57.8421C943.619 57.4068 943.855 56.88 943.855 56.2614C943.855 55.785 943.733 55.3451 943.491 54.942C943.248 54.5342 942.902 54.2089 942.453 53.9661C942.004 53.7187 941.472 53.595 940.859 53.595H937.395V58.4881ZM937.395 52.1105H940.556C941.069 52.1105 941.532 52.0097 941.944 51.8082C942.361 51.6066 942.691 51.3225 942.934 50.956C943.181 50.5895 943.305 50.1588 943.305 49.664C943.305 49.0455 943.09 48.5209 942.659 48.0902C942.228 47.655 941.546 47.4373 940.611 47.4373H937.395V52.1105ZM947.068 63.4087V58.4881H947.975C948.286 58.204 948.58 57.8031 948.854 57.2854C949.134 56.7631 949.37 56.0667 949.562 55.1962C949.759 54.3211 949.89 53.2101 949.954 51.8631L950.256 45.9254H958.613V58.4881H960.235V63.3812H958.613V60H948.69V63.4087H947.068ZM950.009 58.4881H956.991V47.4373H951.796L951.576 51.8631C951.521 52.8894 951.425 53.8195 951.287 54.6533C951.15 55.4826 950.973 56.2179 950.758 56.8593C950.543 57.4962 950.293 58.0391 950.009 58.4881ZM962.811 60V45.9254H964.515V52.193H972.019V45.9254H973.724V60H972.019V53.7049H964.515V60H962.811ZM977.961 45.9254L981.589 51.7807H981.699L985.328 45.9254H987.334L982.909 52.9627L987.334 60H985.328L981.699 54.2547H981.589L977.961 60H975.954L980.49 52.9627L975.954 45.9254H977.961Z" fill="#D3AA65"/>
<path d="M34.7043 45.9254H36.7386L41.5217 57.6084H41.6866L46.4698 45.9254H48.504V60H46.9096V49.3066H46.7722L42.3739 60H40.8345L36.4362 49.3066H36.2987V60H34.7043V45.9254ZM51.9213 60V45.9254H60.4155V47.4373H53.6256V52.193H59.9757V53.7049H53.6256V58.4881H60.5255V60H51.9213ZM71.8167 45.9254V60H70.1124V45.9254H71.8167ZM62.3054 60L66.8687 52.6603L62.6903 45.9254H64.752L68.4081 52.1655H73.5486L77.2047 45.9254H79.2664L75.0605 52.6878L79.6237 60H77.672L73.851 53.7599H68.0782L64.2297 60H62.3054ZM80.6477 63.4087V58.4881H81.5549C81.8664 58.204 82.1596 57.8031 82.4345 57.2854C82.714 56.7631 82.9499 56.0667 83.1424 55.1962C83.3394 54.3211 83.47 53.2101 83.5341 51.8631L83.8365 45.9254H92.1933V58.4881H93.8151V63.3812H92.1933V60H82.2696V63.4087H80.6477ZM83.5891 58.4881H90.5714V47.4373H85.3759L85.156 51.8631C85.101 52.8894 85.0048 53.8195 84.8673 54.6533C84.7299 55.4826 84.5535 56.2179 84.3382 56.8593C84.1228 57.4962 83.8731 58.0391 83.5891 58.4881ZM97.1328 60.1924V58.598H98.0124C98.3515 58.598 98.6355 58.5316 98.8646 58.3987C99.0982 58.2659 99.2907 58.0941 99.4419 57.8833C99.5976 57.6726 99.7259 57.4526 99.8267 57.2236L100.047 56.7013L95.181 45.9254H97.0228L100.899 54.6671L104.445 45.9254H106.259L101.394 57.7184C101.201 58.1582 100.981 58.566 100.734 58.9417C100.491 59.3173 100.159 59.6197 99.7374 59.8488C99.3205 60.0779 98.7546 60.1924 98.0399 60.1924H97.1328ZM108.467 60V45.9254H110.171V52.193H117.676V45.9254H119.38V60H117.676V53.7049H110.171V60H108.467ZM123.37 60H121.583L126.751 45.9254H128.51L133.678 60H131.891L127.685 48.1521H127.576L123.37 60ZM124.029 54.5021H131.232V56.014H124.029V54.5021ZM135.87 60V45.9254H140.626C141.73 45.9254 142.633 46.1247 143.334 46.5233C144.039 46.9173 144.562 47.4511 144.901 48.1246C145.24 48.7981 145.409 49.5494 145.409 50.3787C145.409 51.208 145.24 51.9616 144.901 52.6397C144.566 53.3178 144.049 53.8584 143.348 54.2616C142.647 54.6602 141.749 54.8595 140.654 54.8595H137.245V53.3476H140.599C141.355 53.3476 141.962 53.217 142.42 52.9558C142.878 52.6947 143.21 52.3419 143.416 51.8975C143.627 51.4485 143.732 50.9422 143.732 50.3787C143.732 49.8152 143.627 49.3112 143.416 48.8668C143.21 48.4224 142.876 48.0742 142.413 47.8222C141.95 47.5656 141.336 47.4373 140.571 47.4373H137.575V60H135.87ZM160.03 52.9627C160.03 54.4471 159.762 55.73 159.226 56.8112C158.69 57.8925 157.955 58.7263 157.02 59.3128C156.085 59.8992 155.018 60.1924 153.818 60.1924C152.617 60.1924 151.55 59.8992 150.615 59.3128C149.68 58.7263 148.945 57.8925 148.409 56.8112C147.873 55.73 147.605 54.4471 147.605 52.9627C147.605 51.4783 147.873 50.1954 148.409 49.1142C148.945 48.033 149.68 47.1991 150.615 46.6127C151.55 46.0262 152.617 45.733 153.818 45.733C155.018 45.733 156.085 46.0262 157.02 46.6127C157.955 47.1991 158.69 48.033 159.226 49.1142C159.762 50.1954 160.03 51.4783 160.03 52.9627ZM158.381 52.9627C158.381 51.744 158.177 50.7155 157.769 49.877C157.366 49.0386 156.819 48.4041 156.127 47.9734C155.439 47.5427 154.67 47.3274 153.818 47.3274C152.965 47.3274 152.193 47.5427 151.502 47.9734C150.814 48.4041 150.267 49.0386 149.859 49.877C149.456 50.7155 149.254 51.744 149.254 52.9627C149.254 54.1814 149.456 55.21 149.859 56.0484C150.267 56.8868 150.814 57.5214 151.502 57.952C152.193 58.3827 152.965 58.598 153.818 58.598C154.67 58.598 155.439 58.3827 156.127 57.952C156.819 57.5214 157.366 56.8868 157.769 56.0484C158.177 55.21 158.381 54.1814 158.381 52.9627ZM161.686 63.4087V58.4881H162.594C162.905 58.204 163.198 57.8031 163.473 57.2854C163.753 56.7631 163.989 56.0667 164.181 55.1962C164.378 54.3211 164.509 53.2101 164.573 51.8631L164.875 45.9254H173.232V58.4881H174.854V63.3812H173.232V60H163.308V63.4087H161.686ZM164.628 58.4881H171.61V47.4373H166.415L166.195 51.8631C166.14 52.8894 166.044 53.8195 165.906 54.6533C165.769 55.4826 165.592 56.2179 165.377 56.8593C165.162 57.4962 164.912 58.0391 164.628 58.4881ZM177.429 60V45.9254H179.134V52.193H186.638V45.9254H188.343V60H186.638V53.7049H179.134V60H177.429ZM192.332 60H190.545L195.713 45.9254H197.472L202.64 60H200.854L196.648 48.1521H196.538L192.332 60ZM192.992 54.5021H200.194V56.014H192.992V54.5021ZM214.399 60H212.695V47.4373H209.698C208.938 47.4373 208.326 47.5542 207.863 47.7878C207.401 48.0169 207.064 48.3422 206.853 48.7637C206.642 49.1852 206.537 49.6777 206.537 50.2413C206.537 50.8048 206.64 51.2904 206.846 51.6982C207.057 52.1014 207.392 52.4129 207.85 52.6328C208.312 52.8528 208.92 52.9627 209.671 52.9627H213.464V54.5021H209.616C208.526 54.5021 207.63 54.3211 206.929 53.9592C206.228 53.5927 205.708 53.0887 205.369 52.4473C205.03 51.8059 204.86 51.0705 204.86 50.2413C204.86 49.412 205.03 48.6721 205.369 48.0215C205.708 47.3709 206.23 46.8601 206.936 46.489C207.641 46.1133 208.544 45.9254 209.643 45.9254H214.399V60ZM207.774 53.6774H209.698L206.29 60H204.31L207.774 53.6774ZM223.259 60V45.9254H228.18C229.16 45.9254 229.969 46.0949 230.606 46.434C231.243 46.7684 231.717 47.2197 232.028 47.7878C232.34 48.3514 232.496 48.9768 232.496 49.664C232.496 50.2688 232.388 50.7681 232.173 51.1622C231.962 51.5562 231.682 51.8677 231.334 52.0968C230.991 52.3259 230.617 52.4954 230.214 52.6054V52.7428C230.645 52.7703 231.078 52.9215 231.513 53.1964C231.948 53.4713 232.312 53.8653 232.606 54.3784C232.899 54.8916 233.045 55.5192 233.045 56.2614C233.045 56.967 232.885 57.6016 232.564 58.1651C232.244 58.7286 231.737 59.1753 231.046 59.5052C230.354 59.8351 229.454 60 228.345 60H223.259ZM224.964 58.4881H228.345C229.458 58.4881 230.248 58.2727 230.716 57.8421C231.188 57.4068 231.424 56.88 231.424 56.2614C231.424 55.785 231.302 55.3451 231.059 54.942C230.817 54.5342 230.471 54.2089 230.022 53.9661C229.573 53.7187 229.041 53.595 228.427 53.595H224.964V58.4881ZM224.964 52.1105H228.125C228.638 52.1105 229.101 52.0097 229.513 51.8082C229.93 51.6066 230.26 51.3225 230.503 50.956C230.75 50.5895 230.874 50.1588 230.874 49.664C230.874 49.0455 230.658 48.5209 230.228 48.0902C229.797 47.655 229.114 47.4373 228.18 47.4373H224.964V52.1105ZM237.11 51.8356H241.124C242.132 51.8356 242.982 52.0006 243.674 52.3305C244.37 52.6603 244.897 53.1254 245.254 53.7255C245.616 54.3257 245.797 55.0336 245.797 55.8491C245.797 56.6646 245.616 57.3839 245.254 58.007C244.897 58.6301 244.37 59.118 243.674 59.4708C242.982 59.8236 242.132 60 241.124 60H235.846V45.9254H237.55V58.5156H241.124C241.765 58.5156 242.308 58.3873 242.753 58.1307C243.202 57.8696 243.541 57.5351 243.77 57.1274C244.003 56.715 244.12 56.2798 244.12 55.8216C244.12 55.1481 243.861 54.5686 243.344 54.0829C242.826 53.5927 242.086 53.3476 241.124 53.3476H237.11V51.8356ZM248.876 45.9254V60H247.172V45.9254H248.876ZM263.614 50.3237H261.909C261.809 49.8335 261.632 49.4028 261.38 49.0317C261.133 48.6606 260.83 48.3491 260.473 48.0971C260.12 47.8405 259.729 47.6481 259.298 47.5198C258.867 47.3915 258.418 47.3274 257.951 47.3274C257.099 47.3274 256.327 47.5427 255.635 47.9734C254.948 48.4041 254.4 49.0386 253.992 49.877C253.589 50.7155 253.388 51.744 253.388 52.9627C253.388 54.1814 253.589 55.21 253.992 56.0484C254.4 56.8868 254.948 57.5214 255.635 57.952C256.327 58.3827 257.099 58.598 257.951 58.598C258.418 58.598 258.867 58.5339 259.298 58.4056C259.729 58.2773 260.12 58.0872 260.473 57.8352C260.83 57.5786 261.133 57.2648 261.38 56.8937C261.632 56.518 261.809 56.0873 261.909 55.6017H263.614C263.485 56.321 263.252 56.9647 262.913 57.5328C262.574 58.1009 262.152 58.5843 261.648 58.9829C261.144 59.3769 260.578 59.677 259.951 59.8832C259.328 60.0893 258.661 60.1924 257.951 60.1924C256.75 60.1924 255.683 59.8992 254.748 59.3128C253.814 58.7263 253.078 57.8925 252.542 56.8112C252.006 55.73 251.738 54.4471 251.738 52.9627C251.738 51.4783 252.006 50.1954 252.542 49.1142C253.078 48.033 253.814 47.1991 254.748 46.6127C255.683 46.0262 256.75 45.733 257.951 45.733C258.661 45.733 259.328 45.8361 259.951 46.0423C260.578 46.2484 261.144 46.5508 261.648 46.9494C262.152 47.3434 262.574 47.8245 262.913 48.3926C263.252 48.9561 263.485 49.5998 263.614 50.3237ZM265.598 47.4373V45.9254H276.154V47.4373H271.728V60H270.024V47.4373H265.598ZM277.717 60H275.931L281.099 45.9254H282.858L288.026 60H286.239L282.033 48.1521H281.923L277.717 60ZM278.377 54.5021H285.579V56.014H278.377V54.5021ZM290.218 60V45.9254H295.139C296.119 45.9254 296.928 46.0949 297.565 46.434C298.202 46.7684 298.676 47.2197 298.987 47.7878C299.299 48.3514 299.455 48.9768 299.455 49.664C299.455 50.2688 299.347 50.7681 299.132 51.1622C298.921 51.5562 298.641 51.8677 298.293 52.0968C297.95 52.3259 297.576 52.4954 297.173 52.6054V52.7428C297.604 52.7703 298.037 52.9215 298.472 53.1964C298.907 53.4713 299.271 53.8653 299.565 54.3784C299.858 54.8916 300.004 55.5192 300.004 56.2614C300.004 56.967 299.844 57.6016 299.523 58.1651C299.203 58.7286 298.696 59.1753 298.005 59.5052C297.313 59.8351 296.413 60 295.304 60H290.218ZM291.923 58.4881H295.304C296.417 58.4881 297.207 58.2727 297.675 57.8421C298.147 57.4068 298.383 56.88 298.383 56.2614C298.383 55.785 298.261 55.3451 298.018 54.942C297.776 54.5342 297.43 54.2089 296.981 53.9661C296.532 53.7187 296 53.595 295.386 53.595H291.923V58.4881ZM291.923 52.1105H295.084C295.597 52.1105 296.06 52.0097 296.472 51.8082C296.889 51.6066 297.219 51.3225 297.462 50.956C297.709 50.5895 297.833 50.1588 297.833 49.664C297.833 49.0455 297.617 48.5209 297.187 48.0902C296.756 47.655 296.073 47.4373 295.139 47.4373H291.923V52.1105ZM311.079 60L306.241 53.54H304.509V60H302.805V45.9254H304.509V52.0281H305.252L310.887 45.9254H312.921L307.231 52.1105L313.113 60H311.079ZM315.893 60H314.107L319.275 45.9254H321.034L326.202 60H324.415L320.209 48.1521H320.099L315.893 60ZM316.553 54.5021H323.755V56.014H316.553V54.5021ZM334.222 52.2068V53.7187H328.064V52.2068H334.222ZM342.134 47.6023H344.36C345.405 47.6023 346.333 47.8359 347.144 48.3033C347.955 48.7706 348.591 49.4212 349.054 50.255C349.517 51.0889 349.748 52.0556 349.748 53.1551C349.748 54.2547 349.517 55.2237 349.054 56.0621C348.591 56.9006 347.955 57.5557 347.144 58.0276C346.333 58.4995 345.405 58.7355 344.36 58.7355H342.134C341.089 58.7355 340.161 58.5018 339.35 58.0345C338.539 57.5672 337.903 56.9166 337.44 56.0828C336.977 55.2489 336.746 54.2822 336.746 53.1826C336.746 52.0831 336.977 51.1141 337.44 50.2756C337.903 49.4372 338.539 48.782 339.35 48.3101C340.161 47.8382 341.089 47.6023 342.134 47.6023ZM342.134 49.1142C341.337 49.1142 340.663 49.2814 340.113 49.6159C339.568 49.9503 339.153 50.4222 338.869 51.0316C338.59 51.6409 338.45 52.3579 338.45 53.1826C338.45 53.9981 338.59 54.7083 338.869 55.3131C339.153 55.9178 339.568 56.3874 340.113 56.7219C340.663 57.0563 341.337 57.2236 342.134 57.2236H344.36C345.158 57.2236 345.829 57.0563 346.374 56.7219C346.924 56.3874 347.338 55.9155 347.618 55.3062C347.902 54.6968 348.044 53.9798 348.044 53.1551C348.044 52.3396 347.902 51.6295 347.618 51.0247C347.338 50.4199 346.924 49.9503 346.374 49.6159C345.829 49.2814 345.158 49.1142 344.36 49.1142H342.134ZM344.113 45.678V60.5773H342.409V45.678H344.113ZM364.479 52.9627C364.479 54.4471 364.211 55.73 363.675 56.8112C363.139 57.8925 362.404 58.7263 361.469 59.3128C360.534 59.8992 359.467 60.1924 358.267 60.1924C357.066 60.1924 355.999 59.8992 355.064 59.3128C354.129 58.7263 353.394 57.8925 352.858 56.8112C352.322 55.73 352.054 54.4471 352.054 52.9627C352.054 51.4783 352.322 50.1954 352.858 49.1142C353.394 48.033 354.129 47.1991 355.064 46.6127C355.999 46.0262 357.066 45.733 358.267 45.733C359.467 45.733 360.534 46.0262 361.469 46.6127C362.404 47.1991 363.139 48.033 363.675 49.1142C364.211 50.1954 364.479 51.4783 364.479 52.9627ZM362.83 52.9627C362.83 51.744 362.626 50.7155 362.218 49.877C361.815 49.0386 361.267 48.4041 360.576 47.9734C359.888 47.5427 359.119 47.3274 358.267 47.3274C357.414 47.3274 356.642 47.5427 355.951 47.9734C355.263 48.4041 354.716 49.0386 354.308 49.877C353.905 50.7155 353.703 51.744 353.703 52.9627C353.703 54.1814 353.905 55.21 354.308 56.0484C354.716 56.8868 355.263 57.5214 355.951 57.952C356.642 58.3827 357.414 58.598 358.267 58.598C359.119 58.598 359.888 58.3827 360.576 57.952C361.267 57.5214 361.815 56.8868 362.218 56.0484C362.626 55.21 362.83 54.1814 362.83 52.9627ZM367.345 60V45.9254H372.101C373.205 45.9254 374.107 46.1247 374.808 46.5233C375.514 46.9173 376.036 47.4511 376.375 48.1246C376.714 48.7981 376.884 49.5494 376.884 50.3787C376.884 51.208 376.714 51.9616 376.375 52.6397C376.041 53.3178 375.523 53.8584 374.822 54.2616C374.121 54.6602 373.223 54.8595 372.128 54.8595H368.719V53.3476H372.073C372.829 53.3476 373.436 53.217 373.894 52.9558C374.352 52.6947 374.685 52.3419 374.891 51.8975C375.101 51.4485 375.207 50.9422 375.207 50.3787C375.207 49.8152 375.101 49.3112 374.891 48.8668C374.685 48.4224 374.35 48.0742 373.887 47.8222C373.425 47.5656 372.811 47.4373 372.046 47.4373H369.049V60H367.345ZM380.371 60.1924V58.598H381.251C381.59 58.598 381.874 58.5316 382.103 58.3987C382.337 58.2659 382.529 58.0941 382.681 57.8833C382.836 57.6726 382.965 57.4526 383.065 57.2236L383.285 56.7013L378.42 45.9254H380.261L384.137 54.6671L387.684 45.9254H389.498L384.632 57.7184C384.44 58.1582 384.22 58.566 383.973 58.9417C383.73 59.3173 383.398 59.6197 382.976 59.8488C382.559 60.0779 381.993 60.1924 381.279 60.1924H380.371ZM391.706 45.9254H393.74L398.523 57.6084H398.688L403.471 45.9254H405.505V60H403.911V49.3066H403.773L399.375 60H397.836L393.437 49.3066H393.3V60H391.706V45.9254Z" fill="white"/>
<path d="M721 26V31C717.3 31.3997 715 31 715 31C715 31 718.184 34.1591 718 39C717.719 46.1859 708.745 52.082 708 61C707.369 68.5767 711 73 711 73H707V26H690L691 81H707V76C708.298 75.7069 711.238 74.5026 714 75C714 75 710.036 72.2976 711 66C712.42 56.7445 719.658 52.4013 720 42C720.219 35.3915 718 33 718 33C718 33 719.448 33.0266 721 33V81H738V26H721Z" fill="white"/>
<path d="M623 34.9999C622.064 35.0538 621.872 34.2603 621 33.9999C620.559 33.8742 619.468 33.9819 619 33.9999C618.486 34.0178 618.523 33.9729 618 33.9999C617.054 34.0538 615.532 33.7093 615 32.9999C614.431 32.2366 614.551 31.7901 614 30.9999C613.578 30.3893 612.514 29.5387 612 28.9999C611.486 28.4521 611.587 27.4668 611 26.9999C610.403 26.5329 609.651 26.377 609 25.9999C608.348 25.6317 607.707 25.2693 607 24.9999C606.495 24.8023 605.514 25.1615 605 24.9999C604.945 24.9819 605.036 24.0448 605 23.9999C604.825 23.8203 604.88 24.0178 605 23.9999C605.918 23.8472 607.073 23.9011 608 23.9999C608.743 24.0807 609.302 24.7395 610 24.9999C610.101 25.0358 610.899 24.955 611 24.9999C611.688 25.2872 612.366 25.6048 613 25.9999C613.642 26.404 614.403 26.5329 615 26.9999C615.587 27.4668 615.44 28.497 616 28.9999C616.349 29.3052 616.651 29.6946 617 29.9999C618.514 31.3469 621.136 32.1378 623 32.9999C622.743 33.1795 623.248 33.1166 623 32.9999C623.174 32.8742 623.248 33.1076 623 32.9999C622.825 32.9281 623.193 32.9999 623 32.9999C622.816 32.9999 622.165 33.0717 622 32.9999C621.229 32.6856 621.587 31.6644 622 30.9999C622.477 30.2456 623.174 29.7395 624 29.9999C624.752 30.2334 625.706 31.2815 626 31.9999C626.633 33.5534 624.68 34.8921 623 34.9999Z" fill="white"/>
<path d="M567 71.9999C565.569 71.0648 563.379 72.3454 562 72.9999C560.69 73.6171 558.465 74.2711 557 73.9999C556.388 73.8877 556.422 73.5049 556 72.9999C555.629 72.5511 555.052 71.5984 555 70.9999C554.888 69.8124 555.819 68.8036 557 68.9999C557.81 69.1308 559.069 70.1303 559 70.9999C559.336 70.8503 559.655 70.1028 560 69.9999C562.336 69.308 565.026 70.457 567 71.9999C567.362 72.2337 567.327 72.2524 567 71.9999Z" fill="white"/>
<path d="M571 75.0001C571.156 75.1379 571.963 75.3767 572 75.0001C572.009 74.9082 572.028 75.0828 572 75.0001C571.798 74.3938 571.285 73.5604 571 73.0001C570.78 72.5684 570.257 71.4135 570 71.0001C569.743 70.5776 570.294 70.3951 570 70.0001C569.853 69.8072 569.156 70.193 569 70.0001C568.945 69.9266 568.982 69.0736 569 69.0001C569.239 68.0356 567.946 67.1563 567 67.0001C567.239 66.4214 567.285 65.588 567 65.0001C566.743 64.4765 566.551 64.1746 566 64.0001C566.166 63.5867 566.184 63.3767 566 63.0001C565.789 62.5592 565.193 61.4686 565 61.0001C564.816 60.55 564.688 60.3124 565 60.0001C565.331 59.6602 565.798 59.441 566 59.0001C566.239 58.4857 566.101 57.5512 566 57.0001C565.807 55.8427 565.652 54.9278 565 54.0001C564.504 53.2928 563.743 52.8911 564 52.0001C564.303 52.4226 564.449 51.9542 565 52.0001C565.873 52.0736 566.761 51.8084 567 51.0001C567.267 50.1183 566.726 49.5512 566 49.0001C565.256 48.4398 564.864 47.6602 564 48.0001C561.897 48.8268 560.862 51.9609 561 54.0001C561.147 56.1863 562.175 57.7955 562 60.0001C561.954 60.6155 561.184 61.403 561 62.0001C560.826 62.5788 560.807 63.403 561 64.0001C561.193 64.5788 562.403 64.9542 563 65.0001C562.862 65.5972 562.624 66.5133 563 67.0001C563.358 67.4778 564.421 67.945 565 68.0001C564.807 68.5145 564.67 68.5408 565 69.0001C565.349 69.4686 565.44 70.0368 566 70.0001C566 70.8911 567.366 71.5408 568 72.0001C568.551 72.3951 569.449 72.5959 570 73.0001C570.267 73.193 570.734 73.8072 571 74.0001C571.303 74.2206 570.725 74.7613 571 75.0001Z" fill="white"/>
<path d="M580 81.0001C579.604 80.7192 579.43 81.237 579 81.0001C578.553 80.7543 578.473 80.1756 578 80.0001C576.408 79.4209 573.634 79.3862 572 79.0001C570.83 78.728 570.981 77.7109 570 77.0001C568.993 76.2805 568.015 75.7021 567 75.0001C566.045 74.3419 564.161 73.7982 563 74.0001C561.882 74.1931 561.594 74.9997 561 76.0001C559.753 78.0886 560.634 82.377 563 83.0001C564.161 83.3072 565.501 82.176 566 81.0001C566.37 80.1225 565.791 78.4388 565 78.0001C564.983 77.9298 565.034 78.0615 565 78.0001C565.284 78.7898 564.766 80.6227 564 81.0001C563.191 81.4037 562.576 80.7021 562 80.0001C561.346 79.2015 561.51 77.8776 562 77.0001C562.447 76.2015 563.131 76.1317 564 76.0001C564.895 75.8684 566.286 75.4209 567 76.0001C567.731 76.588 567.879 78.0611 568 79.0001C568.275 81.0359 566.789 84.2103 565 85.0001C562.987 85.8864 559.763 85.2637 558 84.0001C557.2 83.4297 556.413 80.9127 556 80.0001C555.57 79.0611 555.75 78.0004 556 77.0001C556.542 74.8589 558.953 73.4827 561 73.0001C563.34 72.456 565.789 73.2103 568 74.0001C571.957 75.4129 575.481 77.6833 579 80.0001C579.542 80.2721 580.535 80.5613 581 81.0001C581.267 81.2458 580.301 81.2107 580 81.0001Z" fill="white"/>
<path d="M621 70C621 70.896 620.492 70.2902 620 71C619.535 71.6653 618.527 72.3878 618 73C616.955 74.2331 616.239 75.9709 615 77C612.514 79.0581 610.013 80.8555 607 82C603.987 83.1444 600.215 83.9379 597 84C593.847 84.0621 589.995 83.0202 587 82C584.014 80.9797 582.521 79.9251 580 78C573.957 73.3779 569.028 66.5939 568 59C566.841 50.439 569.905 41.8487 575 35C577.626 31.4691 582.074 27.9606 586 26C590.462 23.7732 595.064 22.0684 600 23C604.322 23.8161 607.435 27.3449 610 31C612.082 33.9719 613.536 37.3981 613 41C613.729 41.5766 614.29 43.0596 614 44C613.772 44.7718 612.764 44.0975 612 44C611.851 44.2572 612.167 44.7516 612 45C609.848 48.2558 606.935 50.2217 603 50C601.059 49.8935 598.485 49.2863 597 48C595.63 46.82 594.369 45.792 594 44C593.64 42.2345 594.104 40.5613 595 39C595.887 37.4563 597.27 36.4347 599 36C600.88 35.5209 603.779 35.3942 605 37C605.536 37.7097 606.026 39.1039 606 40C605.974 40.8516 605.58 41.3878 605 42C604.42 42.6121 602.843 43.0354 602 43C601.139 42.9645 600.395 42.7984 600 42C599.631 41.2459 599.359 40.5943 600 40C600.553 39.4765 601.35 38.6007 602 39C601.649 38.2193 600.773 37.7338 600 38C599.13 38.2927 598.404 39.1926 598 40C597.289 41.4016 597.201 42.6515 598 44C598.799 45.3484 600.472 46.7338 602 47C603.73 47.3016 606.586 46.0202 608 45C608.817 44.4056 608.447 44.8427 609 44C608.824 43.3701 608.816 42.6564 609 42C609.307 40.9265 609.885 39.9112 611 40C610.903 39.3257 611.193 38.6476 611 38C609.964 34.5667 608.145 31.6678 605 30C601.838 28.3232 597.408 27.9354 594 29C590.689 30.0379 588.108 32.2409 586 35C583.743 37.9542 582.72 41.3626 582 45C581.271 48.6816 581.412 52.2917 582 56C582.589 59.6816 583.98 63.8594 586 67C587.818 69.8211 589.172 71.2257 592 73C594.802 74.7565 598.689 76.8137 602 77C604.793 77.1596 606.435 76.1178 609 75C608.253 75.1153 608.747 74.9467 608 75C605.251 75.2217 601.697 75.6476 599 75C596.751 74.4588 594.142 73.1469 593 71C592.447 69.962 592.387 70.1 592 69C591.807 68.4677 591.299 67.479 591 67C590.71 66.5386 590.545 66.1508 590 66C589.745 65.929 589.053 65.6806 589 66C588.947 66.3193 589.763 66.8403 590 67C590.264 67.1774 590.754 66.8048 591 67C591.202 67.1508 590.86 67.787 591 68C591.571 68.8782 591.641 70.1749 591 71C590.939 71.0798 591.079 71.0532 591 71C590.912 70.9467 590.991 71.0975 591 71C591.009 70.7604 591.097 70.2306 591 70C590.93 69.8314 590.105 69.1419 590 69C589.772 68.7161 589.29 69.204 589 69C588.42 68.5919 588.518 67.4968 588 67C587.561 66.5919 587.018 66.621 587 66C586.982 65.3878 587.587 64.4258 588 64C589.01 62.9265 590.744 63.4765 592 64C593.265 64.5234 594.253 64.8378 595 66C595.237 66.3637 594.833 67.6096 595 68C595.079 68.1951 595.93 67.7959 596 68C596.062 68.204 595.921 68.8048 596 69C596.167 68.7161 595.877 68.3105 596 68C596.132 67.6717 596.851 67.3282 597 67C597.29 66.3612 597.596 65.5766 598 65C598.58 64.1838 599.13 63.4968 600 63C600.993 62.4233 602.876 61.7782 604 62C605.124 62.2217 605.394 63.033 606 64C606.632 65.0024 607.176 66.8112 607 68C606.851 69.0734 605.887 69.379 605 70C604.157 70.5943 602.975 71.3548 602 71C601.043 70.6451 600.07 70.0557 600 69C599.93 67.9797 600.92 65.8669 602 66C602.791 66.0975 604.246 67.2459 604 68C604.474 68.0798 604.64 68.3371 605 68C605.457 67.5653 605.149 66.6032 605 66C604.701 64.7846 604.16 63.8491 603 64C601.902 64.1419 600.571 65.0773 600 66C599.35 67.0468 598.877 68.7757 599 70C599.114 71.1355 599.253 71.1483 600 72C600.808 72.9226 602.823 73.6895 604 74C605.195 74.3105 605.77 74.0354 607 74C608.203 73.9645 608.832 74.2927 610 74C611.95 73.5032 614.656 72.4992 616 71C616.685 70.2281 616.526 69.9137 617 69C617.457 68.1217 619.016 67.4499 620 68C619.939 67.9645 620.062 68.0354 620 68C620.562 68.408 620.991 69.308 621 70Z" fill="white"/>
<path d="M602 60.9999C601.631 61.6534 600.765 61.1461 600 60.9999C599.327 60.871 598.12 60.6276 598 59.9999C597.936 59.6732 598.853 59.3095 599 58.9999C599.166 58.6474 598.945 58.3955 599 57.9999C599.055 57.6216 598.341 56.9054 598 56.9999C597.585 57.1117 598.203 57.6732 598 57.9999C597.558 58.7136 597.019 60.1831 597 60.9999C597.498 61.1633 598.166 61.5098 598 61.9999C597.834 62.4815 596.498 63.1031 596 62.9999C595.991 62.9312 596.065 63.0171 596 62.9999C596.019 63.2579 596.019 63.742 596 63.9999C595.963 64.5073 596.148 65.5184 596 65.9999C595.963 66.1203 596.111 65.9483 596 65.9999C595.899 66.0429 595.092 66.0601 595 65.9999C594.65 65.785 595.102 65.3525 595 64.9999C594.917 64.699 595.092 64.3009 595 63.9999C594.954 63.8366 594.046 63.1633 594 62.9999C593.973 62.8968 594.092 63.0687 594 62.9999C593.908 62.9312 594.111 62.9999 594 62.9999C593.871 62.9999 594.12 63.0257 594 62.9999C593.521 62.8882 592.761 62.3869 593 61.9999C593.304 61.5098 594.456 60.9741 595 60.9999C595 59.8305 595.401 59.0318 596 57.9999C596.544 57.0713 596.949 55.4471 598 54.9999C598.968 54.5872 600.189 55.2949 601 55.9999C601.36 56.3095 601.936 56.5528 602 56.9999C602.074 57.4987 602.314 57.6044 602 57.9999C601.668 58.4213 601.102 59.4582 601 59.9999C600.779 59.8624 600.954 60.2321 601 59.9999C600.88 60.1547 601.157 60.0945 601 59.9999C600.954 60.0171 601.037 59.9569 601 59.9999C601.166 59.8968 602.111 59.7936 602 59.9999" fill="white"/>
<path d="M489 37C488.627 41.36 486.77 44.9551 483 45C480.525 45.0269 478.479 43.256 478 42C477.69 41.1836 477.885 41.0359 478 41C477.911 40.8923 478.071 40.9821 478 41C478.532 41.6818 479.864 42 481 42C481.807 42 483.565 41.5478 484 39C484.47 36.2369 482.606 36.0269 481 36C479.43 35.9731 474.825 35.2094 474 40C473.184 44.7906 478 50 478 50L472 55C472 55 472.352 42.4725 473 37C473.639 31.5186 476.547 28 481 28C486.367 28 489.399 32.2722 489 37ZM502 37C501.61 26.1628 489.7 22 482 22C474.3 22 459.26 25.1478 458 41C457.574 50.2045 458 79 458 79C458 79 456.508 79 455 79C453.173 79 452.293 78.9462 452 79C451.45 79.0987 450.982 80.4438 451 81C451.027 81.7805 451.485 81.9641 452 82C453.065 82.0718 461.327 82 465 82C468.673 82 476.998 82 478 82C478.71 82 478.991 81.6728 479 81C479.009 80.2823 478.807 79 478 79C477.193 79 471.991 79.5921 472 79C472 78.1836 472 61.7446 472 61C472 60.2554 481.432 50.8565 482 51C482.816 51.2063 485.061 52 489 52C492.939 52 502.435 49.1381 502 37Z" fill="white"/>
<path d="M767 62H764C763.307 62 762 62.3333 762 63V66H761C760.307 66 759 66.3333 759 67V77H751V63C751 62.3419 750.702 62 750 62H748C747.307 62 747 62.3333 747 63V76C747 76.6581 747.298 77 748 77H751V80C751 80.6581 751.298 81 752 81H765C765.693 81 767 80.6667 767 80V77H770C770.693 77 771 76.6581 771 76V66H774C774.693 66 775 65.6667 775 65V62H767Z" fill="white"/>
<path d="M791 54H770V51C770 50.3176 769.691 49 769 49H767V34H787V48C787 48.6824 787.317 49 788 49H791V54ZM798 34H805C805.683 34 806 33.6913 806 33V30H809C809.683 30 810 29.6913 810 29V27C810 26.3176 809.683 26 809 26H792C791.317 26 791 26.3087 791 27V30H782V27C782 26.3176 781.691 26 781 26H764C763.317 26 763 26.3087 763 27V30H760C759.317 30 759 30.3087 759 31V34H756C755.317 34 755 34.3087 755 35V48C755 48.6824 755.317 49 756 49H759V52C759 52.6824 759.309 54 760 54H767V56C767 56.6824 767.309 58 768 58H774V62H787V77H784C783.317 77 783 77.3087 783 78V80C783 80.6824 783.309 81 784 81H809C809.683 81 810 80.6913 810 80V78C810 77.3176 809.683 77 809 77H806V74C806 73.3176 805.691 73 805 73H798V34Z" fill="white"/>
<path d="M553 50C552.839 57.0157 549.712 63.9933 545 71C540.96 77.0134 536.64 82.8166 532 85C511.577 69.9128 509.292 54.6689 510 47C510.896 37.2192 516.971 29.3311 526 25C528.033 24.0246 529.898 22.7517 531 22C531.215 21.8479 531.857 22.1163 532 22C532.761 22.5011 533.298 23.1678 535 24C550.201 31.481 553.188 42.1074 553 50ZM554 42C553.319 39.3423 552.46 37.3356 551 35C550.239 33.774 548.976 33.1275 548 32C547.006 30.8456 546.209 29.038 545 28C543.764 26.9262 542.478 25.9575 541 25C539.486 24.0157 536.747 22.8591 535 22C532.617 20.8277 532 20 532 20L531 19V20C531 20 530.69 19.5436 530 20C529.301 20.4653 527.356 21.8725 525 23C522.662 24.1186 520.962 25.3535 519 27C517.047 28.6376 515.451 30.9508 514 33C512.531 35.0671 510.887 36.6197 510 39C509.095 41.434 508.233 44.387 508 47C507.713 50.1588 508.301 53.7517 509 57C509.735 60.4004 511.226 63.689 513 67C514.872 70.4899 517.035 73.7338 520 77C521.541 78.7002 523.182 80.3893 525 82C526.872 83.6644 528.85 85.434 531 87H532C537.079 84.7897 542.62 78.5145 547 72C548.129 70.3266 549.086 69.7718 550 68C550.949 66.1656 552.319 63.8881 553 62C554.469 57.9374 554.91 53.8568 555 50C555.063 47.2886 554.636 44.4966 554 42Z" fill="white"/>
<path d="M547 35.9999C546.901 35.7936 547.126 36.1883 547 35.9999C547 35.982 547 36.0179 547 35.9999C547.297 36.6906 547.495 37.363 547 37.9999C546.919 38.1076 547.108 37.9192 547 37.9999C546.514 38.3767 545.603 38.1434 545 37.9999C544.459 37.8743 544.162 38.5291 544 37.9999C543.919 37.7308 543.937 38.278 544 37.9999C544.027 37.8654 543.928 37.1165 544 36.9999C544.009 36.9999 544.018 36.964 544 36.9999C544 36.9999 542.242 33.9059 540 32.9999C540.054 32.3899 540.036 31.0046 541 29.9999C541.018 29.982 541.928 30.9282 542 30.9999C542.324 31.287 542.685 30.7039 543 30.9999C543.648 31.6278 544.414 32.3182 545 32.9999C545.612 33.7175 546.468 35.2195 547 35.9999ZM549 37.9999C548.892 38.1883 548.288 38.7129 548 38.9999C547.468 39.5202 546.72 39.9371 546 39.9999C545.802 39.5783 546 38.9999 546 38.9999C548.035 38.7488 548.054 38.6637 548 37.9999C548.252 38.4484 548.775 37.5245 549 37.9999ZM549 38.9999C548.892 39.1793 549.351 39.677 549 39.9999C548.459 40.4843 547.666 40.9102 547 40.9999C546.928 40.7577 547.081 41.2152 547 40.9999C547.792 40.8833 548.414 39.583 549 38.9999C549.171 38.8295 548.883 39.1614 549 38.9999C549.081 39.1883 548.928 38.8115 549 38.9999ZM550 40.9999C550.153 42.9733 549.981 46.5062 547 48.9999C547 48.9999 550.441 53.7435 550 58.9999C549.279 61.2514 548.063 64.0534 547 65.9999C547 65.9461 547.009 66.0537 547 65.9999C546.874 65.1926 546.585 63.5381 546 62.9999C546 62.9999 546.009 63.0089 546 62.9999C546.639 62.3361 548.423 60.8481 548 56.9999C547.964 56.7039 548.063 56.2959 548 55.9999C547.901 55.5155 547.162 54.4574 547 53.9999C546.811 53.4707 546.315 53.4664 546 52.9999C545.486 52.2464 544.927 51.1345 544 50.9999C543.766 50.964 543.207 50.8833 543 50.9999C542.892 51.0627 542.964 50.8743 543 50.9999C543.036 51.1255 542.946 51.8833 543 51.9999C543.117 52.2242 543.991 52.7488 544 52.9999C544.018 53.4215 543.297 53.7039 543 53.9999C542.523 54.4843 541.639 54.5022 541 53.9999C540.369 53.5066 540.036 52.6458 540 51.9999C539.919 50.5826 540.991 49.0089 541 48.9999H542H541C541 48.9999 539.874 46.5517 540 44.9999C540.054 44.3989 540.378 44.4215 541 43.9999C541.891 43.3899 542.649 43.8026 543 43.9999C543.567 44.3318 544.045 44.4258 544 44.9999C543.964 45.4305 543.468 45.8026 543 45.9999C542.901 46.0717 543.126 46.9461 543 46.9999C543.873 46.9192 544.216 46.4036 545 45.9999C545.549 45.7218 546.676 45.5291 547 44.9999C547.279 44.5514 546.964 43.5291 547 42.9999C547.027 42.5514 547.081 42.4394 547 41.9999C547.333 41.9461 547.694 42.1345 548 41.9999C548.414 41.8205 548.649 41.3228 549 40.9999C549.207 40.8115 549.865 40.1703 550 39.9999C550.036 40.1076 549.964 40.8923 550 40.9999ZM549 49.9999C548.757 49.7667 548.91 49.3587 549 48.9999C549.09 48.6411 549.712 48.8833 550 48.9999C550.27 49.1165 550.009 49.6411 550 49.9999C549.991 50.565 549.387 50.3677 549 49.9999ZM546 66.9999C545.973 67.0537 546.027 66.9461 546 66.9999C545.973 67.0358 546.027 66.9551 546 66.9999C544.451 69.4667 542.666 72.17 541 73.9999C540.829 73.8295 540.252 73.3767 540 72.9999C539.622 72.4348 539.171 71.1929 539 69.9999C539.729 69.9282 540.441 69.3318 541 68.9999C541.513 68.6949 541.658 68.5022 542 67.9999C542.576 67.1388 543 67.0358 543 66.9999C543 66.9999 542.036 66.8252 542 65.9999C541.973 65.4797 542.423 64.5202 543 63.9999C544.081 63.0312 544.712 63.7398 545 63.9999C545.873 64.7803 546.756 65.6993 546 66.9999ZM532 80.9999C530.199 79.9235 527.999 77.7537 525 74.9999C525.387 74.5514 525.775 74.565 526 73.9999C526.054 73.8654 525.955 73.1345 526 72.9999C526.792 73.0179 528.649 74.0976 532 79.9999C532 79.9999 534.56 74.6414 539 72.9999C538.955 72.9282 539.045 73.0717 539 72.9999C539.279 73.4036 539.82 73.8205 540 73.9999C535.911 78.3773 532 80.9999 532 80.9999ZM521 69.9999C520.523 69.2733 518.541 68.0361 519 65.9999C519.009 65.9551 518.982 65.0448 519 64.9999C519 64.9909 519 65.0179 519 64.9999C519.018 64.5514 519.658 64.269 520 63.9999C520.405 63.677 520.486 64.0627 521 63.9999C521.567 63.9371 522.586 63.6052 523 63.9999C522.919 63.9282 523.09 64.0627 523 63.9999C523.549 64.5202 524.261 65.4707 524 65.9999C523.802 66.3946 523.369 66.973 523 66.9999C522.712 67.0268 522.018 67.0089 522 66.9999V65.9999V66.9999C522 66.9999 521.676 67.1926 522 67.9999C522.189 68.4753 522.73 68.6321 523 68.9999C523.342 69.4753 523.55 69.7308 524 69.9999C524.594 70.3677 525.261 71.0089 526 70.9999C526.027 71.2959 526.045 71.5155 526 71.9999C525.883 73.1212 525.666 74.2285 525 74.9999C523.703 73.78 522.261 71.5786 521 69.9999ZM514 49.9999C514 49.5604 514.613 49.269 515 48.9999C514.946 48.8923 515.099 48.9371 515 48.9999C515.234 49.4394 515.766 49.8205 516 49.9999C516.09 49.9371 516.09 50.0627 516 49.9999C515.748 50.1614 515.279 50.6321 515 50.9999C514.937 51.0806 515.054 51.0806 515 50.9999C514.838 50.7936 514 50.4574 514 49.9999ZM515 60.9999C513.28 52.6129 517 49.9999 517 49.9999C514.433 47.578 514.036 43.3275 514 41.9999C514.126 42.1255 513.829 42.8743 514 42.9999C514.414 43.3139 515.477 42.8474 516 42.9999C516.468 43.1345 516.468 43.9999 517 43.9999C516.892 43.9999 517.108 43.9999 517 43.9999C516.937 43.9999 517.973 44.9012 518 44.9999C518.099 45.3856 517.811 45.6591 518 45.9999C518.297 46.565 518.559 47.5424 519 47.9999C519.459 48.4664 520.423 48.686 521 48.9999C521.54 49.2959 522.387 49.9102 523 49.9999C523.639 50.0896 524.36 49.9909 525 49.9999C525.909 50.0179 526.523 50.2375 527 50.9999C527.396 51.6278 527.009 52.2554 527 52.9999C527 53.5381 527.27 54.8564 526 54.9999C525.225 55.0896 524.36 55.3946 524 54.9999C523.387 54.3361 523.928 52.8252 524 51.9999C524 52.0268 523.063 52.0268 523 51.9999C522.784 51.9102 522.225 51.0448 522 50.9999C521.432 50.8743 520.549 51.8205 520 51.9999C519.243 52.2511 518.522 52.3989 518 52.9999C515.271 56.1574 518.045 62.17 519 63.9999C518.685 64.3587 518.117 64.5066 518 64.9999C517.856 65.6188 517.82 66.1926 518 66.9999C518.036 67.1793 518.946 66.8205 519 66.9999C517.676 64.9547 515.955 63.5474 515 60.9999ZM514 40.9999C513.847 40.8474 514.108 41.1345 514 40.9999C514.36 41.3408 515.514 41.7846 516 41.9999C516.513 42.2331 516.378 41.9192 517 41.9999C516.973 42.1793 517.018 42.8026 517 42.9999C515.874 43.0627 514.756 42.5471 514 41.9999C513.613 41.7129 514.126 41.1793 514 40.9999C514.081 40.7308 513.901 41.26 514 40.9999ZM515 37.9999C514.847 39.2378 515.568 39.3361 516 39.9999C516.378 40.5919 517.198 40.9371 518 40.9999C517.964 41.1165 518.036 41.8385 518 41.9999C516.928 41.8743 515.657 41.6099 515 40.9999C514.694 40.7129 514.108 40.1883 514 39.9999C514.333 39.1567 514.586 38.7713 515 37.9999ZM516 37.9999C515.937 38.3856 516.018 37.6411 516 37.9999C516.099 37.3899 516.676 36.4753 517 35.9999C517.36 35.4796 517.604 34.4933 518 33.9999C518.765 33.0491 520.117 32.8431 521 31.9999C521.81 31.2285 522.108 29.6816 523 28.9999C523.09 29.1434 522.91 29.7577 523 29.9999C523.216 30.6188 524.351 31.3046 524 32.9999C523.405 33.2511 522.603 34.4258 522 34.9999C520.757 36.184 520.108 36.9504 520 37.9999C519.973 37.9551 520 38.0358 520 37.9999C519.973 37.8923 520.063 38.0896 520 37.9999C520.045 38.2242 520.036 38.7757 520 38.9999C519.937 39.4394 520.333 39.6949 520 39.9999C519.586 40.3856 518.558 41.0627 518 40.9999C517.45 40.9371 516.315 40.4843 516 39.9999C515.649 39.4617 515.973 38.6278 516 37.9999ZM525 27.9999C525.144 28.26 525.847 28.5514 526 28.9999C526.288 29.8521 526.315 31.3225 526 32.9999C525.523 32.982 524.558 32.8564 524 32.9999C524.387 30.7484 524.396 29.6099 524 28.9999C524.459 28.6591 524.55 28.3049 525 27.9999ZM532 23.9999C532 23.9999 534.316 25.5959 538 27.9999C537.586 28.3139 537.27 28.4527 537 28.9999C536.973 29.0448 537.018 28.9461 537 28.9999C535.613 28.085 532 25.9999 532 25.9999C530 26.8162 526.991 28.4438 526 28.9999C525.946 28.8026 526.072 29.1973 526 28.9999C525.82 28.4976 526.162 28.287 526 27.9999C529.593 25.6856 532 23.9999 532 23.9999ZM537 33.9999C536.991 33.9551 536.964 33.0448 537 32.9999C537.027 32.964 537.955 33.0268 538 32.9999C537.757 32.9371 538.216 32.8743 538 32.9999C538.09 33.0268 538.946 32.9192 539 32.9999C539.036 33.0627 539.009 33.9551 539 33.9999C538.955 34.1524 538.135 33.9909 538 33.9999C537.847 34.0179 538.153 34.0358 538 33.9999C537.91 33.982 537.027 34.0896 537 33.9999ZM534 29.9999L532 30.9999C531.847 31.1076 532.153 31.1076 532 30.9999C531.468 30.6232 530.72 30.4305 530 29.9999C529.829 29.8923 529.82 29.0717 530 28.9999C530.612 28.7308 531.423 28.3228 532 27.9999C531.766 27.8295 532.252 27.8564 532 27.9999C532.513 28.3946 533.459 28.6949 534 28.9999C534.144 29.0806 534.135 29.9012 534 29.9999ZM534 39.9999C534 42.0271 533.477 43.2913 533 43.9999C532.64 44.5291 532.207 44.8474 532 44.9999C531.108 44.1926 531.315 43.2557 531 41.9999C530.829 41.3272 531.009 40.3139 531 39.9999C531.189 39.9192 531.838 40.1165 532 39.9999C532.351 39.7667 531.739 39.3497 532 38.9999C532.243 38.6591 531.847 38.4305 532 37.9999C531.964 37.9282 532.027 38.0806 532 37.9999C532.189 38.4574 532.694 38.7129 533 38.9999C533.315 39.2959 533.577 39.8743 534 39.9999ZM537 32.9999C536.261 33.7534 535.937 35.4438 536 35.9999C535.973 35.9192 536.018 36.0896 536 35.9999C536.081 36.2152 535.847 36.8205 536 36.9999C536.765 37.1703 536.973 37.4079 537 37.9999C537.054 38.9328 537.243 38.9371 536 38.9999C535.207 39.0448 534.45 38.4305 534 37.9999C533.405 37.4348 533.162 37.7893 533 36.9999C532.802 36.076 532.703 34.9059 533 33.9999C533.342 32.9414 534.081 31.6727 535 30.9999C535.973 30.2913 536.55 30.1345 537 29.9999C536.937 30.2331 537.045 30.7488 537 30.9999C536.838 31.9597 536.982 32.5694 537 32.9999ZM527 30.9999C527 30.9192 527.009 31.0806 527 30.9999C527.567 30.9371 528.271 30.8607 530 31.9999C530.675 32.4394 531.514 32.3541 532 32.9999C532.468 33.6278 531.964 35.2016 532 35.9999C532.045 36.879 532.324 37.1747 532 37.9999C531.73 38.6816 531.63 38.5783 531 38.9999C529.865 39.7624 528.783 39.4394 528 38.9999C527.252 38.5873 526.973 38.6727 527 37.9999C527.027 37.3541 526.622 37.2511 527 36.9999C527.756 36.4707 529.991 36.9999 530 36.9999C530.063 36.5424 530.18 35.4305 530 34.9999C529.73 34.3541 528.612 34.3139 528 33.9999C527.865 33.9282 527.018 32.9192 527 32.9999C527.135 32.2464 527.063 31.7265 527 30.9999ZM527 46.9999C526.955 47.1793 527.063 46.8295 527 46.9999C527.333 47.0179 528.27 46.8115 529 46.9999C529.864 47.2242 531.495 48.0401 532 48.9999C531.919 49.1973 531.432 49.5694 531 49.9999C530.225 50.7713 529.387 50.9371 528 50.9999C527.919 50.8205 527.099 50.1614 527 49.9999C526.55 49.2733 526.684 49.1793 526 48.9999C526.765 48.5783 526.703 47.7534 527 46.9999ZM524 45.9999C523 45.5066 522.811 44.7803 523 43.9999C523.189 43.1926 523.225 42.9999 524 42.9999C525 42.9999 526.703 43.771 527 44.9999C527.27 46.0943 526.522 47.2016 525 47.9999C523.757 48.6458 522.288 48.6906 521 47.9999C520.793 47.8833 521.171 48.1255 521 47.9999C520.847 47.982 521.135 48.0268 521 47.9999C521.603 48.0717 522.541 48.1165 523 47.9999C523.612 47.8474 523.667 47.4664 524 46.9999V45.9999ZM534 63.9999C533.892 64.3946 534.036 64.5963 534 64.9999C534 65.0448 534.009 64.964 534 64.9999C532.631 64.7667 531.774 64.8833 531 64.9999C530.973 64.6321 531.063 64.3856 531 63.9999C530.991 63.9371 531.009 64.0627 531 63.9999C531.747 63.9102 532.334 63.8205 534 63.9999ZM531 55.9999C531.018 55.7039 530.793 54.6996 531 53.9999C531.369 52.762 531.063 51.7713 532 50.9999C532.207 51.1524 532.667 51.5424 533 51.9999C533.486 52.6727 533.901 54.1521 534 55.9999C533.504 56.2421 533.387 56.6142 533 56.9999C532.613 57.3856 532.18 57.686 532 57.9999C531.928 57.8743 532.099 57.1434 532 56.9999C531.766 56.659 532.288 56.26 532 55.9999C531.667 55.7039 531.387 56.1883 531 55.9999ZM528 62.9999C526.307 63.1614 524.36 62.4082 524 60.9999C523.649 59.6275 524.784 57.9418 527 56.9999C528.468 56.381 529.91 55.5245 531 55.9999C531.828 56.3587 531.676 57.5424 532 57.9999C532.36 58.5112 532 58.9999 532 58.9999V59.9999C531.973 60.0627 532.027 60.0627 532 59.9999V58.9999C532 58.9999 532.27 57.7265 533 56.9999C533.982 56.0222 536.325 55.8743 538 55.9999C540.179 56.1703 540.946 57.484 541 58.9999C541.036 60.1391 540.657 61.7577 539 61.9999C538.36 62.0986 537.495 62.3318 537 61.9999C536.613 61.7308 536.018 61.0358 536 60.9999C535.919 60.8743 536.153 60.9551 536 60.9999C535.928 61.0179 536.054 60.9461 536 60.9999C535.55 61.583 535.252 62.3451 535 62.9999C534.09 62.8923 533.252 62.9102 532 62.9999C531.351 63.0448 531.306 62.964 531 62.9999C530.757 61.9773 530.144 61.3497 530 60.9999C529.937 60.8295 530.171 60.9551 530 60.9999C529.829 61.0448 528.982 60.8205 529 60.9999C529.045 61.6099 529.684 62.8385 528 62.9999ZM532 67.9999C530.46 70.6371 528.135 72.7308 527 72.9999C527.063 72.7398 526.973 72.269 527 71.9999C527.054 71.4886 527.036 70.3228 527 69.9999C527.405 69.9461 527.559 70.1434 528 69.9999C529.198 69.5963 530.495 69.0763 531 67.9999C531.297 67.363 530.964 67.8521 531 66.9999C531 66.8564 531 66.1434 531 65.9999C531.711 65.8923 532.712 65.7398 534 65.9999C534 66.3408 533.946 66.668 534 66.9999C534.108 67.574 534.748 67.5155 535 67.9999C535.369 68.6996 535.405 68.6142 536 68.9999C536.315 69.1973 536.649 69.9012 537 69.9999C537.279 70.0806 537.703 69.9909 538 69.9999C538.072 70.5471 538.802 71.4976 539 71.9999C538.856 71.7398 539.108 72.278 539 71.9999C535.406 71.8385 532 67.9999 532 67.9999ZM533 74.9999C533.135 75.3139 533.045 75.668 533 75.9999C532.973 76.1524 533.045 76.8564 533 76.9999C532.964 77.1345 533.063 76.8833 533 76.9999C532.946 77.1165 533.108 76.9102 533 76.9999C532.901 77.0806 532.099 77.9102 532 77.9999C531.901 78.0806 532.018 77.8833 532 77.9999C531.982 78.1076 532.117 77.964 532 77.9999C531.856 78.0358 532.063 78.0986 532 77.9999C531.919 77.8654 532.081 78.1255 532 77.9999C531.847 77.7308 532.135 77.278 532 76.9999C531.874 76.7398 531.955 76.2959 532 75.9999C532.045 75.7218 531.829 75.2062 532 74.9999C532.144 74.8295 532.126 74.2331 532 73.9999C531.748 73.9192 532.252 73.9461 532 73.9999C531.739 74.0537 531.27 75.0448 531 74.9999C530.766 74.9551 530.189 74.1345 530 73.9999C529.613 73.7129 529.27 73.4036 529 72.9999C528.964 73.0179 528.982 72.973 529 72.9999C529.234 72.8205 529.73 73.1255 530 72.9999C530.234 72.8923 530.748 71.9909 531 71.9999C531.261 72.0089 530.793 72.8474 531 72.9999C531.342 73.269 531.559 72.8833 532 72.9999C532.063 72.686 532.135 73.269 532 72.9999C531.874 72.7488 532.027 72.287 532 71.9999C531.973 71.7398 531.847 71.2152 532 70.9999C532.297 70.5873 531.766 70.4664 532 69.9999C531.982 69.9371 532.036 69.9371 532 69.9999C532.018 70.0806 532.955 69.9282 533 69.9999C532.883 69.8923 533.09 70.1345 533 69.9999C533.126 70.1165 532.919 70.8474 533 70.9999C533.162 71.2959 533.045 71.659 533 71.9999C532.982 72.1793 533.081 71.8385 533 71.9999C532.919 72.1703 533.09 72.8385 533 72.9999C532.919 73.1434 533.009 72.8295 533 72.9999C532.973 73.0089 533 73.0268 533 72.9999C532.964 73.0089 533.036 72.9999 533 72.9999C532.928 73.0448 533.081 72.964 533 72.9999C533.162 72.9012 533.865 73.1345 534 72.9999C533.811 73.0179 534.135 72.8564 534 72.9999C534.198 72.982 534.82 72.9102 535 72.9999C534.811 72.8923 535.189 73.0986 535 72.9999H536C535.946 72.9282 536.081 73.0448 536 72.9999C536.126 73.1703 536.108 73.8743 536 73.9999C535.784 74.269 535.333 74.8743 535 74.9999C534.36 75.2421 533.54 74.4125 533 73.9999C533 74.287 532.901 74.7488 533 74.9999ZM539 46.9999C539.144 47.3856 539.73 47.5963 540 47.9999C540.27 48.4036 540.811 48.8026 541 48.9999C540.712 49.3318 540.27 50.2016 540 50.9999C539.712 51.0268 538.828 51.1793 538 50.9999C536.613 50.686 534.81 49.2019 534 47.9999C534.414 47.5245 536.1 45.973 539 45.9999C539.027 46.0806 538.964 46.9192 539 46.9999ZM540 39.9999C544.323 39.8564 546.279 40.8112 546 42.9999C545.847 44.2378 544.927 45.6142 544 45.9999C544.072 45.8295 543.982 45.1883 544 44.9999C544.036 44.5873 544.225 44.4036 544 43.9999C543.775 43.6052 543.387 43.2242 543 42.9999C542.613 42.7757 542.432 42.982 542 42.9999C541.514 43.0179 540.459 42.686 540 42.9999C539.216 43.5381 539.063 44.1926 539 44.9999C538.982 45.1614 538.991 45.8295 539 45.9999C538.234 45.9999 537.675 45.8205 537 45.9999C536.351 46.1703 535.531 46.677 535 46.9999C534.081 47.565 534.018 47.973 534 47.9999C534.504 48.8072 535.252 49.5155 536 49.9999C536.594 50.3856 537.279 50.8385 538 50.9999C538.558 51.1255 538.622 51.9999 539 51.9999C539.126 51.9999 538.901 51.0089 539 50.9999C538.973 51.1973 538.991 51.8026 539 51.9999C539.045 52.8431 540.216 53.3899 541 53.9999C541.351 54.269 541.55 54.9999 542 54.9999C541.901 55.0268 542.099 54.9999 542 54.9999C542.504 54.9282 543.631 54.3767 544 53.9999C544.333 53.668 543.928 53.4484 544 52.9999C545.405 54.9733 544 57.9999 544 57.9999C546.08 59.6504 544.333 62.4169 544 62.9999C543.919 62.982 544.081 62.9999 544 62.9999C543.378 62.964 542.513 62.5424 542 62.9999C541.261 63.6637 540.973 64.2733 541 64.9999C541.036 65.87 541.703 66.7308 542 66.9999C541.937 67.26 542.351 67.4886 542 67.9999C541.342 68.9597 540.333 68.9461 539 68.9999C537.757 69.0537 535.657 68.2557 535 66.9999C534.27 65.6006 534.415 64.2962 536 61.9999C536.135 62.1434 536.784 61.8474 537 61.9999C537.279 62.1883 537.676 62.9192 538 62.9999C538.396 63.0986 538.568 63.0627 539 62.9999C539.882 62.8654 540.514 62.6816 541 61.9999C541.432 61.3899 542.027 59.8341 542 58.9999C541.982 58.5245 541.171 58.4484 541 57.9999C540.82 57.5335 541.315 57.3677 541 56.9999C540.288 56.1747 539.162 55.0896 538 54.9999C537.117 54.9282 535.738 54.7667 535 54.9999C534.937 54.2106 535.243 53.6727 535 52.9999C534.775 52.363 534.369 51.5022 534 50.9999C533.36 50.1298 532.027 50.0179 532 49.9999C531.333 50.4933 531.441 51.3003 531 51.9999C530.649 52.5561 530.189 53.3361 530 53.9999C529.82 54.6099 530.036 54.6321 530 54.9999C528.892 54.7129 527.378 55.4079 526 55.9999C525.414 56.2511 525.423 56.6232 525 56.9999C524.613 57.3587 524.225 57.5514 524 57.9999C523.793 58.4215 523.045 59.5245 523 59.9999C522.964 60.4484 523.883 60.5424 524 60.9999C524.225 61.9059 524.306 62.4258 525 62.9999C525.36 63.2959 525.568 63.8564 526 63.9999C526.45 64.1524 527.532 64.0448 528 63.9999C528.531 63.9461 528.64 64.2511 529 63.9999C529.306 63.7846 529.829 63.3497 530 62.9999C529.973 63.0717 530.036 62.9282 530 62.9999C530.45 64.5069 530.828 65.2149 530 66.9999C529.586 67.9059 529.018 68.659 528 68.9999C526.703 69.4394 524.873 69.5381 524 68.9999C523.153 68.4797 523.27 67.6637 523 66.9999C522.865 66.668 522.063 67.2331 522 66.9999C522.081 66.9999 522.901 66.9999 523 66.9999C523.279 66.982 523.775 67.1345 524 66.9999C524.279 66.8295 523.829 66.3318 524 65.9999C524.198 65.5963 524.126 65.4753 524 64.9999C523.883 64.5604 524.351 64.3318 524 63.9999C523.766 63.7757 523.324 63.0986 523 62.9999C522.811 62.9461 522.18 63.0717 522 62.9999C521.27 62.7039 521.045 61.7265 521 60.9999C520.937 60.1029 521.153 58.4215 522 57.9999C521.982 58.0179 522.018 57.982 522 57.9999C522 57.9999 520.342 57.0451 521 54.9999C521.504 53.4302 522.468 52.9102 523 52.9999C523.054 53.565 523.568 54.5335 524 54.9999C524.423 55.4664 525.234 55.9999 526 55.9999C525.829 56.0179 526.162 55.9999 526 55.9999C526.648 55.9192 527.649 55.5202 528 54.9999C528.306 54.5514 527.991 53.6637 528 52.9999C528 52.5514 528.126 52.4394 528 51.9999C528.765 51.9461 529.396 51.26 530 50.9999C530.558 50.7577 531.604 50.4125 532 49.9999C532.693 49.2913 531.991 49.0268 532 48.9999V47.9999C531.739 47.4258 531.612 47.3767 531 46.9999C530.532 46.7039 529.657 46.1703 529 45.9999C528.261 45.8115 528.378 46.0268 528 45.9999C528.009 45.6501 527.09 45.3408 527 44.9999C526.829 44.3003 526.486 43.4664 526 42.9999C525.468 42.4886 524.675 41.9999 524 41.9999C523.477 41.9999 523.468 42.6142 523 42.9999C522.532 43.3856 522.126 43.4707 522 43.9999C521.883 44.5112 521.748 45.5424 522 45.9999C522.243 46.4394 522.441 46.686 523 46.9999C522.117 47.7444 520.819 47.2511 520 46.9999C518.64 46.4617 518.414 44.8298 519 42.9999C519.846 40.3448 523 39.9999 523 39.9999C523 39.9999 521.892 36.7311 524 34.9999C525.927 33.4212 527.577 33.8743 528 33.9999C528.297 34.1345 528.802 34.7936 529 34.9999C529.27 35.287 528.928 35.5783 529 35.9999C528.991 35.9371 529.009 36.0627 529 35.9999C528.459 35.9012 527.702 35.5066 527 35.9999C526.45 36.3856 526.045 37.1298 526 37.9999C525.964 38.9328 527.027 39.4617 528 39.9999C528.576 40.3139 529.333 39.9999 530 39.9999C530.279 39.9999 530.73 40.0627 531 39.9999C531.018 40.3587 530.847 41.3989 531 41.9999C531.162 42.6458 531.694 43.4438 532 43.9999C532.387 44.6996 531.396 44.4976 532 44.9999V45.9999C532 45.9999 533.351 44.9328 534 43.9999C534.369 43.4617 534.802 42.7085 535 41.9999C535.207 41.2644 535 40.879 535 39.9999C534.883 39.9999 535.108 39.9999 535 39.9999C535.09 39.9999 535.91 39.9999 536 39.9999C537.657 39.9012 538.063 39.2378 538 37.9999C537.982 37.686 538.117 37.26 538 36.9999C538.018 36.5873 538.27 36.4215 538 35.9999C537.432 35.1119 537 33.9999 537 33.9999C538.684 34.4305 540 33.9999 540 33.9999C540 33.9999 540.748 34.5242 541 36.9999C541.198 38.9643 540.459 38.668 540 38.9999C539.883 39.0896 538.973 38.8564 539 38.9999C539.036 39.1883 539.811 40.0089 540 39.9999ZM541 28.9999C540.703 29.3228 540.207 29.5873 540 29.9999C539.802 30.3856 539.108 31.5604 539 31.9999C538.928 32.2959 539.027 31.7757 539 31.9999C538.577 31.9192 538.414 31.8654 538 31.9999C537.73 32.0896 537.207 32.8833 537 32.9999C537 32.5604 536.892 31.6278 537 30.9999C537.18 29.9414 537.991 28.6099 539 27.9999C539.531 28.3587 540.459 28.5783 541 28.9999ZM532 22.9999C532 22.9999 532.018 22.9999 532 22.9999C531.919 23.0268 532.072 22.973 532 22.9999C532.126 22.9461 531.874 23.0537 532 22.9999C531.829 23.0717 531.171 23.9282 531 23.9999C530.793 24.0896 531.207 23.9012 531 23.9999C530.757 24.1076 530.243 23.8833 530 23.9999C529.721 24.1345 529.279 24.8564 529 24.9999C528.694 25.1524 528.306 24.8385 528 24.9999C527.667 25.1793 527.315 25.8115 527 25.9999C526.649 26.1973 526.342 25.7936 526 25.9999C525.64 26.2242 525.351 26.7667 525 26.9999C524.631 27.2511 524.36 27.7308 524 27.9999C523.622 28.278 523.36 28.7129 523 28.9999C522.622 29.2959 521.369 29.686 521 29.9999C520.622 30.3228 520.369 30.6591 520 30.9999C519.631 31.3497 519.351 31.6321 519 31.9999C518.64 32.3767 518.342 32.6052 518 32.9999C517.649 33.4036 517.324 33.5783 517 33.9999C516.793 34.269 516.198 34.7218 516 34.9999C515.775 35.3139 516.207 35.677 516 35.9999C515.865 36.2062 515.126 36.7846 515 36.9999C514.748 37.4305 515.234 37.5514 515 37.9999C514.766 38.4574 514.198 38.5245 514 38.9999C513.793 39.4843 513.18 39.5066 513 39.9999C512.82 40.5022 513.135 41.4797 513 41.9999C512.856 42.5291 512.108 42.4617 512 42.9999C511.892 43.5561 512.072 44.4348 512 44.9999C511.928 45.583 512.027 46.4079 512 46.9999C511.964 47.6099 511.991 48.3899 512 48.9999C512 49.4305 511.973 49.5694 512 49.9999C513.297 69.124 526.731 78.8425 532 81.9999C532 81.9999 553.243 68.4024 552 46.9999C550.937 28.6114 532 22.9999 532 22.9999Z" fill="white"/>
<path d="M676 70C671.116 75.1431 664.908 78 658 78C653.794 78 649.634 76.9767 646 75L645 77H643C634.139 72.6887 629 62.9374 629 53C629 46.5778 631.767 40.7764 636 36L637 35L639 37L638 38C634.322 42.1503 632 47.4186 632 53C632 59.288 634.6 64.7782 639 69L640 68V69C644.646 73.8927 651.427 77 658 77C664.573 77 670.354 73.8927 675 69L676 68L677 69L676 70ZM657 34H658V36H657C647.25 36 639 44.0626 639 54C639 63.9374 647.25 71 657 71H658V73H657C646.106 73 638 65.1002 638 54C638 42.8998 646.097 34 657 34ZM673 63C671.055 65.6208 669.265 66.9624 666 68H665C668.089 67.0161 670.196 64.4955 672 62L670 61C670 61 665.377 67 657 67C648.623 67 643 60.7013 643 53C643 45.2987 649.028 39 657 39C664.972 39 670 45 670 45L676 39C668.837 30.6995 658.31 28.1807 649 32H648V31C657.459 27.1091 669.723 29.5921 677 38H678C673.609 32.6243 667.82 28.8497 661 28C653.943 27.1234 646.588 29.5277 641 34H640L639 33H640C645.852 28.322 653.608 26.0787 661 27C668.084 27.8855 674.415 31.4454 679 37L681 35C681 35 673.349 23 657 23C639.049 23 625 36.7835 625 53C625 69.2165 639.049 83 657 83C673.349 83 681 71 681 71L673 63Z" fill="white"/>
<path d="M1020.05 60.1924C1019.01 60.1924 1018.13 59.9107 1017.4 59.3471C1016.67 58.779 1016.12 57.9566 1015.73 56.88C1015.35 55.7987 1015.15 54.493 1015.15 52.9627C1015.15 51.4416 1015.35 50.1428 1015.73 49.0661C1016.12 47.9848 1016.68 47.1602 1017.41 46.592C1018.14 46.0194 1019.02 45.733 1020.05 45.733C1021.07 45.733 1021.95 46.0194 1022.68 46.592C1023.41 47.1602 1023.97 47.9848 1024.36 49.0661C1024.75 50.1428 1024.94 51.4416 1024.94 52.9627C1024.94 54.493 1024.75 55.7987 1024.36 56.88C1023.98 57.9566 1023.42 58.779 1022.69 59.3471C1021.97 59.9107 1021.08 60.1924 1020.05 60.1924ZM1020.05 58.6805C1021.07 58.6805 1021.87 58.1857 1022.44 57.1961C1023.01 56.2065 1023.29 54.7953 1023.29 52.9627C1023.29 51.744 1023.16 50.7063 1022.9 49.8495C1022.64 48.9928 1022.27 48.3399 1021.79 47.8909C1021.31 47.4419 1020.73 47.2174 1020.05 47.2174C1019.03 47.2174 1018.24 47.7191 1017.66 48.7225C1017.09 49.7213 1016.8 51.1347 1016.8 52.9627C1016.8 54.1814 1016.93 55.2168 1017.19 56.069C1017.45 56.9212 1017.81 57.5695 1018.3 58.0139C1018.78 58.4583 1019.37 58.6805 1020.05 58.6805ZM1027.22 57.1136V55.7117L1033.41 45.9254H1034.42V48.0971H1033.74L1029.06 55.4917V55.6017H1037.39V57.1136H1027.22ZM1033.85 60V56.6875V56.0347V45.9254H1035.47V60H1033.85ZM1040.52 60.11C1040.18 60.11 1039.89 59.9885 1039.64 59.7457C1039.4 59.5029 1039.28 59.212 1039.28 58.8729C1039.28 58.5339 1039.4 58.243 1039.64 58.0001C1039.89 57.7573 1040.18 57.6359 1040.52 57.6359C1040.86 57.6359 1041.15 57.7573 1041.39 58.0001C1041.63 58.243 1041.75 58.5339 1041.75 58.8729C1041.75 59.0974 1041.7 59.3036 1041.58 59.4914C1041.47 59.6793 1041.32 59.8305 1041.14 59.945C1040.95 60.055 1040.75 60.11 1040.52 60.11ZM1047.9 45.9254V60H1046.2V47.7122H1046.12L1042.68 49.9939V48.262L1046.2 45.9254H1047.9ZM1056.9 45.9254V60H1055.19V47.7122H1055.11L1051.68 49.9939V48.262L1055.19 45.9254H1056.9ZM1061.32 60.11C1060.99 60.11 1060.69 59.9885 1060.45 59.7457C1060.21 59.5029 1060.09 59.212 1060.09 58.8729C1060.09 58.5339 1060.21 58.243 1060.45 58.0001C1060.69 57.7573 1060.99 57.6359 1061.32 57.6359C1061.66 57.6359 1061.95 57.7573 1062.2 58.0001C1062.44 58.243 1062.56 58.5339 1062.56 58.8729C1062.56 59.0974 1062.5 59.3036 1062.39 59.4914C1062.28 59.6793 1062.13 59.8305 1061.94 59.945C1061.76 60.055 1061.55 60.11 1061.32 60.11ZM1065.44 60V58.763L1070.09 53.6774C1070.64 53.0818 1071.08 52.5641 1071.44 52.1243C1071.79 51.6799 1072.05 51.263 1072.22 50.8735C1072.39 50.4795 1072.48 50.0672 1072.48 49.6365C1072.48 49.1417 1072.36 48.7133 1072.12 48.3514C1071.89 47.9894 1071.57 47.7099 1071.16 47.5129C1070.75 47.3159 1070.3 47.2174 1069.79 47.2174C1069.25 47.2174 1068.78 47.3297 1068.37 47.5542C1067.97 47.7741 1067.66 48.0833 1067.44 48.4819C1067.23 48.8805 1067.12 49.3479 1067.12 49.8839H1065.5C1065.5 49.0592 1065.69 48.3353 1066.07 47.7122C1066.45 47.0891 1066.97 46.6035 1067.62 46.2553C1068.28 45.9071 1069.02 45.733 1069.84 45.733C1070.67 45.733 1071.4 45.9071 1072.04 46.2553C1072.67 46.6035 1073.17 47.0731 1073.53 47.6641C1073.9 48.2552 1074.08 48.9126 1074.08 49.6365C1074.08 50.1542 1073.98 50.6605 1073.79 51.1553C1073.61 51.6455 1073.29 52.193 1072.83 52.7978C1072.38 53.398 1071.75 54.131 1070.94 54.9969L1067.78 58.3781V58.4881H1074.32V60H1065.44ZM1081.75 60.1924C1080.72 60.1924 1079.84 59.9107 1079.11 59.3471C1078.38 58.779 1077.82 57.9566 1077.44 56.88C1077.05 55.7987 1076.86 54.493 1076.86 52.9627C1076.86 51.4416 1077.05 50.1428 1077.44 49.0661C1077.83 47.9848 1078.39 47.1602 1079.11 46.592C1079.85 46.0194 1080.73 45.733 1081.75 45.733C1082.78 45.733 1083.66 46.0194 1084.38 46.592C1085.12 47.1602 1085.68 47.9848 1086.06 49.0661C1086.45 50.1428 1086.65 51.4416 1086.65 52.9627C1086.65 54.493 1086.45 55.7987 1086.07 56.88C1085.68 57.9566 1085.13 58.779 1084.4 59.3471C1083.67 59.9107 1082.79 60.1924 1081.75 60.1924ZM1081.75 58.6805C1082.78 58.6805 1083.58 58.1857 1084.14 57.1961C1084.71 56.2065 1085 54.7953 1085 52.9627C1085 51.744 1084.87 50.7063 1084.6 49.8495C1084.35 48.9928 1083.98 48.3399 1083.49 47.8909C1083.01 47.4419 1082.43 47.2174 1081.75 47.2174C1080.74 47.2174 1079.94 47.7191 1079.37 48.7225C1078.8 49.7213 1078.51 51.1347 1078.51 52.9627C1078.51 54.1814 1078.64 55.2168 1078.89 56.069C1079.15 56.9212 1079.52 57.5695 1080 58.0139C1080.49 58.4583 1081.07 58.6805 1081.75 58.6805ZM1089.26 60V58.763L1093.9 53.6774C1094.45 53.0818 1094.9 52.5641 1095.25 52.1243C1095.6 51.6799 1095.86 51.263 1096.03 50.8735C1096.21 50.4795 1096.29 50.0672 1096.29 49.6365C1096.29 49.1417 1096.18 48.7133 1095.94 48.3514C1095.7 47.9894 1095.38 47.7099 1094.98 47.5129C1094.57 47.3159 1094.11 47.2174 1093.6 47.2174C1093.06 47.2174 1092.59 47.3297 1092.18 47.5542C1091.79 47.7741 1091.48 48.0833 1091.26 48.4819C1091.04 48.8805 1090.93 49.3479 1090.93 49.8839H1089.31C1089.31 49.0592 1089.5 48.3353 1089.88 47.7122C1090.26 47.0891 1090.78 46.6035 1091.44 46.2553C1092.1 45.9071 1092.84 45.733 1093.66 45.733C1094.48 45.733 1095.21 45.9071 1095.85 46.2553C1096.48 46.6035 1096.98 47.0731 1097.35 47.6641C1097.71 48.2552 1097.89 48.9126 1097.89 49.6365C1097.89 50.1542 1097.8 50.6605 1097.61 51.1553C1097.42 51.6455 1097.1 52.193 1096.65 52.7978C1096.19 53.398 1095.56 54.131 1094.76 54.9969L1091.59 58.3781V58.4881H1098.14V60H1089.26ZM1105.73 60.1924C1104.82 60.1924 1104.01 60.0367 1103.3 59.7251C1102.6 59.4136 1102.04 58.9806 1101.62 58.4262C1101.21 57.8673 1100.98 57.219 1100.95 56.4814H1102.68C1102.72 56.9349 1102.87 57.3267 1103.15 57.6565C1103.42 57.9818 1103.78 58.2338 1104.23 58.4125C1104.67 58.5912 1105.16 58.6805 1105.7 58.6805C1106.31 58.6805 1106.84 58.5751 1107.31 58.3644C1107.78 58.1536 1108.14 57.8604 1108.41 57.4847C1108.68 57.109 1108.81 56.6738 1108.81 56.179C1108.81 55.6613 1108.68 55.2054 1108.42 54.8114C1108.17 54.4128 1107.79 54.1012 1107.3 53.8767C1106.8 53.6522 1106.2 53.54 1105.48 53.54H1104.36V52.0281H1105.48C1106.04 52.0281 1106.53 51.9273 1106.95 51.7257C1107.38 51.5241 1107.71 51.24 1107.95 50.8735C1108.19 50.507 1108.31 50.0763 1108.31 49.5815C1108.31 49.105 1108.21 48.6904 1108 48.3376C1107.79 47.9848 1107.49 47.7099 1107.1 47.5129C1106.72 47.3159 1106.28 47.2174 1105.76 47.2174C1105.27 47.2174 1104.81 47.3068 1104.38 47.4855C1103.96 47.6596 1103.61 47.9138 1103.34 48.2483C1103.07 48.5782 1102.92 48.9768 1102.9 49.4441H1101.25C1101.28 48.7064 1101.5 48.0604 1101.92 47.5061C1102.33 46.9471 1102.88 46.5119 1103.55 46.2003C1104.23 45.8888 1104.97 45.733 1105.79 45.733C1106.66 45.733 1107.4 45.9094 1108.03 46.2622C1108.65 46.6104 1109.13 47.0708 1109.46 47.6435C1109.8 48.2162 1109.96 48.8347 1109.96 49.4991C1109.96 50.2917 1109.76 50.9674 1109.34 51.5264C1108.93 52.0853 1108.36 52.4725 1107.65 52.6878V52.7978C1108.54 52.9444 1109.24 53.3224 1109.74 53.9317C1110.24 54.5365 1110.49 55.2856 1110.49 56.179C1110.49 56.9441 1110.28 57.6313 1109.86 58.2407C1109.45 58.8454 1108.88 59.3219 1108.17 59.6701C1107.46 60.0183 1106.64 60.1924 1105.73 60.1924ZM1131.19 52.2068V53.7187H1111.84V52.2068H1131.19ZM1137.6 45.9254V60H1135.89V47.7122H1135.81L1132.37 49.9939V48.262L1135.89 45.9254H1137.6ZM1141.65 60V58.763L1146.29 53.6774C1146.84 53.0818 1147.29 52.5641 1147.64 52.1243C1147.99 51.6799 1148.25 51.263 1148.42 50.8735C1148.6 50.4795 1148.68 50.0672 1148.68 49.6365C1148.68 49.1417 1148.56 48.7133 1148.33 48.3514C1148.09 47.9894 1147.77 47.7099 1147.36 47.5129C1146.96 47.3159 1146.5 47.2174 1145.99 47.2174C1145.45 47.2174 1144.98 47.3297 1144.57 47.5542C1144.17 47.7741 1143.87 48.0833 1143.65 48.4819C1143.43 48.8805 1143.32 49.3479 1143.32 49.8839H1141.7C1141.7 49.0592 1141.89 48.3353 1142.27 47.7122C1142.65 47.0891 1143.17 46.6035 1143.82 46.2553C1144.48 45.9071 1145.22 45.733 1146.04 45.733C1146.87 45.733 1147.6 45.9071 1148.24 46.2553C1148.87 46.6035 1149.37 47.0731 1149.73 47.6641C1150.1 48.2552 1150.28 48.9126 1150.28 49.6365C1150.28 50.1542 1150.18 50.6605 1150 51.1553C1149.81 51.6455 1149.49 52.193 1149.03 52.7978C1148.58 53.398 1147.95 54.131 1147.14 54.9969L1143.98 58.3781V58.4881H1150.52V60H1141.65ZM1154.57 60.11C1154.23 60.11 1153.94 59.9885 1153.7 59.7457C1153.46 59.5029 1153.34 59.212 1153.34 58.8729C1153.34 58.5339 1153.46 58.243 1153.7 58.0001C1153.94 57.7573 1154.23 57.6359 1154.57 57.6359C1154.91 57.6359 1155.2 57.7573 1155.44 58.0001C1155.69 58.243 1155.81 58.5339 1155.81 58.8729C1155.81 59.0974 1155.75 59.3036 1155.64 59.4914C1155.53 59.6793 1155.38 59.8305 1155.19 59.945C1155.01 60.055 1154.8 60.11 1154.57 60.11ZM1162.79 60.1924C1161.76 60.1924 1160.87 59.9107 1160.15 59.3471C1159.42 58.779 1158.86 57.9566 1158.48 56.88C1158.09 55.7987 1157.9 54.493 1157.9 52.9627C1157.9 51.4416 1158.09 50.1428 1158.48 49.0661C1158.87 47.9848 1159.42 47.1602 1160.15 46.592C1160.89 46.0194 1161.77 45.733 1162.79 45.733C1163.82 45.733 1164.7 46.0194 1165.42 46.592C1166.16 47.1602 1166.72 47.9848 1167.1 49.0661C1167.49 50.1428 1167.68 51.4416 1167.68 52.9627C1167.68 54.493 1167.49 55.7987 1167.11 56.88C1166.72 57.9566 1166.17 58.779 1165.44 59.3471C1164.71 59.9107 1163.83 60.1924 1162.79 60.1924ZM1162.79 58.6805C1163.82 58.6805 1164.61 58.1857 1165.18 57.1961C1165.75 56.2065 1166.04 54.7953 1166.04 52.9627C1166.04 51.744 1165.9 50.7063 1165.64 49.8495C1165.39 48.9928 1165.02 48.3399 1164.53 47.8909C1164.05 47.4419 1163.47 47.2174 1162.79 47.2174C1161.77 47.2174 1160.98 47.7191 1160.41 48.7225C1159.83 49.7213 1159.55 51.1347 1159.55 52.9627C1159.55 54.1814 1159.68 55.2168 1159.93 56.069C1160.19 56.9212 1160.56 57.5695 1161.04 58.0139C1161.52 58.4583 1162.11 58.6805 1162.79 58.6805ZM1169.97 57.1136V55.7117L1176.15 45.9254H1177.17V48.0971H1176.48L1171.81 55.4917V55.6017H1180.14V57.1136H1169.97ZM1176.59 60V56.6875V56.0347V45.9254H1178.21V60H1176.59ZM1183.26 60.11C1182.92 60.11 1182.63 59.9885 1182.39 59.7457C1182.15 59.5029 1182.02 59.212 1182.02 58.8729C1182.02 58.5339 1182.15 58.243 1182.39 58.0001C1182.63 57.7573 1182.92 57.6359 1183.26 57.6359C1183.6 57.6359 1183.89 57.7573 1184.13 58.0001C1184.38 58.243 1184.5 58.5339 1184.5 58.8729C1184.5 59.0974 1184.44 59.3036 1184.33 59.4914C1184.22 59.6793 1184.07 59.8305 1183.88 59.945C1183.7 60.055 1183.49 60.11 1183.26 60.11ZM1187.38 60V58.763L1192.03 53.6774C1192.57 53.0818 1193.02 52.5641 1193.37 52.1243C1193.73 51.6799 1193.99 51.263 1194.16 50.8735C1194.33 50.4795 1194.42 50.0672 1194.42 49.6365C1194.42 49.1417 1194.3 48.7133 1194.06 48.3514C1193.83 47.9894 1193.51 47.7099 1193.1 47.5129C1192.69 47.3159 1192.23 47.2174 1191.72 47.2174C1191.18 47.2174 1190.71 47.3297 1190.31 47.5542C1189.91 47.7741 1189.6 48.0833 1189.38 48.4819C1189.17 48.8805 1189.06 49.3479 1189.06 49.8839H1187.44C1187.44 49.0592 1187.63 48.3353 1188.01 47.7122C1188.39 47.0891 1188.9 46.6035 1189.56 46.2553C1190.22 45.9071 1190.96 45.733 1191.78 45.733C1192.6 45.733 1193.33 45.9071 1193.97 46.2553C1194.61 46.6035 1195.11 47.0731 1195.47 47.6641C1195.83 48.2552 1196.01 48.9126 1196.01 49.6365C1196.01 50.1542 1195.92 50.6605 1195.73 51.1553C1195.55 51.6455 1195.23 52.193 1194.77 52.7978C1194.31 53.398 1193.69 54.131 1192.88 54.9969L1189.72 58.3781V58.4881H1196.26V60H1187.38ZM1203.69 60.1924C1202.65 60.1924 1201.77 59.9107 1201.04 59.3471C1200.31 58.779 1199.76 57.9566 1199.37 56.88C1198.99 55.7987 1198.8 54.493 1198.8 52.9627C1198.8 51.4416 1198.99 50.1428 1199.37 49.0661C1199.76 47.9848 1200.32 47.1602 1201.05 46.592C1201.78 46.0194 1202.66 45.733 1203.69 45.733C1204.72 45.733 1205.59 46.0194 1206.32 46.592C1207.05 47.1602 1207.61 47.9848 1208 49.0661C1208.39 50.1428 1208.58 51.4416 1208.58 52.9627C1208.58 54.493 1208.39 55.7987 1208 56.88C1207.62 57.9566 1207.06 58.779 1206.33 59.3471C1205.61 59.9107 1204.72 60.1924 1203.69 60.1924ZM1203.69 58.6805C1204.72 58.6805 1205.51 58.1857 1206.08 57.1961C1206.65 56.2065 1206.93 54.7953 1206.93 52.9627C1206.93 51.744 1206.8 50.7063 1206.54 49.8495C1206.28 48.9928 1205.91 48.3399 1205.43 47.8909C1204.95 47.4419 1204.37 47.2174 1203.69 47.2174C1202.67 47.2174 1201.88 47.7191 1201.3 48.7225C1200.73 49.7213 1200.45 51.1347 1200.45 52.9627C1200.45 54.1814 1200.57 55.2168 1200.83 56.069C1201.09 56.9212 1201.46 57.5695 1201.94 58.0139C1202.42 58.4583 1203.01 58.6805 1203.69 58.6805ZM1211.19 60V58.763L1215.84 53.6774C1216.38 53.0818 1216.83 52.5641 1217.19 52.1243C1217.54 51.6799 1217.8 51.263 1217.97 50.8735C1218.14 50.4795 1218.23 50.0672 1218.23 49.6365C1218.23 49.1417 1218.11 48.7133 1217.87 48.3514C1217.64 47.9894 1217.32 47.7099 1216.91 47.5129C1216.5 47.3159 1216.05 47.2174 1215.54 47.2174C1215 47.2174 1214.52 47.3297 1214.12 47.5542C1213.72 47.7741 1213.41 48.0833 1213.19 48.4819C1212.98 48.8805 1212.87 49.3479 1212.87 49.8839H1211.25C1211.25 49.0592 1211.44 48.3353 1211.82 47.7122C1212.2 47.0891 1212.72 46.6035 1213.37 46.2553C1214.03 45.9071 1214.77 45.733 1215.59 45.733C1216.42 45.733 1217.15 45.9071 1217.78 46.2553C1218.42 46.6035 1218.92 47.0731 1219.28 47.6641C1219.64 48.2552 1219.83 48.9126 1219.83 49.6365C1219.83 50.1542 1219.73 50.6605 1219.54 51.1553C1219.36 51.6455 1219.04 52.193 1218.58 52.7978C1218.13 53.398 1217.5 54.131 1216.69 54.9969L1213.53 58.3781V58.4881H1220.07V60H1211.19ZM1222.28 57.1136V55.7117L1228.46 45.9254H1229.48V48.0971H1228.79L1224.12 55.4917V55.6017H1232.45V57.1136H1222.28ZM1228.9 60V56.6875V56.0347V45.9254H1230.53V60H1228.9Z" fill="white"/>
</g>
<defs>
<clipPath id="clip0_137_15331">
<rect width="1260" height="107" rx="10" fill="white"/>
</clipPath>
</defs>
</svg>
