<svg width="327" height="545" viewBox="0 0 327 545" fill="none" xmlns="http://www.w3.org/2000/svg">
<g clip-path="url(#clip0_163_12859)">
<path d="M327 0H0V545H327V0Z" fill="#0042AA"/>
<path d="M236 249V253C232.848 253.341 231 253 231 253C231 253 234.165 255.947 234 260C233.752 266.004 226.633 270.549 226 278C225.463 284.345 228 289 228 289H225V249H210L211 295H225V291C226.101 290.754 228.647 289.577 231 290C231 290 227.174 287.281 228 282C229.211 274.263 234.697 271.706 235 263C235.179 257.473 233 255 233 255C233 255 234.679 255.027 236 255L237 295H251V249H236V249Z" fill="white"/>
<path d="M154 256C153.231 256.055 152.726 255.22 152 255C151.637 254.89 151.391 254.986 151 255C150.567 255.014 149.433 255.986 149 256C148.218 256.041 147.447 254.591 147 254C146.525 253.367 146.447 252.66 146 252C145.651 251.491 145.433 251.454 145 251C144.567 250.546 144.489 250.385 144 250C143.511 249.615 142.545 249.302 142 249C141.455 248.684 140.573 248.234 140 248C139.581 247.835 139.433 247.124 139 247C138.958 246.986 139.028 247.041 139 247C138.86 246.849 138.902 247.014 139 247C139.754 246.876 141.245 246.917 142 247C142.615 247.069 142.413 246.78 143 247C143.084 247.027 143.93 247.972 144 248C144.573 248.234 144.483 247.67 145 248C145.531 248.33 146.511 249.615 147 250C147.489 250.385 147.539 250.587 148 251C148.293 251.261 148.707 251.739 149 252C150.257 253.127 151.449 254.271 153 255C153.209 255.096 153.79 255.165 154 255C154.14 254.89 154.209 254.096 154 254C153.86 253.931 153.154 254 153 254C152.846 254 153.14 254.055 153 254C152.357 253.739 152.651 252.564 153 252C153.391 251.367 153.301 251.78 154 252C154.629 252.192 155.762 252.409 156 253C156.531 254.292 155.397 255.904 154 256" fill="white"/>
<path d="M108 287C106.758 286.232 105.2 286.459 104 287C102.855 287.512 101.269 288.227 99.9998 288C99.4617 287.9 99.3723 287.412 98.9998 287C98.6686 286.63 98.055 286.498 97.9998 286C97.9032 285.019 98.965 283.829 99.9998 284C100.703 284.114 101.055 284.275 101 285C101.29 284.872 101.696 285.085 102 285C104.042 284.431 106.275 284.72 108 286C108.29 286.213 108.303 287.199 108 287" fill="white"/>
<path d="M112 288C112.128 288.107 111.971 288.308 112 288C112 287.933 112.028 288.067 112 288C111.829 287.517 111.241 286.443 111 286C110.815 285.652 111.213 285.335 111 285C110.786 284.665 110.241 284.322 110 284C109.886 283.839 110.128 284.148 110 284C109.957 283.946 108.985 283.054 109 283C109.199 282.236 108.796 282.134 108 282C108.199 281.544 108.241 280.456 108 280C107.786 279.584 107.469 279.134 107 279C107.142 278.665 107.156 278.295 107 278C106.815 277.652 106.156 277.362 106 277C105.843 276.638 105.744 276.241 106 276C106.284 275.732 106.829 276.349 107 276C107.199 275.598 107.085 274.442 107 274C106.829 273.075 106.554 272.751 106 272C105.587 271.437 104.772 270.697 105 270C105.256 270.335 105.545 269.96 106 270C106.739 270.054 107.801 269.644 108 269C108.227 268.303 107.611 267.442 107 267C106.374 266.558 105.725 266.732 105 267C103.223 267.657 102.886 269.378 103 271C103.128 272.743 104.156 275.244 104 277C103.957 277.496 103.156 277.531 103 278C102.858 278.456 102.843 278.531 103 279C103.156 279.456 103.502 279.973 104 280C103.886 280.469 104.701 281.611 105 282C105.298 282.375 105.516 281.946 106 282C105.843 282.402 105.715 283.638 106 284C106.298 284.375 106.531 284.027 107 284C107 284.711 108.474 285.638 109 286C109.455 286.322 109.531 286.678 110 287C110.227 287.161 110.772 286.839 111 287C111.256 287.174 110.772 287.812 111 288" fill="white"/>
<path d="M120 295C119.66 294.772 119.367 294.188 119 294C118.619 293.799 117.408 294.147 117 294C115.626 293.517 114.414 293.322 113 293C111.993 292.772 110.843 292.576 110 292C109.129 291.397 108.87 290.59 108 290C107.184 289.45 106.006 288.839 105 289C104.034 289.161 103.516 290.169 103 291C101.925 292.73 102.96 294.477 105 295C106.006 295.255 106.578 294.979 107 294C107.312 293.276 106.693 292.362 106 292C106.027 292.054 106.986 291.946 107 292C107.244 292.657 106.652 293.692 106 294C105.306 294.335 104.503 294.59 104 294C103.442 293.343 103.578 291.724 104 291C104.38 290.343 104.252 290.107 105 290C105.775 289.893 107.388 290.517 108 291C108.625 291.496 108.891 292.222 109 293C109.244 294.689 107.55 296.33 106 297C104.273 297.737 102.523 297.059 101 296C100.32 295.517 99.3669 294.764 98.9997 294C98.6325 293.222 98.7685 292.831 98.9997 292C99.4621 290.217 101.232 288.402 103 288C105.012 287.544 107.096 288.343 109 289C112.4 290.18 115.967 292.056 119 294C119.462 294.228 119.605 293.638 120 294C120.231 294.201 120.258 295.174 120 295" fill="white"/>
<path d="M153 284C153 284.741 152.406 285.421 152 286C151.608 286.553 151.446 287.488 151 288C150.121 289.024 149.041 289.151 148 290C145.917 291.712 143.529 293.057 141 294C138.471 294.943 135.705 295.946 133 296C130.349 296.054 127.516 295.849 125 295C122.498 294.165 120.11 292.59 118 291C112.928 287.186 109.865 281.267 109 275C108.026 267.925 110.739 260.674 115 255C117.204 252.089 119.713 249.617 123 248C126.733 246.167 130.861 245.232 135 246C138.625 246.674 142.849 248.981 145 252C146.745 254.453 147.46 258.022 147 261C147.609 261.472 147.243 262.218 147 263C146.811 263.647 146.636 264.081 146 264C145.878 264.216 146.135 263.784 146 264C144.201 266.695 140.314 269.175 137 269C135.377 268.906 134.244 268.065 133 267C131.85 266.03 131.311 264.482 131 263C130.689 261.545 130.256 260.28 131 259C131.744 257.733 133.553 256.364 135 256C136.569 255.596 137.986 255.679 139 257C139.46 257.58 140.027 258.259 140 259C139.973 259.701 139.5 260.488 139 261C138.513 261.499 137.703 262.027 137 262C136.283 261.973 135.338 261.66 135 261C134.689 260.38 135.472 259.485 136 259C136.46 258.569 136.459 258.663 137 259C136.702 258.353 136.649 257.784 136 258C135.27 258.243 134.352 259.34 134 260C133.405 261.159 133.337 262.882 134 264C134.676 265.119 135.715 265.784 137 266C138.447 266.256 139.81 265.849 141 265C141.69 264.515 142.54 263.701 143 263C142.851 262.474 142.838 261.539 143 261C143.257 260.111 144.067 259.933 145 260C144.919 259.448 145.162 258.539 145 258C144.134 255.157 141.637 252.375 139 251C136.349 249.612 133.854 250.124 131 251C128.227 251.863 125.758 253.723 124 256C122.106 258.439 120.609 260.995 120 264C119.391 267.046 119.499 269.941 120 273C120.5 276.046 121.296 279.413 123 282C124.515 284.332 126.633 286.531 129 288C131.353 289.456 134.227 289.852 137 290C139.34 290.135 141.849 289.93 144 289C143.378 289.094 142.636 288.946 142 289C139.687 289.189 137.259 289.526 135 289C133.12 288.555 130.96 287.765 130 286C129.54 285.151 129.324 283.916 129 283C128.838 282.555 128.243 282.391 128 282C127.756 281.623 127.46 281.121 127 281C126.783 280.946 127.054 280.744 127 281C126.959 281.27 126.811 281.865 127 282C127.216 282.148 127.797 281.852 128 282C128.162 282.121 127.892 281.825 128 282C128.473 282.728 128.541 284.313 128 285C127.946 285.067 128.068 285.041 128 285C127.932 284.946 128 285.081 128 285C128 284.798 128.095 284.189 128 284C127.946 283.865 128.095 284.121 128 284C127.811 283.771 127.257 283.162 127 283C126.513 282.663 125.433 282.404 125 282C124.635 281.663 125.027 281.512 125 281C124.986 280.501 124.662 279.364 125 279C125.852 278.111 127.945 278.569 129 279C130.068 279.431 130.378 280.043 131 281C131.189 281.297 131.865 281.677 132 282C132.068 282.162 131.946 282.838 132 283C132.054 283.162 131.932 282.838 132 283C132.135 282.758 131.892 282.256 132 282C132.108 281.731 132.878 282.27 133 282C133.243 281.474 133.648 280.472 134 280C134.487 279.326 134.283 278.418 135 278C135.838 277.528 137.053 277.811 138 278C138.947 278.175 139.486 278.205 140 279C140.527 279.822 141.135 281.03 141 282C140.878 282.89 140.744 283.488 140 284C139.297 284.485 137.811 285.297 137 285C136.188 284.704 136.054 283.876 136 283C135.946 282.151 136.107 280.892 137 281C137.663 281.081 138.216 282.38 138 283C138.406 283.067 138.702 282.283 139 282C139.392 281.636 140.122 281.499 140 281C139.756 279.989 137.96 279.879 137 280C136.08 280.121 135.473 280.245 135 281C134.459 281.863 134.892 282.976 135 284C135.095 284.943 135.378 286.299 136 287C136.676 287.768 137.026 287.744 138 288C139.001 288.256 139.972 288.027 141 288C142.014 287.973 143.026 288.256 144 288C145.636 287.596 147.877 286.253 149 285C149.581 284.367 149.608 283.755 150 283C150.379 282.272 151.175 281.542 152 282C152.054 282.027 151.959 282.973 152 283C152.473 283.337 152.986 283.434 153 284" fill="white"/>
<path d="M137 278C136.696 278.545 135.621 278.12 135 278C134.447 277.894 134.096 277.532 134 277C133.944 276.721 133.875 276.253 134 276C134.138 275.708 134.944 275.332 135 275C135.041 274.681 134.276 274.92 134 275C133.668 275.093 134.165 275.721 134 276C133.641 276.598 133.013 277.309 133 278C133.4 278.133 134.138 278.575 134 279C133.862 279.399 133.4 279.093 133 279C133.055 279 133 279.947 133 280C133 280.213 133 280.774 133 281C132.958 281.426 132.11 281.601 132 282C131.972 282.106 132.096 281.96 132 282C131.917 282.04 132.082 282.04 132 282C131.71 281.814 131.082 281.306 131 281C130.931 280.747 131.069 280.253 131 280C130.958 279.867 131.041 280.133 131 280C130.972 279.907 131.082 279.067 131 279C130.931 278.934 131.096 279 131 279C130.889 279 130.11 279.013 130 279C129.613 278.907 129.806 278.332 130 278C130.248 277.588 130.558 277.987 131 278C131 277.016 131.502 275.864 132 275C132.441 274.216 133.143 273.386 134 273C134.787 272.654 135.337 272.402 136 273C136.29 273.253 136.944 273.628 137 274C137.055 274.426 137.262 275.668 137 276C136.723 276.359 136.096 276.548 136 277C135.958 277.2 135.82 276.88 136 277C136.124 277.08 135.903 277.133 136 277C136.027 276.96 136.958 277.013 137 277C137.138 276.92 137.096 276.814 137 277" fill="white"/>
<path d="M42.9998 258C42.6836 261.571 40.1752 263.973 36.9998 264C34.9103 264.027 34.3984 263.024 33.9998 262C33.7386 261.326 33.9035 261.04 33.9998 261C34.0548 260.987 33.931 260.906 33.9998 261C34.4534 261.566 35.0375 262 35.9998 262C36.6733 262 38.6424 261.075 38.9998 259C39.3984 256.736 37.3607 256.013 35.9998 256C34.6801 255.987 31.6871 256.092 30.9998 260C30.3124 263.921 33.9998 268 33.9998 268L28.9998 272C28.9998 272 28.4499 262.474 28.9998 258C29.5359 253.526 32.247 250 35.9998 250C40.5224 250 43.3297 254.133 42.9998 258M53.9998 258C53.6699 249.134 43.5019 245 36.9998 245C30.4977 245 17.072 247.037 15.9998 260C15.6424 267.532 15.9998 291 15.9998 291C15.9998 291 16.2782 292 14.9998 292C13.4602 292 12.2472 291.96 11.9998 292C11.5324 292.081 10.986 292.555 10.9998 293C11.0273 293.633 11.5599 293.96 11.9998 294C12.8933 294.054 19.9068 294 22.9998 294C26.0927 294 33.1475 294 33.9998 294C34.6046 294 33.986 293.552 33.9998 293C33.9998 292.421 34.6871 292 33.9998 292C33.3124 292 28.9998 291.485 28.9998 291C28.9998 290.326 28.9998 277.606 28.9998 277C28.9998 276.394 36.5186 268.879 36.9998 269C37.6871 269.175 38.6731 270 41.9998 270C45.3264 270 54.3709 267.931 53.9998 258" fill="white"/>
<path d="M274 278H272C271.429 278 271 278.445 271 279V281H269C268.429 281 268 281.445 268 282V291H261V279C261 278.445 260.571 278 260 278H259C258.429 278 258 278.445 258 279V290C258 290.555 258.429 291 259 291H261V293C261 293.555 261.429 294 262 294H273C273.571 294 274 293.555 274 293V291H277C277.571 291 278 290.555 278 290V281H280C280.571 281 281 280.555 281 280V278H274V278Z" fill="white"/>
<path d="M295 272H278V270C278 269.428 277.572 269 277 269H275V256H291V268C291 268.572 291.428 269 292 269H295V272ZM301 256H307C307.572 256 308 255.572 308 255V252H310C310.572 252 311 251.572 311 251V250C311 249.428 310.572 249 310 249H296C295.428 249 295 249.428 295 250V252H288V250C288 249.428 287.572 249 287 249H273C272.428 249 272 249.428 272 250V252H269C268.428 252 268 252.428 268 253V256V256H266C265.428 256 265 256.428 265 257V268C265 268.572 265.428 269 266 269H268V271C268 271.572 268.428 272 269 272H275V274C275 274.572 275.428 275 276 275H281V279H291V292H289C288.428 292 288 292.428 288 293V294C288 294.572 288.428 295 289 295H310C310.572 295 311 294.572 311 294V293C311 292.428 310.572 292 310 292H308V289C308 288.428 307.572 288 307 288H301V256V256Z" fill="white"/>
<path d="M95.9998 269C95.8627 274.78 93.9335 281.22 89.9998 287C86.6281 291.954 82.8649 295.2 78.9998 297C61.9904 284.574 60.4104 272.321 60.9998 266C61.7399 257.946 66.4751 251.56 73.9998 248C75.6994 247.201 77.0815 245.609 77.9998 245C78.178 244.878 77.8764 245.095 77.9998 245C78.6303 245.42 80.5743 246.31 81.9998 247C94.6643 253.159 96.1506 262.503 95.9998 269ZM96.9998 262C96.4378 259.821 96.2196 257.922 94.9998 256C94.3693 254.998 92.8085 253.92 91.9998 253C91.1637 252.052 91.014 250.866 89.9998 250C88.9718 249.12 87.2333 248.785 85.9998 248C84.7388 247.188 83.4526 246.704 81.9998 246C80.0124 245.039 78.9998 243 78.9998 243H77.9998V244C77.9998 244 77.5754 243.621 76.9998 244C76.4104 244.393 74.9598 245.066 72.9998 246C71.0535 246.92 69.6308 248.66 67.9998 250C66.3688 251.354 65.2059 252.308 63.9998 254C62.7799 255.706 61.7399 258.037 60.9998 260C60.2459 262.003 59.2054 263.848 58.9998 266C58.7531 268.599 59.4241 271.32 59.9998 274C60.6029 276.802 61.5195 279.266 62.9998 282C64.5623 284.87 66.5327 288.32 68.9998 291C70.2882 292.394 71.4921 293.673 72.9998 295C74.5623 296.367 76.218 297.714 77.9998 299V299H78.9998C83.2213 297.173 87.354 292.36 90.9998 287C91.9318 285.619 93.2322 284.462 93.9998 283C94.7947 281.484 95.4378 279.543 95.9998 278C97.2196 274.657 97.9176 272.168 97.9998 269C98.0546 266.766 97.5206 264.044 96.9998 262" fill="white"/>
<path d="M90.9996 256C91.1093 256.148 90.9173 256.839 90.9996 257C90.9996 257 90.9859 256.987 90.9996 257C91.2464 257.563 91.4109 257.477 90.9996 258C90.931 258.081 91.0956 258.933 90.9996 259C90.6019 259.309 89.5069 259.121 88.9996 259C88.5608 258.893 88.1367 258.429 87.9996 258C87.931 257.772 87.9447 258.228 87.9996 258C88.027 257.893 87.9447 257.094 87.9996 257C88.0133 256.973 88.9996 257 88.9996 257C88.9996 257 86.8644 254.738 84.9996 254C85.0407 253.504 85.1906 251.818 85.9996 251C85.9996 250.987 86.931 251.946 86.9996 252C87.2738 252.228 87.7391 252.759 87.9996 253C88.5343 253.51 88.506 253.45 88.9996 254C89.5069 254.59 90.5471 255.37 90.9996 256ZM91.9996 259C91.9173 259.161 92.2464 258.759 91.9996 259C91.5608 259.416 90.5892 259.946 89.9996 260C89.835 259.651 89.9996 260 89.9996 260C91.6861 259.799 92.0407 258.55 91.9996 258C92.2053 258.362 91.8076 258.611 91.9996 259M92.9996 260C92.9036 260.148 92.2875 259.732 91.9996 260C91.5471 260.402 91.5481 260.92 90.9996 261C90.9447 260.799 90.0681 261.174 89.9996 261C90.6577 260.906 91.5197 260.47 91.9996 260C92.1504 259.866 92.9036 259.134 92.9996 259C93.0681 259.148 92.9447 259.839 92.9996 260M92.9996 261C93.123 262.609 93.4814 265.962 90.9996 268C90.9996 268 93.3698 270.722 92.9996 275C92.41 276.837 91.8771 279.418 90.9996 281C90.9996 280.96 91.0133 280.054 90.9996 280C90.8899 279.343 90.4932 279.429 89.9996 279C89.9996 279 90.0133 279 89.9996 279C90.5343 278.464 91.3561 276.125 90.9996 273C90.9722 272.759 91.0544 273.242 90.9996 273C90.9173 272.611 91.1367 271.376 90.9996 271C90.8488 270.571 90.2601 270.389 89.9996 270C89.5745 269.383 88.7674 269.107 87.9996 269C87.8076 268.973 88.1778 268.92 87.9996 269C87.9173 269.054 87.9722 268.893 87.9996 269C88.027 269.107 87.9447 269.906 87.9996 270C88.0956 270.174 87.9859 269.799 87.9996 270C88.0133 270.335 88.2464 270.759 87.9996 271C87.6019 271.402 86.5206 271.416 85.9996 271C85.4785 270.598 85.027 270.523 84.9996 270C84.931 268.847 85.9859 268.014 85.9996 268L86.9996 267H85.9996C85.9996 267 84.8899 266.261 84.9996 265C85.0407 264.504 85.4922 263.349 85.9996 263C86.74 262.504 86.7116 262.839 86.9996 263C87.4658 263.268 88.0407 263.531 87.9996 264C87.9722 264.349 88.3835 264.839 87.9996 265C87.9173 265.067 87.1093 264.96 86.9996 265V266C87.7263 265.933 88.3551 265.322 88.9996 265C89.4521 264.772 90.7253 264.429 90.9996 264C91.2327 263.638 90.9722 263.429 90.9996 263C91.027 262.638 91.0681 262.362 90.9996 262C91.2738 261.96 91.7391 261.107 91.9996 261C92.3424 260.853 92.7116 261.255 92.9996 261C93.1778 260.839 92.8899 260.148 92.9996 260C93.027 260.081 92.9722 260.92 92.9996 261M92.9996 268C92.7939 267.812 91.9173 267.282 91.9996 267C92.0681 266.705 92.7665 266.906 92.9996 267C93.2327 267.094 92.9996 267.718 92.9996 268C92.9996 268.456 93.315 268.295 92.9996 268M89.9996 282C89.9996 282 90.0133 281.96 89.9996 282C89.9722 282.04 90.027 281.973 89.9996 282C88.7244 284.012 87.3845 285.511 85.9996 287C85.8625 286.866 85.2053 287.295 84.9996 287C84.6842 286.544 84.1504 285.966 83.9996 285C84.6029 284.946 85.5334 284.268 85.9996 284C86.4246 283.745 86.7116 283.402 86.9996 283C87.4795 282.303 87.9996 282.027 87.9996 282V282L86.9996 281C86.9996 281 87.027 280.671 86.9996 280C86.9859 279.571 86.5197 279.416 86.9996 279C87.8908 278.209 88.7665 278.786 88.9996 279C89.7263 279.644 90.6303 280.941 89.9996 282M78.9996 293C77.505 292.128 75.4814 291.24 72.9996 289C73.3287 288.638 72.8076 287.456 72.9996 287C73.0407 286.893 72.9584 287.121 72.9996 287C73.6577 287.014 76.2298 287.199 78.9996 292C78.9996 292 81.3248 288.341 84.9996 287C85.0407 287.054 84.9584 286.946 84.9996 287C85.2327 287.335 84.8488 287.853 84.9996 288C81.6128 291.554 78.9996 293 78.9996 293M68.9996 285C68.6019 284.41 67.6156 281.65 67.9996 280C67.9996 279.96 67.9859 280.04 67.9996 280V280C67.9996 279.638 67.7116 279.215 67.9996 279C68.3424 278.745 68.5745 279.054 68.9996 279C69.4658 278.946 70.6568 278.678 70.9996 279C71.0681 279.054 70.931 278.946 70.9996 279C71.4521 279.429 71.2053 280.571 70.9996 281C70.835 281.322 70.315 280.973 69.9996 281C69.7665 281.014 70.0133 281 69.9996 281V281V281C69.9996 281 69.7253 282.343 69.9996 283C70.1641 283.389 70.7802 283.705 70.9996 284C71.2875 284.389 71.6294 284.786 71.9996 285C72.4932 285.295 72.3963 285 72.9996 285C73.027 285.242 73.0407 285.598 72.9996 286C72.9036 286.912 72.5481 287.37 71.9996 288C70.9301 287.008 70.0417 286.274 68.9996 285ZM63.9996 268C63.9996 267.638 63.6705 267.215 63.9996 267C64.0819 266.946 63.9584 266.92 63.9996 267C64.1915 267.362 64.8076 267.853 64.9996 268C65.0681 268.054 65.0681 267.946 64.9996 268C64.7939 268.134 64.219 268.692 63.9996 269C63.9447 269.067 64.0407 269.067 63.9996 269C63.8625 268.826 63.9996 268.376 63.9996 268M63.9996 277C62.5736 270.174 65.9996 268 65.9996 268C63.8742 266.029 63.027 263.086 62.9996 262C63.1093 262.107 63.8488 261.906 63.9996 262C64.3424 262.255 64.5608 262.879 64.9996 263C65.3835 263.107 65.5608 263 65.9996 263C66.0819 263 65.9173 263 65.9996 263C65.9447 263 65.9859 263.906 65.9996 264C66.0819 264.309 66.8488 264.718 66.9996 265C67.2464 265.47 67.6294 265.625 67.9996 266C68.3835 266.376 68.5197 266.745 68.9996 267C69.4521 267.242 70.4922 267.92 70.9996 268C71.5343 268.081 71.4648 267.973 71.9996 268C72.7537 268 73.6019 268.37 73.9996 269C74.3287 269.51 73.9996 269.397 73.9996 270C73.9996 270.443 74.0554 271.879 72.9996 272C72.3551 272.067 72.3012 272.309 71.9996 272C71.4922 271.464 70.9447 270.671 70.9996 270C70.9996 270.014 71.0544 269.014 70.9996 269C70.8213 268.92 70.1915 269.04 69.9996 269C69.5197 268.893 69.4521 268.853 68.9996 269C68.3688 269.201 67.4384 269.517 66.9996 270C64.7371 272.575 67.2043 277.511 67.9996 279C67.7391 279.295 67.0956 279.598 66.9996 280C66.8899 280.51 66.8488 281.343 66.9996 282C67.027 282.148 66.9447 281.853 66.9996 282C65.9026 280.337 64.7949 279.079 63.9996 277M63.9996 261C64.0956 261.107 63.8762 260.879 63.9996 261C64.3012 261.282 64.6019 261.826 64.9996 262C65.4246 262.188 65.4785 261.946 65.9996 262C65.9859 262.148 66.0133 262.839 65.9996 263C65.0672 263.054 64.6166 262.456 63.9996 262C63.6705 261.772 63.1093 261.148 62.9996 261C63.0681 260.786 63.9173 261.215 63.9996 261M64.9996 258C64.8762 259.006 64.6568 259.464 64.9996 260C65.315 260.483 66.3414 260.946 66.9996 261C66.9722 261.094 66.027 261.866 65.9996 262C65.1083 261.893 64.5481 261.51 63.9996 261C63.7528 260.772 64.0819 260.148 63.9996 260C64.2738 259.316 64.6568 258.63 64.9996 258M64.9996 259C65.0133 258.705 64.9447 258.322 64.9996 258C65.0819 257.504 65.7253 256.389 65.9996 256C66.3012 255.571 66.6705 255.402 66.9996 255C67.6303 254.222 68.2729 253.684 68.9996 253C69.6715 252.37 70.2591 251.563 70.9996 251C71.0681 251.121 70.9173 251.812 70.9996 252C71.1778 252.51 71.2875 252.619 70.9996 254C70.506 254.201 70.4932 254.531 69.9996 255C68.9712 255.966 68.0956 257.142 67.9996 258C67.9996 258.027 67.9859 258.973 67.9996 259C68.0544 259.067 68.9859 258.906 68.9996 259C69.0407 259.174 69.027 258.812 68.9996 259C68.9447 259.362 68.2738 259.759 67.9996 260C67.6568 260.309 67.4658 261.054 66.9996 261C66.5471 260.946 66.2601 260.389 65.9996 260C65.7116 259.558 64.9722 259.51 64.9996 259M72.9996 250C73.123 250.215 72.8625 250.625 72.9996 251C73.2464 251.698 73.2738 252.632 72.9996 254C72.6019 253.987 72.4658 253.879 71.9996 254C72.3287 252.163 71.3287 251.51 70.9996 251C71.3835 250.718 72.6294 250.255 72.9996 250M77.9996 247C77.9996 247 80.9418 248.055 83.9996 250C83.6568 250.255 83.2327 250.558 82.9996 251C82.9859 251.04 83.0133 250.96 82.9996 251C81.8478 250.249 78.9996 248 78.9996 248C77.3404 248.657 74.8223 250.544 73.9996 251C73.9584 250.839 73.0544 251.161 72.9996 251C72.8488 250.598 73.1367 250.228 72.9996 250C75.975 248.122 77.9996 247 77.9996 247ZM82.9996 254C82.9996 254 82.9722 254.04 82.9996 254C83.027 253.973 82.9584 254.027 82.9996 254C83.1778 253.893 83.7939 253.946 83.9996 254C84.0819 254.014 83.9584 253.933 83.9996 254C84.027 254.054 84.0133 253.973 83.9996 254C83.9584 254.121 84.1093 253.987 83.9996 254C83.8762 254 83.123 254.027 82.9996 254C82.931 253.987 83.0133 254.067 82.9996 254M80.9996 251L78.9996 253C78.8762 253.094 79.123 253.094 78.9996 253C78.5608 252.692 76.6029 251.349 75.9996 251C75.8625 250.92 76.8488 251.054 76.9996 251C77.5069 250.786 77.5334 250.268 77.9996 250C78.2053 249.879 78.8076 249.853 78.9996 250C79.4246 250.322 80.5471 250.759 80.9996 251C81.123 251.067 81.1093 250.933 80.9996 251ZM80.9996 260C80.9996 261.65 80.3972 262.41 79.9996 263C79.6979 263.429 79.1778 263.879 78.9996 264C78.2591 263.343 78.2738 262.019 77.9996 261C77.8625 260.45 76.9996 260.255 76.9996 260C77.1504 259.933 77.8625 260.094 77.9996 260C78.2875 259.812 78.7939 259.295 78.9996 259C79.2053 258.732 78.8762 258.349 78.9996 258C79.027 258.067 78.9722 257.933 78.9996 258C79.1504 258.376 79.7528 258.772 79.9996 259C80.2601 259.242 80.6431 259.906 80.9996 260M81.9996 254C81.3963 254.617 81.9584 255.544 81.9996 256C82.0133 256.067 81.9722 255.933 81.9996 256C82.0681 256.174 81.8762 256.853 81.9996 257C82.6303 257.134 82.9722 257.531 82.9996 258C83.0407 258.765 83.028 258.946 81.9996 259C81.3414 259.04 80.3698 259.349 79.9996 259C79.506 258.544 79.1367 257.644 78.9996 257C78.835 256.249 78.7528 255.724 78.9996 255C79.2875 254.142 80.2317 253.55 80.9996 253C81.8086 252.423 82.6294 252.107 82.9996 252C82.9447 252.188 83.027 251.799 82.9996 252C82.8625 252.778 81.9859 253.651 81.9996 254M73.9996 252C73.9996 252 74.0133 252.067 73.9996 252C74.4658 251.946 75.5598 252.075 76.9996 253C77.5618 253.362 77.6019 253.464 77.9996 254C78.3835 254.51 78.9584 255.356 78.9996 256C79.0407 256.711 79.2601 257.343 78.9996 258C78.7665 258.55 78.5206 258.651 77.9996 259C77.0672 259.617 75.6577 260.362 74.9996 260C74.3825 259.665 73.9722 258.55 73.9996 258C74.0133 257.477 73.6979 257.215 73.9996 257C74.6303 256.571 75.9859 257 75.9996 257V257V257C76.0544 256.625 76.1504 256.349 75.9996 256C75.7802 255.477 75.5206 254.255 74.9996 254C74.8899 253.946 73.9996 253.933 73.9996 254C74.1093 253.383 74.0544 252.604 73.9996 252M73.9996 266C74.0544 265.866 73.9584 265.148 73.9996 265C74.2738 265 75.41 265.853 75.9996 266C76.7263 266.188 77.5745 266.222 77.9996 267C77.931 267.161 77.3561 267.651 76.9996 268C76.3551 268.63 76.1377 268.96 74.9996 269C74.931 268.853 74.0819 268.134 73.9996 268C73.6156 267.41 73.5618 267.148 72.9996 267C73.6303 266.651 73.7528 266.617 73.9996 266M70.9996 265C70.1769 264.598 69.8488 264.63 69.9996 264C70.1641 263.343 71.3551 262 71.9996 262C72.8223 262 73.7528 263.008 73.9996 264C74.219 264.885 74.2611 266.356 72.9996 267C71.9712 267.523 70.0691 267.563 68.9996 267C68.8213 266.906 69.1504 266.107 68.9996 266C69.1093 266.027 68.8762 265.987 68.9996 266C69.4932 266.067 70.6156 266.094 70.9996 266C71.5069 265.879 71.7253 266.389 71.9996 266V265V265H70.9996ZM80.9996 279C80.9036 279.322 81.0407 279.665 80.9996 280C80.9996 280.04 80.9996 279.96 80.9996 280C79.8752 279.812 77.644 279.92 76.9996 280C76.9722 279.705 77.0544 279.322 76.9996 279C76.9996 278.946 77.0133 279.054 76.9996 279C77.6166 278.92 79.6284 278.853 80.9996 279ZM76.9996 273C76.9996 272.759 76.8213 271.563 76.9996 271C77.3012 269.994 78.218 269.617 78.9996 269C79.1641 269.121 79.7116 269.625 79.9996 270C80.4109 270.55 80.931 271.498 80.9996 273C80.5882 273.201 80.315 272.692 79.9996 273C79.6842 273.309 79.1504 273.745 78.9996 274C78.9447 273.893 79.0819 274.121 78.9996 274C78.8076 273.718 78.2327 273.215 77.9996 273C77.7253 272.759 77.3287 273.148 76.9996 273ZM73.9996 279C72.601 279.134 72.3012 278.153 71.9996 277C71.7116 275.887 72.1622 273.765 73.9996 273C75.2199 272.49 76.0946 272.625 76.9996 273C77.6852 273.295 77.7253 273.625 77.9996 274C78.3012 274.416 78.9996 275 78.9996 275V276C78.9996 276 78.9859 276.054 78.9996 276V275C78.9996 275 79.3963 274.604 79.9996 274C80.8086 273.195 81.6147 272.893 82.9996 273C84.8095 273.134 85.9584 273.766 85.9996 275C86.027 275.926 85.3708 277.799 83.9996 278C83.4648 278.081 83.4109 277.268 82.9996 277C82.6705 276.786 82.027 277.027 81.9996 277C81.931 276.893 82.123 276.973 81.9996 277C81.931 277.014 82.0407 276.946 81.9996 277C81.6294 277.47 81.2053 277.464 80.9996 278C80.2454 277.906 79.0417 277.933 77.9996 278C77.4648 278.04 77.2464 278.96 76.9996 279C76.7939 278.169 76.1093 277.282 75.9996 277C75.9447 276.866 76.1367 276.96 75.9996 277C75.8625 277.04 75.9859 276.866 75.9996 277C76.0407 277.496 75.3982 278.879 73.9996 279M78.9996 283C77.7244 285.146 74.9457 286.786 73.9996 287C74.0544 286.786 73.9722 286.228 73.9996 286C74.0407 285.584 74.027 285.255 73.9996 285C74.3424 284.96 74.6294 285.121 74.9996 285C75.9868 284.665 76.5745 283.872 76.9996 283C77.2464 282.477 76.9722 281.684 76.9996 281C76.9996 280.879 76.9996 281.121 76.9996 281C77.5892 280.906 79.9301 280.786 80.9996 281C80.9996 281.282 80.9584 280.732 80.9996 281C81.0819 281.47 80.7802 282.598 80.9996 283C81.3012 283.563 81.506 283.678 81.9996 284C82.2601 284.161 82.7116 283.92 82.9996 284C83.2327 284.067 83.7528 284.987 83.9996 285C84.0681 285.443 83.835 285.584 83.9996 286C84.0819 286.228 84.8762 285.786 84.9996 286C82.0241 285.866 78.9996 283 78.9996 283M79.9996 289C80.1093 289.255 80.0407 288.732 79.9996 289C79.9859 289.121 80.0407 289.879 79.9996 290C79.9722 290.107 80.0407 289.906 79.9996 290C79.9584 290.094 79.0819 289.933 78.9996 290C78.9173 290.067 79.0819 289.933 78.9996 290C78.9173 290.067 79.0133 290.906 78.9996 291C78.9996 291.081 79.0956 290.973 78.9996 291C78.8899 291.027 79.0544 291.094 78.9996 291C78.931 290.893 78.0681 290.107 77.9996 290C77.8762 289.786 78.1093 290.228 77.9996 290C77.8899 289.786 77.9584 289.228 77.9996 289C78.0407 288.772 77.8488 289.161 77.9996 289C78.123 288.866 78.0956 288.188 77.9996 288C77.7939 287.933 78.2053 287.946 77.9996 288C77.7802 288.054 77.219 288.04 76.9996 288C76.8076 287.96 77.1504 288.121 76.9996 288C76.6705 287.772 76.2327 287.322 75.9996 287C75.9859 286.973 75.9996 287.014 75.9996 287C76.1915 286.853 75.7665 287.107 75.9996 287C76.1915 286.92 76.7802 285.987 76.9996 286C77.219 286 77.835 286.879 77.9996 287C78.2875 287.215 78.6294 286.92 78.9996 287C79.0544 286.745 78.123 287.228 77.9996 287C77.8899 286.799 78.027 286.228 77.9996 286C77.9722 285.786 77.8625 285.174 77.9996 285C78.2464 284.665 78.7939 284.376 78.9996 284C79.027 283.946 78.9859 283.946 78.9996 284C79.0133 284.067 78.9584 284.946 78.9996 285C79.0819 285.107 79.8899 284.906 79.9996 285C80.0956 285.094 79.931 284.866 79.9996 285C80.1367 285.242 80.027 285.732 79.9996 286C79.9859 286.148 80.0681 285.866 79.9996 286C79.931 286.134 80.0681 286.879 79.9996 287C79.931 287.121 79.9996 286.853 79.9996 287C79.9996 287.027 79.9722 287 79.9996 287C80.027 287 79.9722 287.014 79.9996 287C80.0681 286.973 79.931 287.04 79.9996 287C80.123 286.92 79.8899 287.121 79.9996 287C80.1093 286.893 80.835 287.014 80.9996 287C81.1641 286.987 80.8625 286.933 80.9996 287C81.1641 287.081 81.8488 286.92 81.9996 287V287C81.9996 287 81.9584 286.933 81.9996 287C82.0956 287.134 82.0819 287.893 81.9996 288C81.8213 288.228 81.2738 287.893 80.9996 288C80.4648 288.201 80.4384 288.335 79.9996 288C79.9996 288.228 79.9036 288.799 79.9996 289M84.9996 266C85.123 266.322 84.7802 265.665 84.9996 266C85.219 266.322 85.8488 266.839 85.9996 267C85.7665 267.268 85.219 268.356 84.9996 269C84.7665 269.027 83.6852 269.148 82.9996 269C81.8478 268.745 81.6715 267.979 80.9996 267C81.3424 266.611 82.5863 264.987 84.9996 265C85.027 265.067 84.9722 265.92 84.9996 266M84.9996 260C88.5784 259.879 90.2327 261.216 89.9996 263C89.8762 264.006 89.7674 264.678 88.9996 265C89.0544 264.866 88.9859 264.161 88.9996 264C89.027 263.665 89.1915 263.335 88.9996 263C88.8213 262.678 88.3287 263.188 87.9996 263C87.6842 262.812 87.3698 261.987 86.9996 262C86.6019 262.014 86.3835 262.745 85.9996 263C85.3551 263.429 85.0407 263.343 84.9996 264C84.9996 264.134 84.9996 264.866 84.9996 265C84.3688 265 83.5618 264.853 82.9996 265C82.4648 265.134 81.4384 265.732 80.9996 266C80.2454 266.456 80.0133 266.987 79.9996 267V267V267C80.4246 267.657 81.3825 267.611 81.9996 268C82.4932 268.309 82.41 268.866 82.9996 269C83.4658 269.107 84.6842 269 84.9996 269C85.1093 269 84.9173 269 84.9996 269C84.9722 269.161 84.9996 269.839 84.9996 270C85.0407 270.684 85.3551 271.49 85.9996 272C86.2875 272.228 86.6294 272 86.9996 272C87.0819 272 86.9173 272.014 86.9996 272C87.4109 271.946 87.6842 271.309 87.9996 271C88.2738 270.732 88.9447 270.362 88.9996 270C90.1651 271.609 87.9996 275 87.9996 275C89.7273 276.341 89.2738 277.517 88.9996 278C88.931 278 89.0681 278.014 88.9996 278C88.4922 277.96 87.4246 278.625 86.9996 279C86.3963 279.537 85.9722 279.397 85.9996 280C86.0407 280.711 86.7528 281.786 86.9996 282C86.9447 282.215 87.2875 282.571 86.9996 283C86.4511 283.778 85.0965 283.946 83.9996 284C82.9712 284.04 82.5343 283.019 81.9996 282C81.3963 280.86 80.6832 279.864 81.9996 278C82.1093 278.121 82.8076 277.879 82.9996 278C83.2327 278.161 82.7391 277.933 82.9996 278C83.3287 278.081 83.6431 278.054 83.9996 278C84.7263 277.893 85.5882 277.563 85.9996 277C86.3561 276.504 87.027 275.671 86.9996 275C86.9859 274.611 86.1367 274.362 85.9996 274C85.8488 273.625 86.2601 273.295 85.9996 273C85.41 272.33 83.9594 272.081 82.9996 272C82.2591 271.946 81.6029 271.812 80.9996 272C80.9447 271.356 81.1915 271.55 80.9996 271C80.8213 270.49 80.3012 269.416 79.9996 269C79.4648 268.289 79.027 268.014 78.9996 268V268V268C78.4511 268.402 78.3561 269.437 77.9996 270C77.7116 270.456 77.1641 270.464 76.9996 271C76.8488 271.496 77.027 271.705 76.9996 272C76.0809 271.772 74.1377 272.531 72.9996 273C72.5197 273.201 72.3424 272.692 71.9996 273C71.6705 273.295 71.1778 273.638 70.9996 274C70.835 274.349 71.027 275.611 70.9996 276C70.9722 276.362 70.9036 276.625 70.9996 277C71.1915 277.738 71.4237 278.531 71.9996 279C72.3012 279.242 72.6431 278.893 72.9996 279C73.3698 279.121 74.6019 279.027 74.9996 279C75.4384 278.96 75.7116 279.215 75.9996 279C76.2601 278.826 75.8625 278.282 75.9996 278C76.027 277.946 75.9859 278.054 75.9996 278C76.3698 279.221 77.6852 281.552 76.9996 283C76.6568 283.738 75.8497 283.718 74.9996 284C73.9163 284.362 72.7263 284.443 71.9996 284C71.3003 283.584 71.2327 282.537 70.9996 282C70.8899 281.732 70.0407 282.201 69.9996 282C70.0681 282 70.9173 282 70.9996 282C71.2327 282 70.8076 281.107 70.9996 281C71.2327 280.866 71.8625 281.268 71.9996 281C72.1641 280.665 72.1093 280.389 71.9996 280C71.9036 279.638 71.3012 279.268 70.9996 279C70.8076 278.812 71.2601 278.081 70.9996 278C70.8488 277.96 70.1504 278.054 69.9996 278C69.3963 277.759 69.0407 277.59 68.9996 277C68.9447 276.276 69.3003 275.335 69.9996 275C69.9996 274.987 69.9859 275.014 69.9996 275C69.9996 275 68.4511 273.663 68.9996 272C69.4246 270.726 70.5471 270.933 70.9996 271C71.0407 271.456 70.6431 271.625 70.9996 272C71.3561 272.376 72.3688 273 72.9996 273C73.1367 273 72.8625 273.027 72.9996 273C73.5343 272.933 74.6979 272.416 74.9996 272C75.2464 271.638 74.9859 270.537 74.9996 270C74.9996 269.638 75.1093 269.362 74.9996 269C75.6303 268.96 76.4922 269.215 76.9996 269C77.4658 268.799 77.6705 268.335 77.9996 268C78.5755 267.423 77.9859 267.027 77.9996 267H78.9996H77.9996C77.7802 266.531 77.4932 266.309 76.9996 266C76.6156 265.759 76.5481 265.148 75.9996 265C75.3825 264.839 74.3012 265.014 73.9996 265C73.9996 264.718 74.0681 264.268 73.9996 264C73.8625 263.437 74.3972 262.389 73.9996 262C73.5608 261.584 72.5481 262 71.9996 262C71.5608 262 71.3835 261.692 70.9996 262C70.6156 262.309 70.1093 262.558 69.9996 263C69.9036 263.416 69.7939 264.638 69.9996 265C70.2053 265.362 70.5334 265.745 70.9996 266C70.2729 266.604 68.6715 266.201 67.9996 266C66.8752 265.558 66.5197 263.489 66.9996 262C67.6989 259.841 70.9996 260 70.9996 260C70.9996 260 69.2445 257.408 70.9996 256C72.5902 254.713 74.6431 254.893 74.9996 255C75.2464 255.107 75.8488 254.826 75.9996 255C76.219 255.242 75.9447 255.651 75.9996 256C75.9996 256.054 75.9996 255.96 75.9996 256C75.5471 255.92 74.5892 256.598 73.9996 257C73.5471 257.309 73.0407 257.303 72.9996 258C72.9722 258.765 74.1906 259.558 74.9996 260C75.4795 260.255 75.4511 260 75.9996 260C76.2327 260 76.7802 260.054 76.9996 260C77.0133 260.295 76.8762 261.517 76.9996 262C77.1367 262.523 77.7391 262.544 77.9996 263C78.3287 263.563 78.4922 263.584 78.9996 264V265V265C78.9996 265 79.4648 263.765 79.9996 263C80.3012 262.558 80.835 262.577 80.9996 262C81.1641 261.41 80.9996 260.724 80.9996 260C81.0819 260 81.9173 260 81.9996 260C82.0681 260 81.931 260 81.9996 260C83.3708 259.92 84.0544 259.006 83.9996 258C83.9859 257.745 84.1093 257.215 83.9996 257C84.0133 256.665 83.2327 256.349 82.9996 256C82.5334 255.276 82.9996 255 82.9996 255C84.3982 255.349 84.9996 254 84.9996 254C84.9996 254 85.7939 254.988 85.9996 257C86.1641 258.596 85.3835 258.732 84.9996 259C84.9036 259.067 84.9722 259.879 84.9996 260C85.027 260.161 84.835 260 84.9996 260M85.9996 251C85.7528 251.268 85.1641 251.665 84.9996 252C84.835 252.309 85.0956 252.638 84.9996 253C84.9447 253.242 85.027 252.812 84.9996 253C84.6431 252.933 84.3424 252.879 83.9996 253C83.7802 253.067 83.1778 253.906 82.9996 254C82.9996 253.638 82.9036 252.51 82.9996 252C83.1504 251.142 84.1632 250.496 84.9996 250C85.4384 250.295 85.5471 250.651 85.9996 251M77.9996 246C77.9996 246 78.0133 245.987 77.9996 246C77.931 246.027 78.0544 245.987 77.9996 246C77.8899 246.04 78.1093 245.96 77.9996 246C77.8625 246.054 77.1367 245.946 76.9996 246C76.8213 246.067 77.1778 246.92 76.9996 247C76.7939 247.094 76.1915 246.906 75.9996 247C75.7665 247.107 76.219 246.879 75.9996 247C75.7528 247.121 75.2464 247.866 74.9996 248C74.7253 248.148 74.2601 247.853 73.9996 248C73.7116 248.161 73.2738 248.826 72.9996 249C72.6979 249.188 72.2875 248.812 71.9996 249C71.6842 249.201 71.3012 249.786 70.9996 250C70.6842 250.228 71.315 249.772 70.9996 250C70.6842 250.242 70.3012 250.745 69.9996 251C69.6842 251.268 69.3012 251.718 68.9996 252C68.6842 252.282 68.2875 252.692 67.9996 253C67.6979 253.309 67.2875 253.678 66.9996 254C66.7116 254.335 66.2738 254.651 65.9996 255C65.835 255.215 66.1641 255.772 65.9996 256C65.8076 256.255 65.1641 255.745 64.9996 256C64.8899 256.174 65.0956 256.826 64.9996 257C64.7939 257.349 64.1915 257.638 63.9996 258C63.8076 258.376 64.1641 258.625 63.9996 259C63.8213 259.389 63.1504 259.598 62.9996 260C62.8488 260.416 63.123 260.584 62.9996 261C62.8762 261.429 62.0819 262.571 61.9996 263C61.9036 263.456 62.0544 263.544 61.9996 264C61.9447 264.47 62.0133 265.531 61.9996 266C61.9722 266.496 61.9859 266.504 61.9996 267C61.9996 267.349 61.9859 267.651 61.9996 268C63.0828 283.558 74.6392 291.425 78.9996 294C78.9996 294 96.028 283.422 94.9996 266C94.1083 251.033 79.0133 246 78.9996 246" fill="white"/>
<path d="M200 285C195.902 289.2 190.794 291 185 291C181.472 291 178.039 290.623 175 289L174 291L173 290C165.565 286.485 160 279.117 160 271C160 265.754 162.445 260.891 166 257L167 256L169 257L168 259C164.906 262.395 163 266.438 163 271C163 276.139 165.309 280.552 169 284H170V284C173.894 287.998 179.491 290 185 290C190.509 290 195.092 287.998 199 284H200V284V285V285ZM184 255H185V256H184C175.818 256 169 262.896 169 271C169 279.104 175.818 286 184 286H185V287H184C174.855 287 167 280.057 167 271C167 261.943 174.842 255 184 255ZM197 279C195.372 281.133 193.754 282.155 191 283L190 284V283V282C192.592 281.195 195.48 280.039 197 278L195 276C195 276 191.028 282 184 282C176.972 282 172 276.293 172 270C172 263.707 177.297 259 184 259C190.703 259 195 265 195 265L200 259C193.989 252.224 184.815 249.874 177 253V253V253V253C184.937 249.82 193.881 252.13 200 259L201 258C197.309 253.613 192.726 250.684 187 250C181.071 249.275 174.681 250.364 170 254V255L169 254H170C174.912 250.176 180.799 248.235 187 249C192.956 249.725 198.147 252.465 202 257L204 255C204 255 196.731 246 183 246C167.939 246 157 257.757 157 271C157 284.243 167.939 295 183 295C196.731 295 204 286 204 286L197 279V279Z" fill="white"/>
<path d="M27.0027 422.934L34.5557 413.414H37.219V433H34.1459V418.741L27.0027 427.687L19.8731 418.741V433H16.7999V413.414H19.4496L27.0027 422.934ZM46.8618 418.058C45.4595 419.46 44.7584 421.176 44.7584 423.207C44.7584 425.238 45.4595 426.958 46.8618 428.37C48.2731 429.781 49.9941 430.487 52.0246 430.487C54.0642 430.487 55.7852 429.781 57.1874 428.37C58.5988 426.958 59.3045 425.238 59.3045 423.207C59.3045 421.176 58.5988 419.46 57.1874 418.058C55.7852 416.647 54.0642 415.941 52.0246 415.941C49.9941 415.941 48.2731 416.647 46.8618 418.058ZM44.6628 430.35C42.6778 428.402 41.6853 426.021 41.6853 423.207C41.6853 420.393 42.6778 418.012 44.6628 416.064C46.6478 414.115 49.1017 413.141 52.0246 413.141C54.9566 413.141 57.4151 414.115 59.4001 416.064C61.3851 418.012 62.3776 420.393 62.3776 423.207C62.3776 426.021 61.3851 428.402 59.4001 430.35C57.4151 432.299 54.9566 433.273 52.0246 433.273C49.1017 433.273 46.6478 432.299 44.6628 430.35ZM76.1041 413.141C77.0966 413.141 78.0482 413.273 78.9587 413.537C79.8693 413.792 80.6205 414.106 81.2123 414.479C81.8133 414.853 82.3369 415.221 82.783 415.586C83.2292 415.95 83.557 416.264 83.7664 416.528L84.0669 416.911L82.1138 418.877C82.0591 418.805 81.9772 418.704 81.8679 418.577C81.7678 418.44 81.531 418.199 81.1577 417.853C80.7844 417.507 80.3837 417.211 79.9558 416.965C79.5278 416.71 78.9678 416.478 78.2758 416.269C77.5929 416.05 76.869 415.941 76.1041 415.941C74.0736 415.941 72.3527 416.647 70.9413 418.058C69.53 419.46 68.8243 421.176 68.8243 423.207C68.8243 425.238 69.5254 426.958 70.9276 428.37C72.339 429.781 74.0645 430.487 76.1041 430.487C76.869 430.487 77.5974 430.382 78.2895 430.173C78.9906 429.954 79.5688 429.695 80.0241 429.394C80.4884 429.094 80.8936 428.798 81.2396 428.506C81.5948 428.206 81.8588 427.951 82.0318 427.742L82.2503 427.4L84.2171 429.367C84.1443 429.476 84.0305 429.622 83.8757 429.804C83.73 429.977 83.3976 430.287 82.8786 430.733C82.3687 431.179 81.8224 431.575 81.2396 431.921C80.666 432.267 79.9102 432.581 78.9724 432.863C78.0436 433.137 77.0875 433.273 76.1041 433.273C73.1722 433.273 70.7137 432.299 68.7287 430.35C66.7437 428.402 65.7512 426.021 65.7512 423.207C65.7512 420.393 66.7437 418.012 68.7287 416.064C70.7137 414.115 73.1722 413.141 76.1041 413.141ZM91.1965 413.414V422.934L100.006 413.414H103.926L96.373 421.527L104.486 433H100.703L94.2696 423.767L91.1965 427.127V433H88.1234V413.414H91.1965ZM115.959 433H107.573V413.414H115.536C117.12 413.414 118.472 413.938 119.592 414.985C120.712 416.032 121.272 417.234 121.272 418.591C121.272 419.374 121.108 420.093 120.78 420.749C120.462 421.404 120.143 421.859 119.824 422.114L119.319 422.51C119.392 422.547 119.492 422.611 119.619 422.702C119.756 422.784 119.997 422.97 120.343 423.262C120.689 423.544 120.985 423.858 121.231 424.204C121.486 424.55 121.718 425.001 121.928 425.556C122.146 426.103 122.255 426.672 122.255 427.264C122.255 428.83 121.654 430.177 120.453 431.306C119.251 432.435 117.753 433 115.959 433ZM110.646 430.337H115.959C116.869 430.337 117.634 430.032 118.254 429.422C118.873 428.802 119.182 428.037 119.182 427.127C119.182 426.216 118.873 425.452 118.254 424.832C117.643 424.213 116.879 423.904 115.959 423.904H110.646V430.337ZM115.536 416.077H110.646V421.39H115.536C116.3 421.39 116.933 421.14 117.434 420.639C117.944 420.129 118.199 419.497 118.199 418.741C118.199 417.976 117.944 417.343 117.434 416.842C116.933 416.332 116.3 416.077 115.536 416.077ZM123.908 433L132.021 413.414H135.094L143.207 433H139.997L137.894 427.824H129.221L127.118 433H123.908ZM133.564 416.911L130.341 425.024H136.774L133.564 416.911Z" fill="#D3AA65"/>
<path d="M25.1861 467H16.7999V447.414H24.7627C26.3471 447.414 27.6992 447.938 28.8192 448.985C29.9392 450.032 30.4992 451.234 30.4992 452.591C30.4992 453.374 30.3353 454.093 30.0075 454.749C29.6888 455.404 29.3701 455.859 29.0514 456.114L28.5461 456.51C28.6189 456.547 28.7191 456.611 28.8465 456.702C28.9831 456.784 29.2244 456.97 29.5704 457.262C29.9164 457.544 30.2124 457.858 30.4582 458.204C30.7132 458.55 30.9454 459.001 31.1548 459.556C31.3733 460.103 31.4826 460.672 31.4826 461.264C31.4826 462.83 30.8816 464.177 29.6797 465.306C28.4778 466.435 26.9799 467 25.1861 467ZM19.8731 464.337H25.1861C26.0967 464.337 26.8615 464.032 27.4807 463.422C28.0999 462.802 28.4095 462.037 28.4095 461.127C28.4095 460.216 28.0999 459.452 27.4807 458.832C26.8706 458.213 26.1058 457.904 25.1861 457.904H19.8731V464.337ZM24.7627 450.077H19.8731V455.39H24.7627C25.5276 455.39 26.1604 455.14 26.6612 454.639C27.1711 454.129 27.4261 453.497 27.4261 452.741C27.4261 451.976 27.1711 451.343 26.6612 450.842C26.1604 450.332 25.5276 450.077 24.7627 450.077ZM33.1489 464.2H34.2689C34.3599 464.127 34.4783 464.004 34.624 463.831C34.7788 463.649 35.0474 463.244 35.4298 462.616C35.8122 461.978 36.1492 461.282 36.4405 460.526C36.741 459.77 37.0142 458.741 37.26 457.439C37.5059 456.128 37.6288 454.744 37.6288 453.287V447.414H50.3583V464.2H52.7348V471.193H49.6481V467H36.222V471.193H33.1489V464.2ZM40.7019 453.287C40.7019 454.744 40.5835 456.119 40.3468 457.412C40.1192 458.696 39.8414 459.734 39.5136 460.526C39.1858 461.318 38.858 462.01 38.5302 462.602C38.2024 463.185 37.9202 463.599 37.6834 463.845L37.342 464.2H47.2715V450.214H40.7019V453.287ZM72.1842 447.414V467H69.1111V458.464H59.4547V467H56.3816V447.414H59.4547V455.677H69.1111V447.414H72.1842ZM84.6269 454.27L89.5165 447.414H93.1496L86.4434 456.784L93.7096 467H90.0765L84.6269 459.31L79.1636 467H75.5305L82.7967 456.784L76.0905 447.414H79.7236L84.6269 454.27Z" fill="#D3AA65"/>
<path d="M19.9651 500.605C18.4128 498.822 17.6366 496.44 17.6366 493.46C17.6366 490.479 18.4128 488.102 19.9651 486.328C21.5174 484.545 23.4201 483.654 25.6732 483.654C27.9263 483.654 29.829 484.545 31.3813 486.328C32.9337 488.102 33.7098 490.479 33.7098 493.46C33.7098 496.44 32.9337 498.822 31.3813 500.605C29.829 502.379 27.9263 503.266 25.6732 503.266C23.4201 503.266 21.5174 502.379 19.9651 500.605ZM29.2258 498.662C30.2193 497.394 30.7161 495.66 30.7161 493.46C30.7161 491.26 30.2193 489.53 29.2258 488.271C28.2412 487.011 27.057 486.381 25.6732 486.381C24.2894 486.381 23.1008 487.011 22.1073 488.271C21.1227 489.53 20.6304 491.26 20.6304 493.46C20.6304 495.66 21.1227 497.394 22.1073 498.662C23.1008 499.922 24.2894 500.552 25.6732 500.552C27.057 500.552 28.2412 499.922 29.2258 498.662ZM48.7053 496.454H51.1536V499.181H48.7053V503H45.6982V499.181H36.4375V495.921L44.8866 483.92H48.7053V496.454ZM45.6982 496.454V487.326L39.2982 496.454H45.6982ZM56.3561 500.259C56.7109 500.614 56.8883 501.031 56.8883 501.51C56.8883 501.98 56.7109 502.392 56.3561 502.747C56.0013 503.093 55.5844 503.266 55.1053 503.266C54.6352 503.266 54.2227 503.093 53.8679 502.747C53.5131 502.392 53.3357 501.98 53.3357 501.51C53.3357 501.031 53.5131 500.614 53.8679 500.259C54.2227 499.904 54.6352 499.727 55.1053 499.727C55.5844 499.727 56.0013 499.904 56.3561 500.259ZM63.4347 483.92H65.7499V503H62.7561V488.563H59.3499V486.514C60.4941 486.39 61.3634 486.12 61.9578 485.703C62.561 485.277 63.0533 484.683 63.4347 483.92ZM73.9196 483.92H76.2347V503H73.241V488.563H69.8347V486.514C70.979 486.39 71.8483 486.12 72.4426 485.703C73.0458 485.277 73.5381 484.683 73.9196 483.92ZM83.6061 500.259C83.9609 500.614 84.1383 501.031 84.1383 501.51C84.1383 501.98 83.9609 502.392 83.6061 502.747C83.2513 503.093 82.8344 503.266 82.3553 503.266C81.8852 503.266 81.4727 503.093 81.1179 502.747C80.7631 502.392 80.5857 501.98 80.5857 501.51C80.5857 501.031 80.7631 500.614 81.1179 500.259C81.4727 499.904 81.8852 499.727 82.3553 499.727C82.8344 499.727 83.2513 499.904 83.6061 500.259ZM99.2668 503H86.5999C86.5999 501.82 86.7773 500.751 87.1321 499.793C87.4869 498.826 87.9482 498.024 88.5159 497.385C89.0924 496.746 89.7222 496.161 90.4053 495.629C91.0972 495.096 91.7846 494.613 92.4677 494.178C93.1507 493.735 93.776 493.3 94.3438 492.874C94.9203 492.449 95.386 491.952 95.7408 491.384C96.0957 490.808 96.2731 490.182 96.2731 489.508C96.2731 488.541 95.9715 487.778 95.3683 487.219C94.774 486.661 93.9401 486.381 92.8668 486.381C92.3435 486.381 91.8512 486.479 91.3899 486.674C90.9375 486.86 90.5827 487.086 90.3254 487.353C90.0771 487.61 89.8553 487.871 89.6602 488.138C89.4739 488.404 89.3453 488.634 89.2743 488.829L89.1812 489.109L86.7329 488.018C86.7684 487.894 86.8172 487.734 86.8793 487.539C86.9502 487.344 87.1365 486.998 87.4381 486.501C87.7486 486.004 88.1078 485.565 88.5159 485.184C88.9239 484.802 89.5138 484.452 90.2855 484.133C91.0573 483.813 91.9177 483.654 92.8668 483.654C94.7385 483.654 96.2731 484.217 97.4706 485.343C98.6681 486.47 99.2668 487.858 99.2668 489.508C99.2668 490.377 99.0894 491.185 98.7346 491.93C98.3798 492.675 97.9274 493.3 97.3774 493.806C96.8363 494.303 96.211 494.817 95.5013 495.349C94.8006 495.873 94.1176 496.352 93.4523 496.786C92.787 497.221 92.1306 497.744 91.483 498.356C90.8444 498.96 90.3521 499.598 90.0061 500.272H99.2668V503ZM104.882 500.605C103.33 498.822 102.553 496.44 102.553 493.46C102.553 490.479 103.33 488.102 104.882 486.328C106.434 484.545 108.337 483.654 110.59 483.654C112.843 483.654 114.746 484.545 116.298 486.328C117.85 488.102 118.627 490.479 118.627 493.46C118.627 496.44 117.85 498.822 116.298 500.605C114.746 502.379 112.843 503.266 110.59 503.266C108.337 503.266 106.434 502.379 104.882 500.605ZM114.143 498.662C115.136 497.394 115.633 495.66 115.633 493.46C115.633 491.26 115.136 489.53 114.143 488.271C113.158 487.011 111.974 486.381 110.59 486.381C109.206 486.381 108.018 487.011 107.024 488.271C106.039 489.53 105.547 491.26 105.547 493.46C105.547 495.66 106.039 497.394 107.024 498.662C108.018 499.922 109.206 500.552 110.59 500.552C111.974 500.552 113.158 499.922 114.143 498.662ZM134.021 503H121.354C121.354 501.82 121.532 500.751 121.886 499.793C122.241 498.826 122.703 498.024 123.27 497.385C123.847 496.746 124.477 496.161 125.16 495.629C125.852 495.096 126.539 494.613 127.222 494.178C127.905 493.735 128.53 493.3 129.098 492.874C129.675 492.449 130.14 491.952 130.495 491.384C130.85 490.808 131.027 490.182 131.027 489.508C131.027 488.541 130.726 487.778 130.123 487.219C129.528 486.661 128.695 486.381 127.621 486.381C127.098 486.381 126.606 486.479 126.144 486.674C125.692 486.86 125.337 487.086 125.08 487.353C124.831 487.61 124.61 487.871 124.415 488.138C124.228 488.404 124.1 488.634 124.029 488.829L123.936 489.109L121.487 488.018C121.523 487.894 121.572 487.734 121.634 487.539C121.705 487.344 121.891 486.998 122.193 486.501C122.503 486.004 122.862 485.565 123.27 485.184C123.678 484.802 124.268 484.452 125.04 484.133C125.812 483.813 126.672 483.654 127.621 483.654C129.493 483.654 131.027 484.217 132.225 485.343C133.422 486.47 134.021 487.858 134.021 489.508C134.021 490.377 133.844 491.185 133.489 491.93C133.134 492.675 132.682 493.3 132.132 493.806C131.591 494.303 130.965 494.817 130.256 495.349C129.555 495.873 128.872 496.352 128.207 496.786C127.541 497.221 126.885 497.744 126.237 498.356C125.599 498.96 125.106 499.598 124.76 500.272H134.021V503ZM146.435 492.914C146.524 492.95 146.644 493.003 146.795 493.074C146.954 493.136 147.229 493.296 147.62 493.553C148.01 493.801 148.356 494.09 148.657 494.418C148.959 494.746 149.23 495.203 149.469 495.788C149.717 496.365 149.842 496.999 149.842 497.691C149.842 499.252 149.216 500.574 147.966 501.656C146.724 502.729 145.078 503.266 143.029 503.266C142.16 503.266 141.335 503.164 140.554 502.96C139.774 502.747 139.126 502.499 138.612 502.215C138.106 501.922 137.667 501.63 137.294 501.337C136.922 501.044 136.651 500.8 136.483 500.605L136.217 500.272L138.119 498.37C138.155 498.423 138.217 498.503 138.306 498.609C138.403 498.707 138.607 498.884 138.918 499.141C139.228 499.39 139.552 499.611 139.889 499.807C140.235 499.993 140.687 500.166 141.246 500.326C141.814 500.476 142.408 500.552 143.029 500.552C144.209 500.552 145.14 500.268 145.823 499.7C146.506 499.124 146.848 498.41 146.848 497.558C146.848 496.698 146.506 495.983 145.823 495.416C145.14 494.839 144.209 494.551 143.029 494.551H141.126V491.823H143.029C143.969 491.823 144.701 491.579 145.225 491.091C145.757 490.604 146.023 489.943 146.023 489.109C146.023 488.266 145.757 487.601 145.225 487.113C144.701 486.625 143.969 486.381 143.029 486.381C142.231 486.381 141.477 486.554 140.767 486.9C140.058 487.246 139.556 487.579 139.264 487.898L138.811 488.417L136.895 486.514C136.948 486.443 137.028 486.346 137.135 486.222C137.25 486.089 137.498 485.853 137.88 485.516C138.261 485.179 138.669 484.891 139.104 484.651C139.539 484.403 140.111 484.177 140.82 483.973C141.53 483.76 142.266 483.654 143.029 483.654C144.901 483.654 146.369 484.137 147.433 485.104C148.498 486.062 149.03 487.304 149.03 488.829C149.03 489.353 148.937 489.858 148.751 490.346C148.573 490.825 148.356 491.216 148.099 491.517C147.841 491.819 147.589 492.08 147.34 492.302C147.101 492.515 146.888 492.666 146.702 492.755L146.435 492.914ZM169.468 493.739V496.188H152.024V493.739H169.468ZM175.468 483.92H177.784V503H174.79V488.563H171.384V486.514C172.528 486.39 173.397 486.12 173.991 485.703C174.595 485.277 175.087 484.683 175.468 483.92ZM194.535 503H181.868C181.868 501.82 182.046 500.751 182.401 499.793C182.755 498.826 183.217 498.024 183.784 497.385C184.361 496.746 184.991 496.161 185.674 495.629C186.366 495.096 187.053 494.613 187.736 494.178C188.419 493.735 189.045 493.3 189.612 492.874C190.189 492.449 190.655 491.952 191.009 491.384C191.364 490.808 191.542 490.182 191.542 489.508C191.542 488.541 191.24 487.778 190.637 487.219C190.043 486.661 189.209 486.381 188.135 486.381C187.612 486.381 187.12 486.479 186.658 486.674C186.206 486.86 185.851 487.086 185.594 487.353C185.346 487.61 185.124 487.871 184.929 488.138C184.742 488.404 184.614 488.634 184.543 488.829L184.45 489.109L182.001 488.018C182.037 487.894 182.086 487.734 182.148 487.539C182.219 487.344 182.405 486.998 182.707 486.501C183.017 486.004 183.376 485.565 183.784 485.184C184.192 484.802 184.782 484.452 185.554 484.133C186.326 483.813 187.186 483.654 188.135 483.654C190.007 483.654 191.542 484.217 192.739 485.343C193.937 486.47 194.535 487.858 194.535 489.508C194.535 490.377 194.358 491.185 194.003 491.93C193.648 492.675 193.196 493.3 192.646 493.806C192.105 494.303 191.48 494.817 190.77 495.349C190.069 495.873 189.386 496.352 188.721 496.786C188.056 497.221 187.399 497.744 186.752 498.356C186.113 498.96 185.621 499.598 185.275 500.272H194.535V503ZM200.563 500.259C200.918 500.614 201.095 501.031 201.095 501.51C201.095 501.98 200.918 502.392 200.563 502.747C200.208 503.093 199.791 503.266 199.312 503.266C198.842 503.266 198.43 503.093 198.075 502.747C197.72 502.392 197.542 501.98 197.542 501.51C197.542 501.031 197.72 500.614 198.075 500.259C198.43 499.904 198.842 499.727 199.312 499.727C199.791 499.727 200.208 499.904 200.563 500.259ZM206.431 500.605C204.878 498.822 204.102 496.44 204.102 493.46C204.102 490.479 204.878 488.102 206.431 486.328C207.983 484.545 209.886 483.654 212.139 483.654C214.392 483.654 216.295 484.545 217.847 486.328C219.399 488.102 220.175 490.479 220.175 493.46C220.175 496.44 219.399 498.822 217.847 500.605C216.295 502.379 214.392 503.266 212.139 503.266C209.886 503.266 207.983 502.379 206.431 500.605ZM215.691 498.662C216.685 497.394 217.182 495.66 217.182 493.46C217.182 491.26 216.685 489.53 215.691 488.271C214.707 487.011 213.523 486.381 212.139 486.381C210.755 486.381 209.566 487.011 208.573 488.271C207.588 489.53 207.096 491.26 207.096 493.46C207.096 495.66 207.588 497.394 208.573 498.662C209.566 499.922 210.755 500.552 212.139 500.552C213.523 500.552 214.707 499.922 215.691 498.662ZM235.171 496.454H237.619V499.181H235.171V503H232.164V499.181H222.903V495.921L231.352 483.92H235.171V496.454ZM232.164 496.454V487.326L225.764 496.454H232.164ZM242.822 500.259C243.176 500.614 243.354 501.031 243.354 501.51C243.354 501.98 243.176 502.392 242.822 502.747C242.467 503.093 242.05 503.266 241.571 503.266C241.101 503.266 240.688 503.093 240.333 502.747C239.979 502.392 239.801 501.98 239.801 501.51C239.801 501.031 239.979 500.614 240.333 500.259C240.688 499.904 241.101 499.727 241.571 499.727C242.05 499.727 242.467 499.904 242.822 500.259ZM258.482 503H245.815C245.815 501.82 245.993 500.751 246.348 499.793C246.702 498.826 247.164 498.024 247.731 497.385C248.308 496.746 248.938 496.161 249.621 495.629C250.313 495.096 251 494.613 251.683 494.178C252.366 493.735 252.992 493.3 253.559 492.874C254.136 492.449 254.602 491.952 254.956 491.384C255.311 490.808 255.489 490.182 255.489 489.508C255.489 488.541 255.187 487.778 254.584 487.219C253.99 486.661 253.156 486.381 252.082 486.381C251.559 486.381 251.067 486.479 250.605 486.674C250.153 486.86 249.798 487.086 249.541 487.353C249.293 487.61 249.071 487.871 248.876 488.138C248.689 488.404 248.561 488.634 248.49 488.829L248.397 489.109L245.948 488.018C245.984 487.894 246.033 487.734 246.095 487.539C246.166 487.344 246.352 486.998 246.654 486.501C246.964 486.004 247.323 485.565 247.731 485.184C248.139 484.802 248.729 484.452 249.501 484.133C250.273 483.813 251.133 483.654 252.082 483.654C253.954 483.654 255.489 484.217 256.686 485.343C257.884 486.47 258.482 487.858 258.482 489.508C258.482 490.377 258.305 491.185 257.95 491.93C257.595 492.675 257.143 493.3 256.593 493.806C256.052 494.303 255.427 494.817 254.717 495.349C254.016 495.873 253.333 496.352 252.668 496.786C252.003 497.221 251.346 497.744 250.699 498.356C250.06 498.96 249.568 499.598 249.222 500.272H258.482V503ZM264.097 500.605C262.545 498.822 261.769 496.44 261.769 493.46C261.769 490.479 262.545 488.102 264.097 486.328C265.65 484.545 267.552 483.654 269.806 483.654C272.059 483.654 273.961 484.545 275.514 486.328C277.066 488.102 277.842 490.479 277.842 493.46C277.842 496.44 277.066 498.822 275.514 500.605C273.961 502.379 272.059 503.266 269.806 503.266C267.552 503.266 265.65 502.379 264.097 500.605ZM273.358 498.662C274.352 497.394 274.848 495.66 274.848 493.46C274.848 491.26 274.352 489.53 273.358 488.271C272.374 487.011 271.189 486.381 269.806 486.381C268.422 486.381 267.233 487.011 266.24 488.271C265.255 489.53 264.763 491.26 264.763 493.46C264.763 495.66 265.255 497.394 266.24 498.662C267.233 499.922 268.422 500.552 269.806 500.552C271.189 500.552 272.374 499.922 273.358 498.662ZM293.237 503H280.57C280.57 501.82 280.747 500.751 281.102 499.793C281.457 498.826 281.918 498.024 282.486 497.385C283.062 496.746 283.692 496.161 284.375 495.629C285.067 495.096 285.755 494.613 286.438 494.178C287.121 493.735 287.746 493.3 288.314 492.874C288.89 492.449 289.356 491.952 289.711 491.384C290.066 490.808 290.243 490.182 290.243 489.508C290.243 488.541 289.941 487.778 289.338 487.219C288.744 486.661 287.91 486.381 286.837 486.381C286.313 486.381 285.821 486.479 285.36 486.674C284.907 486.86 284.553 487.086 284.295 487.353C284.047 487.61 283.825 487.871 283.63 488.138C283.444 488.404 283.315 488.634 283.244 488.829L283.151 489.109L280.703 488.018C280.738 487.894 280.787 487.734 280.849 487.539C280.92 487.344 281.106 486.998 281.408 486.501C281.719 486.004 282.078 485.565 282.486 485.184C282.894 484.802 283.484 484.452 284.255 484.133C285.027 483.813 285.888 483.654 286.837 483.654C288.708 483.654 290.243 484.217 291.441 485.343C292.638 486.47 293.237 487.858 293.237 489.508C293.237 490.377 293.059 491.185 292.705 491.93C292.35 492.675 291.897 493.3 291.347 493.806C290.806 494.303 290.181 494.817 289.471 495.349C288.771 495.873 288.088 496.352 287.422 496.786C286.757 497.221 286.101 497.744 285.453 498.356C284.814 498.96 284.322 499.598 283.976 500.272H293.237V503ZM308.246 496.454H310.694V499.181H308.246V503H305.239V499.181H295.978V495.921L304.427 483.92H308.246V496.454ZM305.239 496.454V487.326L298.839 496.454H305.239Z" fill="white"/>
<path d="M27.0027 48.9339L34.5557 39.414H37.219V59H34.1459V44.7408L27.0027 53.6869L19.8731 44.7408V59H16.7999V39.414H19.4496L27.0027 48.9339ZM45.8784 56.2001H56.9279V59H42.8053V39.414H56.6548V42.214H45.8784V47.3905H54.4148V50.1904H45.8784V56.2001ZM70.7774 59V51.8704L68.8243 49.767L62.3912 59H58.6079L66.7209 47.5271L59.1679 39.414H63.0878L70.7774 47.6773V39.414H73.8642V47.6773L81.5538 39.414H85.4737L77.9207 47.5271L86.0337 59H82.2503L75.8173 49.767L73.8642 51.8704V59H70.7774ZM86.3069 56.2001H87.4268C87.5179 56.1272 87.6363 56.0043 87.7819 55.8313C87.9367 55.6492 88.2054 55.244 88.5878 54.6157C88.9702 53.9783 89.3071 53.2817 89.5985 52.526C89.899 51.7702 90.1721 50.7413 90.418 49.4392C90.6638 48.128 90.7868 46.744 90.7868 45.2871V39.414H103.516V56.2001H105.893V63.1931H102.806V59H89.38V63.1931H86.3069V56.2001ZM93.8599 45.2871C93.8599 46.744 93.7415 48.1189 93.5048 49.4119C93.2771 50.6958 92.9994 51.7338 92.6716 52.526C92.3438 53.3182 92.016 54.0102 91.6882 54.602C91.3604 55.1848 91.0781 55.5991 90.8414 55.8449L90.4999 56.2001H100.429V42.214H93.8599V45.2871ZM110.796 39.414L116.109 49.6304L120.862 39.414H124.086L117.093 54.2469C116.273 56.0043 115.381 57.2836 114.416 58.0849C113.459 58.8771 112.207 59.2732 110.66 59.2732C110.323 59.2732 109.99 59.2367 109.662 59.1639C109.335 59.0911 109.089 59.0182 108.925 58.9454L108.693 58.8634V56.2001C109.066 56.3822 109.626 56.4778 110.373 56.4869C111.283 56.4869 111.998 56.3048 112.517 55.9405C113.045 55.5763 113.496 55.0118 113.869 54.2469L114.566 52.8401L107.573 39.414H110.796ZM142.961 39.414V59H139.888V50.4636H130.232V59H127.159V39.414H130.232V47.6773H139.888V39.414H142.961ZM146.308 59L154.421 39.414H157.494L165.607 59H162.397L160.294 53.8235H151.621L149.517 59H146.308ZM155.964 42.9106L152.741 51.0236H159.174L155.964 42.9106ZM168.98 39.414H176.807C178.673 39.414 180.235 40.0287 181.491 41.2579C182.757 42.4781 183.39 43.9668 183.39 45.7242C183.39 47.4724 182.757 48.9566 181.491 50.1768C180.235 51.3969 178.673 52.007 176.807 52.007H172.053V59H168.98V39.414ZM176.807 42.214H172.053V49.207H176.807C177.772 49.207 178.596 48.8747 179.279 48.21C179.962 47.5362 180.303 46.7076 180.303 45.7242C180.303 44.7317 179.962 43.8985 179.279 43.2247C178.596 42.5509 177.772 42.214 176.807 42.214ZM191.913 44.0579C190.51 45.4601 189.809 47.1765 189.809 49.207C189.809 51.2376 190.51 52.9585 191.913 54.3698C193.324 55.7812 195.045 56.4869 197.075 56.4869C199.115 56.4869 200.836 55.7812 202.238 54.3698C203.65 52.9585 204.355 51.2376 204.355 49.207C204.355 47.1765 203.65 45.4601 202.238 44.0579C200.836 42.6465 199.115 41.9408 197.075 41.9408C195.045 41.9408 193.324 42.6465 191.913 44.0579ZM189.714 56.3503C187.729 54.4017 186.736 52.0206 186.736 49.207C186.736 46.3934 187.729 44.0123 189.714 42.0638C191.699 40.1152 194.153 39.1409 197.075 39.1409C200.007 39.1409 202.466 40.1152 204.451 42.0638C206.436 44.0123 207.428 46.3934 207.428 49.207C207.428 52.0206 206.436 54.4017 204.451 56.3503C202.466 58.2989 200.007 59.2732 197.075 59.2732C194.153 59.2732 191.699 58.2989 189.714 56.3503ZM208.548 56.2001H209.668C209.759 56.1272 209.878 56.0043 210.023 55.8313C210.178 55.6492 210.447 55.244 210.829 54.6157C211.212 53.9783 211.549 53.2817 211.84 52.526C212.14 51.7702 212.414 50.7413 212.659 49.4392C212.905 48.128 213.028 46.744 213.028 45.2871V39.414H225.758V56.2001H228.134V63.1931H225.048V59H211.621V63.1931H208.548V56.2001ZM216.101 45.2871C216.101 46.744 215.983 48.1189 215.746 49.4119C215.519 50.6958 215.241 51.7338 214.913 52.526C214.585 53.3182 214.257 54.0102 213.93 54.602C213.602 55.1848 213.32 55.5991 213.083 55.8449L212.741 56.2001H222.671V42.214H216.101V45.2871ZM247.584 39.414V59H244.511V50.4636H234.854V59H231.781V39.414H234.854V47.6773H244.511V39.414H247.584ZM250.93 59L259.043 39.414H262.116L270.229 59H267.019L264.916 53.8235H256.243L254.14 59H250.93ZM260.586 42.9106L257.363 51.0236H263.796L260.586 42.9106ZM287.302 39.414V59H284.229V51.447H279.749L275.556 59H272.196L276.676 51.1738C276.566 51.1374 276.421 51.0782 276.239 50.9963C276.066 50.9052 275.756 50.7003 275.31 50.3816C274.864 50.0629 274.468 49.7078 274.122 49.3163C273.776 48.9248 273.462 48.383 273.179 47.691C272.897 46.9898 272.756 46.2386 272.756 45.4373C272.756 43.7437 273.352 42.3187 274.545 41.1623C275.747 39.9968 277.249 39.414 279.052 39.414H287.302ZM276.758 43.1428C276.148 43.7528 275.843 44.5177 275.843 45.4373C275.843 46.3479 276.148 47.1128 276.758 47.7319C277.377 48.342 278.142 48.647 279.052 48.647H284.229V42.214H279.052C278.142 42.214 277.377 42.5236 276.758 43.1428Z" fill="white"/>
<path d="M25.1861 93H16.7999V73.414H24.7627C26.3471 73.414 27.6992 73.9376 28.8192 74.9847C29.9392 76.0319 30.4992 77.2338 30.4992 78.5905C30.4992 79.3736 30.3353 80.0929 30.0075 80.7485C29.6888 81.4041 29.3701 81.8594 29.0514 82.1144L28.5461 82.5105C28.6189 82.5469 28.7191 82.6106 28.8465 82.7017C28.9831 82.7836 29.2244 82.9703 29.5704 83.2617C29.9164 83.5439 30.2124 83.8581 30.4582 84.2041C30.7132 84.5501 30.9454 85.0008 31.1548 85.5562C31.3733 86.1026 31.4826 86.6717 31.4826 87.2635C31.4826 88.8297 30.8816 90.1773 29.6797 91.3064C28.4778 92.4355 26.9799 93 25.1861 93ZM19.8731 90.3366H25.1861C26.0967 90.3366 26.8615 90.0316 27.4807 89.4215C28.0999 88.8024 28.4095 88.0375 28.4095 87.1269C28.4095 86.2164 28.0999 85.4515 27.4807 84.8324C26.8706 84.2132 26.1058 83.9036 25.1861 83.9036H19.8731V90.3366ZM24.7627 76.0774H19.8731V81.3905H24.7627C25.5276 81.3905 26.1604 81.1401 26.6612 80.6393C27.1711 80.1294 27.4261 79.4965 27.4261 78.7408C27.4261 77.9759 27.1711 77.3431 26.6612 76.8423C26.1604 76.3324 25.5276 76.0774 24.7627 76.0774ZM55.6714 73.414V93H52.5846V73.414H55.6714ZM43.5019 93H35.9488V73.414H39.0219V80.4071H43.5019C45.3685 80.4071 46.9301 81.0217 48.1866 82.2509C49.4432 83.4711 50.0715 84.9598 50.0715 86.7172C50.0715 88.4655 49.4432 89.9497 48.1866 91.1698C46.9301 92.3899 45.3685 93 43.5019 93ZM39.0219 90.2001H43.5019C44.467 90.2001 45.2911 89.8677 45.974 89.203C46.6569 88.5292 46.9984 87.7006 46.9984 86.7172C46.9984 85.7247 46.6569 84.8915 45.974 84.2177C45.2911 83.5439 44.467 83.207 43.5019 83.207H39.0219V90.2001ZM70.5042 73.1409C71.4967 73.1409 72.4483 73.2729 73.3588 73.537C74.2694 73.7919 75.0206 74.1061 75.6124 74.4794C76.2134 74.8527 76.737 75.2215 77.1831 75.5857C77.6293 75.9499 77.9571 76.2641 78.1665 76.5281L78.467 76.9106L76.5139 78.8774C76.4592 78.8045 76.3773 78.7043 76.268 78.5769C76.1679 78.4403 75.9311 78.199 75.5578 77.853C75.1845 77.507 74.7838 77.211 74.3559 76.9652C73.9279 76.7102 73.3679 76.4781 72.6759 76.2686C71.993 76.0501 71.2691 75.9408 70.5042 75.9408C68.4737 75.9408 66.7528 76.6465 65.3414 78.0579C63.9301 79.4601 63.2244 81.1765 63.2244 83.207C63.2244 85.2376 63.9255 86.9585 65.3278 88.3698C66.7391 89.7812 68.4646 90.4869 70.5042 90.4869C71.2691 90.4869 71.9975 90.3822 72.6896 90.1727C73.3907 89.9542 73.9689 89.6947 74.4242 89.3942C74.8885 89.0937 75.2937 88.7978 75.6397 88.5064C75.9949 88.2059 76.2589 87.951 76.4319 87.7416L76.6505 87.4001L78.6173 89.3669C78.5444 89.4762 78.4306 89.6219 78.2758 89.804C78.1301 89.977 77.7978 90.2866 77.2787 90.7327C76.7688 91.1789 76.2225 91.575 75.6397 91.921C75.0661 92.267 74.3103 92.5811 73.3725 92.8634C72.4437 93.1366 71.4876 93.2732 70.5042 93.2732C67.5723 93.2732 65.1138 92.2989 63.1288 90.3503C61.1438 88.4017 60.1513 86.0206 60.1513 83.207C60.1513 80.3934 61.1438 78.0123 63.1288 76.0638C65.1138 74.1152 67.5723 73.1409 70.5042 73.1409ZM80.2836 73.414H95.1028V76.214H89.2297V93H86.1566V76.214H80.2836V73.414ZM94.5428 93L102.656 73.414H105.729L113.842 93H110.632L108.529 87.8235H99.8558L97.7525 93H94.5428ZM104.199 76.9106L100.976 85.0236H107.409L104.199 76.9106ZM125.602 93H117.216V73.414H125.178C126.763 73.414 128.115 73.9376 129.235 74.9847C130.355 76.0319 130.915 77.2338 130.915 78.5905C130.915 79.3736 130.751 80.0929 130.423 80.7485C130.104 81.4041 129.786 81.8594 129.467 82.1144L128.962 82.5105C129.034 82.5469 129.135 82.6106 129.262 82.7017C129.399 82.7836 129.64 82.9703 129.986 83.2617C130.332 83.5439 130.628 83.8581 130.874 84.2041C131.129 84.5501 131.361 85.0008 131.57 85.5562C131.789 86.1026 131.898 86.6717 131.898 87.2635C131.898 88.8297 131.297 90.1773 130.095 91.3064C128.893 92.4355 127.395 93 125.602 93ZM120.289 90.3366H125.602C126.512 90.3366 127.277 90.0316 127.896 89.4215C128.515 88.8024 128.825 88.0375 128.825 87.1269C128.825 86.2164 128.515 85.4515 127.896 84.8324C127.286 84.2132 126.521 83.9036 125.602 83.9036H120.289V90.3366ZM125.178 76.0774H120.289V81.3905H125.178C125.943 81.3905 126.576 81.1401 127.077 80.6393C127.587 80.1294 127.842 79.4965 127.842 78.7408C127.842 77.9759 127.587 77.3431 127.077 76.8423C126.576 76.3324 125.943 76.0774 125.178 76.0774ZM139.438 73.414V82.9339L148.247 73.414H152.167L144.614 81.5271L152.727 93H148.944L142.511 83.767L139.438 87.1269V93H136.364V73.414H139.438ZM153.574 93L161.687 73.414H164.76L172.873 93H169.663L167.56 87.8235H158.887L156.784 93H153.574ZM163.23 76.9106L160.007 85.0236H166.44L163.23 76.9106ZM184.36 83.4938V86.007H174.567V83.4938H184.36Z" fill="white"/>
<path d="M33.9137 110.334C35.5527 111.845 36.3722 113.712 36.3722 115.934C36.3722 118.146 35.5527 120.009 33.9137 121.52C32.2748 123.032 30.1122 123.824 27.4261 123.897V126.56H24.353V123.897C21.6668 123.824 19.4997 123.032 17.8516 121.52C16.2126 120.009 15.3931 118.146 15.3931 115.934C15.3931 113.712 16.2126 111.845 17.8516 110.334C19.4997 108.822 21.6668 108.03 24.353 107.957V105.854H27.4261V107.957C30.1122 108.03 32.2748 108.822 33.9137 110.334ZM31.7557 119.717C32.7847 118.761 33.2991 117.5 33.2991 115.934C33.2991 114.368 32.7847 113.111 31.7557 112.164C30.7359 111.208 29.2927 110.694 27.4261 110.621V121.247C29.2927 121.174 30.7359 120.664 31.7557 119.717ZM20.0096 112.164C18.9898 113.111 18.4799 114.368 18.4799 115.934C18.4799 117.5 18.9898 118.761 20.0096 119.717C21.0386 120.664 22.4863 121.174 24.353 121.247V110.621C22.4863 110.694 21.0386 111.208 20.0096 112.164ZM44.6218 111.058C43.2196 112.46 42.5185 114.176 42.5185 116.207C42.5185 118.238 43.2196 119.958 44.6218 121.37C46.0332 122.781 47.7541 123.487 49.7847 123.487C51.8243 123.487 53.5452 122.781 54.9475 121.37C56.3588 119.958 57.0645 118.238 57.0645 116.207C57.0645 114.176 56.3588 112.46 54.9475 111.058C53.5452 109.647 51.8243 108.941 49.7847 108.941C47.7541 108.941 46.0332 109.647 44.6218 111.058ZM42.4228 123.35C40.4378 121.402 39.4453 119.021 39.4453 116.207C39.4453 113.393 40.4378 111.012 42.4228 109.064C44.4079 107.115 46.8618 106.141 49.7847 106.141C52.7166 106.141 55.1751 107.115 57.1601 109.064C59.1451 111.012 60.1376 113.393 60.1376 116.207C60.1376 119.021 59.1451 121.402 57.1601 123.35C55.1751 125.299 52.7166 126.273 49.7847 126.273C46.8618 126.273 44.4079 125.299 42.4228 123.35ZM64.6312 106.414H72.4574C74.324 106.414 75.8856 107.029 77.1422 108.258C78.4078 109.478 79.0407 110.967 79.0407 112.724C79.0407 114.472 78.4078 115.957 77.1422 117.177C75.8856 118.397 74.324 119.007 72.4574 119.007H67.7043V126H64.6312V106.414ZM72.4574 109.214H67.7043V116.207H72.4574C73.4226 116.207 74.2466 115.875 74.9295 115.21C75.6124 114.536 75.9539 113.708 75.9539 112.724C75.9539 111.732 75.6124 110.899 74.9295 110.225C74.2466 109.551 73.4226 109.214 72.4574 109.214ZM84.1898 106.414L89.5029 116.63L94.256 106.414H97.4793L90.4863 121.247C89.6668 123.004 88.7744 124.284 87.8093 125.085C86.8532 125.877 85.6012 126.273 84.0532 126.273C83.7163 126.273 83.384 126.237 83.0562 126.164C82.7284 126.091 82.4825 126.018 82.3186 125.945L82.0864 125.863V123.2C82.4598 123.382 83.0198 123.478 83.7664 123.487C84.677 123.487 85.3917 123.305 85.9108 122.941C86.4389 122.576 86.8896 122.012 87.2629 121.247L87.9595 119.84L80.9665 106.414H84.1898ZM110.755 115.934L118.308 106.414H120.972V126H117.898V111.741L110.755 120.687L103.626 111.741V126H100.552V106.414H103.202L110.755 115.934Z" fill="white"/>
</g>
<defs>
<clipPath id="clip0_163_12859">
<rect width="327" height="545" rx="10.0926" fill="white"/>
</clipPath>
</defs>
</svg>
