<svg width="359" height="68" viewBox="0 0 359 68" fill="none" xmlns="http://www.w3.org/2000/svg">
<path d="M270 7V12C266.3 12.3997 264 12 264 12C264 12 267.184 15.1591 267 20C266.719 27.1859 257.745 33.082 257 42C256.369 49.5767 260 54 260 54H256V7H239L240 62H256V57C257.298 56.7069 260.238 55.5026 263 56C263 56 259.036 53.2976 260 47C261.42 37.7445 268.658 33.4013 269 23C269.219 16.3915 267 14 267 14C267 14 268.448 14.0266 270 14V62H287V7H270Z" fill="white"/>
<path d="M172 15.9999C171.064 16.0538 170.872 15.2603 170 14.9999C169.559 14.8742 168.468 14.9819 168 14.9999C167.486 15.0178 167.523 14.9729 167 14.9999C166.054 15.0538 164.532 14.7093 164 13.9999C163.431 13.2366 163.551 12.7901 163 11.9999C162.578 11.3893 161.514 10.5387 161 9.99989C160.486 9.45211 160.587 8.46684 160 7.99989C159.403 7.53293 158.651 7.37705 158 6.99989C157.348 6.63171 156.707 6.26929 156 5.99989C155.495 5.80233 154.514 6.16153 154 5.99989C153.945 5.98193 154.036 5.04479 154 4.99989C153.825 4.82029 153.88 5.01785 154 4.99989C154.918 4.84723 156.073 4.90111 157 4.99989C157.743 5.08071 158.302 5.73947 159 5.99989C159.101 6.03581 159.899 5.95499 160 5.99989C160.688 6.28725 161.366 6.60477 162 6.99989C162.642 7.40399 163.403 7.53293 164 7.99989C164.587 8.46684 164.44 9.49701 165 9.99989C165.349 10.3052 165.651 10.6946 166 10.9999C167.514 12.3469 170.136 13.1378 172 13.9999C171.743 14.1795 172.248 14.1166 172 13.9999C172.174 13.8742 172.248 14.1076 172 13.9999C171.825 13.9281 172.193 13.9999 172 13.9999C171.816 13.9999 171.165 14.0717 171 13.9999C170.229 13.6856 170.587 12.6644 171 11.9999C171.477 11.2456 172.174 10.7395 173 10.9999C173.752 11.2334 174.706 12.2815 175 12.9999C175.633 14.5534 173.68 15.8921 172 15.9999Z" fill="white"/>
<path d="M116 52.9999C114.569 52.0648 112.379 53.3454 111 53.9999C109.69 54.6171 107.465 55.2711 106 54.9999C105.388 54.8877 105.422 54.5049 105 53.9999C104.629 53.5511 104.052 52.5984 104 51.9999C103.888 50.8124 104.819 49.8036 106 49.9999C106.81 50.1308 108.069 51.1303 108 51.9999C108.336 51.8503 108.655 51.1028 109 50.9999C111.336 50.308 114.026 51.457 116 52.9999C116.362 53.2337 116.327 53.2524 116 52.9999Z" fill="white"/>
<path d="M120 56.0001C120.156 56.1379 120.963 56.3767 121 56.0001C121.009 55.9082 121.028 56.0828 121 56.0001C120.798 55.3938 120.285 54.5604 120 54.0001C119.78 53.5684 119.257 52.4135 119 52.0001C118.743 51.5776 119.294 51.3951 119 51.0001C118.853 50.8072 118.156 51.193 118 51.0001C117.945 50.9266 117.982 50.0736 118 50.0001C118.239 49.0356 116.946 48.1563 116 48.0001C116.239 47.4214 116.285 46.588 116 46.0001C115.743 45.4765 115.551 45.1746 115 45.0001C115.166 44.5867 115.184 44.3767 115 44.0001C114.789 43.5592 114.193 42.4686 114 42.0001C113.816 41.55 113.688 41.3124 114 41.0001C114.331 40.6602 114.798 40.441 115 40.0001C115.239 39.4857 115.101 38.5512 115 38.0001C114.807 36.8427 114.652 35.9278 114 35.0001C113.504 34.2928 112.743 33.8911 113 33.0001C113.303 33.4226 113.449 32.9542 114 33.0001C114.873 33.0736 115.761 32.8084 116 32.0001C116.267 31.1183 115.726 30.5512 115 30.0001C114.256 29.4398 113.864 28.6602 113 29.0001C110.897 29.8268 109.862 32.9609 110 35.0001C110.147 37.1863 111.175 38.7955 111 41.0001C110.954 41.6155 110.184 42.403 110 43.0001C109.826 43.5788 109.807 44.403 110 45.0001C110.193 45.5788 111.403 45.9542 112 46.0001C111.862 46.5972 111.624 47.5133 112 48.0001C112.358 48.4778 113.421 48.945 114 49.0001C113.807 49.5145 113.67 49.5408 114 50.0001C114.349 50.4686 114.44 51.0368 115 51.0001C115 51.8911 116.366 52.5408 117 53.0001C117.551 53.3951 118.449 53.5959 119 54.0001C119.267 54.193 119.734 54.8072 120 55.0001C120.303 55.2206 119.725 55.7613 120 56.0001Z" fill="white"/>
<path d="M129 62.0001C128.604 61.7192 128.43 62.237 128 62.0001C127.553 61.7543 127.473 61.1756 127 61.0001C125.408 60.4209 122.634 60.3862 121 60.0001C119.83 59.728 119.981 58.7109 119 58.0001C117.993 57.2805 117.015 56.7021 116 56.0001C115.045 55.3419 113.161 54.7982 112 55.0001C110.882 55.1931 110.594 55.9997 110 57.0001C108.753 59.0886 109.634 63.377 112 64.0001C113.161 64.3072 114.501 63.176 115 62.0001C115.37 61.1225 114.791 59.4388 114 59.0001C113.983 58.9298 114.034 59.0615 114 59.0001C114.284 59.7898 113.766 61.6227 113 62.0001C112.191 62.4037 111.576 61.7021 111 61.0001C110.346 60.2015 110.51 58.8776 111 58.0001C111.447 57.2015 112.131 57.1317 113 57.0001C113.895 56.8684 115.286 56.4209 116 57.0001C116.731 57.588 116.879 59.0611 117 60.0001C117.275 62.0359 115.789 65.2103 114 66.0001C111.987 66.8864 108.763 66.2637 107 65.0001C106.2 64.4297 105.413 61.9127 105 61.0001C104.57 60.0611 104.75 59.0004 105 58.0001C105.542 55.8589 107.953 54.4827 110 54.0001C112.34 53.456 114.789 54.2103 117 55.0001C120.957 56.4129 124.481 58.6833 128 61.0001C128.542 61.2721 129.535 61.5613 130 62.0001C130.267 62.2458 129.301 62.2107 129 62.0001Z" fill="white"/>
<path d="M170 51C170 51.896 169.492 51.2902 169 52C168.535 52.6653 167.527 53.3878 167 54C165.955 55.2331 165.239 56.9709 164 58C161.514 60.0581 159.013 61.8555 156 63C152.987 64.1444 149.215 64.9379 146 65C142.847 65.0621 138.995 64.0202 136 63C133.014 61.9797 131.521 60.9251 129 59C122.957 54.3779 118.028 47.5939 117 40C115.841 31.439 118.905 22.8487 124 16C126.626 12.4691 131.074 8.96055 135 6.99995C139.462 4.77321 144.064 3.06845 149 3.99995C153.322 4.81613 156.435 8.3449 159 12C161.082 14.9719 162.536 18.3981 162 22C162.729 22.5766 163.29 24.0596 163 25C162.772 25.7718 161.764 25.0975 161 25C160.851 25.2572 161.167 25.7516 161 26C158.848 29.2558 155.935 31.2217 152 31C150.059 30.8935 147.485 30.2863 146 29C144.63 27.82 143.369 26.792 143 25C142.64 23.2345 143.104 21.5613 144 20C144.887 18.4563 146.27 17.4347 148 17C149.88 16.5209 152.779 16.3942 154 18C154.536 18.7097 155.026 20.1039 155 21C154.974 21.8516 154.58 22.3878 154 23C153.42 23.6121 151.843 24.0354 151 24C150.139 23.9645 149.395 23.7984 149 23C148.631 22.2459 148.359 21.5943 149 21C149.553 20.4765 150.35 19.6007 151 20C150.649 19.2193 149.773 18.7338 149 19C148.13 19.2927 147.404 20.1926 147 21C146.289 22.4016 146.201 23.6515 147 25C147.799 26.3484 149.472 27.7338 151 28C152.73 28.3016 155.586 27.0202 157 26C157.817 25.4056 157.447 25.8427 158 25C157.824 24.3701 157.816 23.6564 158 23C158.307 21.9265 158.885 20.9112 160 21C159.903 20.3257 160.193 19.6476 160 19C158.964 15.5667 157.145 12.6678 154 11C150.838 9.32324 146.408 8.93538 143 9.99995C139.689 11.0379 137.108 13.2409 135 16C132.743 18.9542 131.72 22.3626 131 26C130.271 29.6816 130.412 33.2917 131 37C131.589 40.6816 132.98 44.8594 135 48C136.818 50.8211 138.172 52.2257 141 54C143.802 55.7565 147.689 57.8137 151 58C153.793 58.1596 155.435 57.1178 158 56C157.253 56.1153 157.747 55.9467 157 56C154.251 56.2217 150.697 56.6476 148 56C145.751 55.4588 143.142 54.1469 142 52C141.447 50.962 141.387 51.1 141 50C140.807 49.4677 140.299 48.479 140 48C139.71 47.5386 139.545 47.1508 139 47C138.745 46.929 138.053 46.6806 138 47C137.947 47.3193 138.763 47.8403 139 48C139.264 48.1774 139.754 47.8048 140 48C140.202 48.1508 139.86 48.787 140 49C140.571 49.8782 140.641 51.1749 140 52C139.939 52.0798 140.079 52.0532 140 52C139.912 51.9467 139.991 52.0975 140 52C140.009 51.7604 140.097 51.2306 140 51C139.93 50.8314 139.105 50.1419 139 50C138.772 49.7161 138.29 50.204 138 50C137.42 49.5919 137.518 48.4968 137 48C136.561 47.5919 136.018 47.621 136 47C135.982 46.3878 136.587 45.4258 137 45C138.01 43.9265 139.744 44.4765 141 45C142.265 45.5234 143.253 45.8378 144 47C144.237 47.3637 143.833 48.6096 144 49C144.079 49.1951 144.93 48.7959 145 49C145.062 49.204 144.921 49.8048 145 50C145.167 49.7161 144.877 49.3105 145 49C145.132 48.6717 145.851 48.3282 146 48C146.29 47.3612 146.596 46.5766 147 46C147.58 45.1838 148.13 44.4968 149 44C149.993 43.4233 151.876 42.7782 153 43C154.124 43.2217 154.394 44.033 155 45C155.632 46.0024 156.176 47.8112 156 49C155.851 50.0734 154.887 50.379 154 51C153.157 51.5943 151.975 52.3548 151 52C150.043 51.6451 149.07 51.0557 149 50C148.93 48.9797 149.92 46.8669 151 47C151.791 47.0975 153.246 48.2459 153 49C153.474 49.0798 153.64 49.3371 154 49C154.457 48.5653 154.149 47.6032 154 47C153.701 45.7846 153.16 44.8491 152 45C150.902 45.1419 149.571 46.0773 149 47C148.35 48.0468 147.877 49.7757 148 51C148.114 52.1355 148.253 52.1483 149 53C149.808 53.9226 151.823 54.6895 153 55C154.195 55.3105 154.77 55.0354 156 55C157.203 54.9645 157.832 55.2927 159 55C160.95 54.5032 163.656 53.4992 165 52C165.685 51.2281 165.526 50.9137 166 50C166.457 49.1217 168.016 48.4499 169 49C168.939 48.9645 169.062 49.0354 169 49C169.562 49.408 169.991 50.308 170 51Z" fill="white"/>
<path d="M151 41.9999C150.631 42.6534 149.765 42.1461 149 41.9999C148.327 41.871 147.12 41.6276 147 40.9999C146.936 40.6732 147.853 40.3095 148 39.9999C148.166 39.6474 147.945 39.3955 148 38.9999C148.055 38.6216 147.341 37.9054 147 37.9999C146.585 38.1117 147.203 38.6732 147 38.9999C146.558 39.7136 146.019 41.1831 146 41.9999C146.498 42.1633 147.166 42.5098 147 42.9999C146.834 43.4815 145.498 44.1031 145 43.9999C144.991 43.9312 145.065 44.0171 145 43.9999C145.019 44.2579 145.019 44.742 145 44.9999C144.963 45.5073 145.148 46.5184 145 46.9999C144.963 47.1203 145.111 46.9483 145 46.9999C144.899 47.0429 144.092 47.0601 144 46.9999C143.65 46.785 144.102 46.3525 144 45.9999C143.917 45.699 144.092 45.3009 144 44.9999C143.954 44.8366 143.046 44.1633 143 43.9999C142.973 43.8968 143.092 44.0687 143 43.9999C142.908 43.9312 143.111 43.9999 143 43.9999C142.871 43.9999 143.12 44.0257 143 43.9999C142.521 43.8882 141.761 43.3869 142 42.9999C142.304 42.5098 143.456 41.9741 144 41.9999C144 40.8305 144.401 40.0318 145 38.9999C145.544 38.0713 145.949 36.4471 147 35.9999C147.968 35.5872 149.189 36.2949 150 36.9999C150.36 37.3095 150.936 37.5528 151 37.9999C151.074 38.4987 151.314 38.6044 151 38.9999C150.668 39.4213 150.102 40.4582 150 40.9999C149.779 40.8624 149.954 41.2321 150 40.9999C149.88 41.1547 150.157 41.0945 150 40.9999C149.954 41.0171 150.037 40.9569 150 40.9999C150.166 40.8968 151.111 40.7936 151 40.9999" fill="white"/>
<path d="M38 18C37.6274 22.36 35.7703 25.9551 32 26C29.5249 26.0269 27.479 24.256 27 23C26.6895 22.1836 26.8847 22.0359 27 22C26.9113 21.8923 27.071 21.9821 27 22C27.5323 22.6818 28.8645 23 30 23C30.8073 23 32.5653 22.5478 33 20C33.4702 17.2369 31.6057 17.0269 30 17C28.4298 16.9731 23.825 16.2094 23 21C22.1839 25.7906 27 31 27 31L21 36C21 36 21.3524 23.4725 22 18C22.6387 12.5186 25.5467 9 30 9C35.3671 9 38.3992 13.2722 38 18ZM51 18C50.6097 7.16275 38.7002 3 31 3C23.2998 3 8.25971 6.14783 7 22C6.57418 31.2045 7 60 7 60C7 60 5.5081 60 4 60C2.17254 60 1.29275 59.9462 1 60C0.449987 60.0987 -0.0177418 61.4438 5.26488e-07 62C0.0266141 62.7805 0.485472 62.9641 1 63C2.06454 63.0718 10.3273 63 14 63C17.6727 63 25.9976 63 27 63C27.7097 63 27.9911 62.6728 28 62C28.0089 61.2823 27.8073 60 27 60C26.1927 60 20.9911 60.5921 21 60C21 59.1836 21 42.7446 21 42C21 41.2554 30.4322 31.8565 31 32C31.8161 32.2063 34.0612 33 38 33C41.9388 33 51.4347 30.1381 51 18Z" fill="white"/>
<path d="M316 43H313C312.307 43 311 43.3333 311 44V47H310C309.307 47 308 47.3333 308 48V58H300V44C300 43.3419 299.702 43 299 43H297C296.307 43 296 43.3333 296 44V57C296 57.6581 296.298 58 297 58H300V61C300 61.6581 300.298 62 301 62H314C314.693 62 316 61.6667 316 61V58H319C319.693 58 320 57.6581 320 57V47H323C323.693 47 324 46.6667 324 46V43H316Z" fill="white"/>
<path d="M340 35H319V32C319 31.3176 318.691 30 318 30H316V15H336V29C336 29.6824 336.317 30 337 30H340V35ZM347 15H354C354.683 15 355 14.6913 355 14V11H358C358.683 11 359 10.6913 359 10V8C359 7.3176 358.683 7 358 7H341C340.317 7 340 7.30873 340 8V11H331V8C331 7.3176 330.691 7 330 7H313C312.317 7 312 7.30873 312 8V11H309C308.317 11 308 11.3087 308 12V15H305C304.317 15 304 15.3087 304 16V29C304 29.6824 304.317 30 305 30H308V33C308 33.6824 308.309 35 309 35H316V37C316 37.6824 316.309 39 317 39H323V43H336V58H333C332.317 58 332 58.3087 332 59V61C332 61.6824 332.309 62 333 62H358C358.683 62 359 61.6913 359 61V59C359 58.3176 358.683 58 358 58H355V55C355 54.3176 354.691 54 354 54H347V15Z" fill="white"/>
<path d="M102 31C101.839 38.0157 98.7115 44.9933 94 52C89.9603 58.0134 85.6399 63.8166 81 66C60.5774 50.9128 58.2924 35.6689 59 28C59.8957 18.2192 65.9711 10.3311 75 6C77.0333 5.02461 78.8983 3.75168 80 3C80.215 2.84787 80.8567 3.11633 81 3C81.7614 3.50112 82.2981 4.16779 84 5C99.2005 12.481 102.188 23.1074 102 31ZM103 23C102.319 20.3423 101.46 18.3356 100 16C99.2387 14.774 97.9764 14.1275 97 13C96.0058 11.8456 95.2093 10.038 94 9C92.7639 7.92617 91.478 6.95749 90 6C88.4862 5.01566 85.7467 3.85906 84 3C81.6174 1.82774 81 1 81 1L80 0V1C80 1 79.6897 0.543624 79 1C78.3014 1.46532 76.3558 2.87248 74 4C71.6622 5.11857 69.9617 6.35347 68 8C66.0473 9.63758 64.4511 11.9508 63 14C61.531 16.0671 59.8868 17.6197 59 20C58.0953 22.434 57.2329 25.387 57 28C56.7134 31.1588 57.3014 34.7517 58 38C58.7345 41.4004 60.2265 44.689 62 48C63.8721 51.4899 66.0352 54.7338 69 58C70.5407 59.7002 72.1817 61.3893 74 63C75.8721 64.6644 77.8503 66.434 80 68H81C86.0788 65.7897 91.6199 59.5145 96 53C97.1286 51.3266 98.0864 50.7718 99 49C99.9495 47.1656 101.319 44.8881 102 43C103.469 38.9374 103.91 34.8568 104 31C104.063 28.2886 103.636 25.4966 103 23Z" fill="white"/>
<path d="M95.9998 16.9999C95.9008 16.7936 96.1259 17.1883 95.9998 16.9999C95.9998 16.982 95.9998 17.0179 95.9998 16.9999C96.2971 17.6906 96.4952 18.363 95.9998 18.9999C95.9188 19.1076 96.1079 18.9192 95.9998 18.9999C95.5135 19.3767 94.6033 19.1434 93.9998 18.9999C93.4595 18.8743 93.162 19.5291 92.9998 18.9999C92.9188 18.7308 92.9368 19.278 92.9998 18.9999C93.0269 18.8654 92.9278 18.1165 92.9998 17.9999C93.0089 17.9999 93.0179 17.964 92.9998 17.9999C92.9998 17.9999 91.2424 14.9059 88.9998 13.9999C89.0539 13.3899 89.0362 12.0046 89.9998 10.9999C90.0179 10.982 90.9278 11.9282 90.9998 11.9999C91.3241 12.287 91.6846 11.7039 91.9998 11.9999C92.6483 12.6278 93.4144 13.3182 93.9998 13.9999C94.6123 14.7175 95.4685 16.2195 95.9998 16.9999ZM97.9998 18.9999C97.8918 19.1883 97.288 19.7129 96.9998 19.9999C96.4685 20.5202 95.7203 20.9371 94.9998 20.9999C94.8017 20.5783 94.9998 19.9999 94.9998 19.9999C97.0353 19.7488 97.0539 19.6637 96.9998 18.9999C97.252 19.4484 97.7747 18.5245 97.9998 18.9999ZM97.9998 19.9999C97.8918 20.1793 98.3511 20.677 97.9998 20.9999C97.4595 21.4843 96.6663 21.9102 95.9998 21.9999C95.9278 21.7577 96.0809 22.2152 95.9998 21.9999C96.7924 21.8833 97.4144 20.583 97.9998 19.9999C98.171 19.8295 97.8828 20.1614 97.9998 19.9999C98.0809 20.1883 97.9278 19.8115 97.9998 19.9999ZM98.9998 21.9999C99.153 23.9733 98.9809 27.5062 95.9998 29.9999C95.9998 29.9999 99.4412 34.7435 98.9998 39.9999C98.2793 42.2514 97.0626 45.0534 95.9998 46.9999C95.9998 46.9461 96.0089 47.0537 95.9998 46.9999C95.8738 46.1926 95.5853 44.5381 94.9998 43.9999C94.9998 43.9999 95.0089 44.0089 94.9998 43.9999C95.6393 43.3361 97.4231 41.8481 96.9998 37.9999C96.9638 37.7039 97.0629 37.2959 96.9998 36.9999C96.9008 36.5155 96.162 35.4574 95.9998 34.9999C95.8107 34.4707 95.3151 34.4664 94.9998 33.9999C94.4865 33.2464 93.9275 32.1345 92.9998 31.9999C92.7657 31.964 92.207 31.8833 91.9998 31.9999C91.8918 32.0627 91.9638 31.8743 91.9998 31.9999C92.0359 32.1255 91.9458 32.8833 91.9998 32.9999C92.1169 33.2242 92.9908 33.7488 92.9998 33.9999C93.0179 34.4215 92.2971 34.7039 91.9998 34.9999C91.5225 35.4843 90.6393 35.5022 89.9998 34.9999C89.3694 34.5066 89.0359 33.6458 88.9998 32.9999C88.9188 31.5826 89.9908 30.0089 89.9998 29.9999H90.9998H89.9998C89.9998 29.9999 88.8738 27.5517 88.9998 25.9999C89.0539 25.3989 89.3784 25.4215 89.9998 24.9999C90.8915 24.3899 91.6486 24.8026 91.9998 24.9999C92.5672 25.3318 93.0449 25.4258 92.9998 25.9999C92.9638 26.4305 92.4682 26.8026 91.9998 26.9999C91.9008 27.0717 92.1259 27.9461 91.9998 27.9999C92.8735 27.9192 93.2163 27.4036 93.9998 26.9999C94.5492 26.7218 95.6756 26.5291 95.9998 25.9999C96.279 25.5514 95.9638 24.5291 95.9998 23.9999C96.0269 23.5514 96.0809 23.4394 95.9998 22.9999C96.3331 22.9461 96.6936 23.1345 96.9998 22.9999C97.4141 22.8205 97.6486 22.3228 97.9998 21.9999C98.207 21.8115 98.8647 21.1703 98.9998 20.9999C99.0359 21.1076 98.9638 21.8923 98.9998 21.9999ZM97.9998 30.9999C97.7567 30.7667 97.9098 30.3587 97.9998 29.9999C98.0899 29.6411 98.7116 29.8833 98.9998 29.9999C99.27 30.1165 99.0089 30.6411 98.9998 30.9999C98.9908 31.565 98.3871 31.3677 97.9998 30.9999ZM94.9998 47.9999C94.9728 48.0537 95.0269 47.9461 94.9998 47.9999C94.9728 48.0358 95.0269 47.9551 94.9998 47.9999C93.4508 50.4667 91.666 53.17 89.9998 54.9999C89.8287 54.8295 89.252 54.3767 88.9998 53.9999C88.6216 53.4348 88.171 52.1929 87.9998 50.9999C88.7294 50.9282 89.4415 50.3318 89.9998 49.9999C90.5132 49.6949 90.6576 49.5022 90.9998 48.9999C91.5762 48.1388 91.9998 48.0358 91.9998 47.9999C91.9998 47.9999 91.0359 47.8252 90.9998 46.9999C90.9728 46.4797 91.4234 45.5202 91.9998 44.9999C93.0806 44.0312 93.7116 44.7398 93.9998 44.9999C94.8735 45.7803 95.7564 46.6993 94.9998 47.9999ZM80.9998 61.9999C79.1986 60.9235 76.9989 58.7537 73.9998 55.9999C74.3871 55.5514 74.7747 55.565 74.9998 54.9999C75.0539 54.8654 74.9548 54.1345 74.9998 53.9999C75.7924 54.0179 77.6495 55.0976 80.9998 60.9999C80.9998 60.9999 83.5597 55.6414 87.9998 53.9999C87.9548 53.9282 88.0449 54.0717 87.9998 53.9999C88.279 54.4036 88.8197 54.8205 88.9998 54.9999C84.911 59.3773 80.9998 61.9999 80.9998 61.9999ZM69.9998 50.9999C69.5225 50.2733 67.5405 49.0361 67.9998 46.9999C68.0088 46.9551 67.9818 46.0448 67.9998 45.9999C67.9998 45.9909 67.9998 46.0179 67.9998 45.9999C68.0179 45.5514 68.6576 45.269 68.9998 44.9999C69.4051 44.677 69.4865 45.0627 69.9998 44.9999C70.5672 44.9371 71.5856 44.6052 71.9998 44.9999C71.9188 44.9282 72.0899 45.0627 71.9998 44.9999C72.5492 45.5202 73.261 46.4707 72.9998 46.9999C72.8017 47.3946 72.3691 47.973 71.9998 47.9999C71.7116 48.0268 71.0179 48.0089 70.9998 47.9999V46.9999V47.9999C70.9998 47.9999 70.6756 48.1926 70.9998 48.9999C71.189 49.4753 71.7297 49.6321 71.9998 49.9999C72.3421 50.4753 72.5495 50.7308 72.9998 50.9999C73.5943 51.3677 74.2613 52.0089 74.9998 51.9999C75.0269 52.2959 75.0449 52.5155 74.9998 52.9999C74.8828 54.1212 74.6663 55.2285 73.9998 55.9999C72.7029 54.78 71.2607 52.5786 69.9998 50.9999ZM62.9998 30.9999C62.9998 30.5604 63.6126 30.269 63.9998 29.9999C63.9458 29.8923 64.0989 29.9371 63.9998 29.9999C64.234 30.4394 64.7657 30.8205 64.9998 30.9999C65.0899 30.9371 65.0899 31.0627 64.9998 30.9999C64.7477 31.1614 64.279 31.6321 63.9998 31.9999C63.9368 32.0806 64.0539 32.0806 63.9998 31.9999C63.8377 31.7936 62.9998 31.4574 62.9998 30.9999ZM63.9998 41.9999C62.2796 33.6129 65.9998 30.9999 65.9998 30.9999C63.433 28.578 63.0359 24.3275 62.9998 22.9999C63.1259 23.1255 62.8287 23.8743 62.9998 23.9999C63.4141 24.3139 64.4775 23.8474 64.9998 23.9999C65.4682 24.1345 65.4685 24.9999 65.9998 24.9999C65.8918 24.9999 66.1079 24.9999 65.9998 24.9999C65.9368 24.9999 66.9728 25.9012 66.9998 25.9999C67.0989 26.3856 66.8107 26.6591 66.9998 26.9999C67.2971 27.565 67.5585 28.5424 67.9998 28.9999C68.4592 29.4664 69.4234 29.686 69.9998 29.9999C70.5402 30.2959 71.3874 30.9102 71.9998 30.9999C72.6393 31.0896 73.3604 30.9909 73.9998 30.9999C74.9095 31.0179 75.5225 31.2375 75.9998 31.9999C76.3961 32.6278 76.0088 33.2554 75.9998 33.9999C75.9998 34.5381 76.2697 35.8564 74.9998 35.9999C74.2253 36.0896 73.3601 36.3946 72.9998 35.9999C72.3874 35.3361 72.9278 33.8252 72.9998 32.9999C72.9998 33.0268 72.0629 33.0268 71.9998 32.9999C71.7837 32.9102 71.225 32.0448 70.9998 31.9999C70.4324 31.8743 69.5492 32.8205 68.9998 32.9999C68.2433 33.2511 67.5222 33.3989 66.9998 33.9999C64.2709 37.1574 67.0452 43.17 67.9998 44.9999C67.6846 45.3587 67.1169 45.5066 66.9998 45.9999C66.8557 46.6188 66.8197 47.1926 66.9998 47.9999C67.0359 48.1793 67.9458 47.8205 67.9998 47.9999C66.6759 45.9547 64.9545 44.5474 63.9998 41.9999ZM62.9998 21.9999C62.8467 21.8474 63.1079 22.1345 62.9998 21.9999C63.3601 22.3408 64.5135 22.7846 64.9998 22.9999C65.5132 23.2331 65.3784 22.9192 65.9998 22.9999C65.9728 23.1793 66.0179 23.8026 65.9998 23.9999C64.8741 24.0627 63.7564 23.5471 62.9998 22.9999C62.6126 22.7129 63.1259 22.1793 62.9998 21.9999C63.0809 21.7308 62.9008 22.26 62.9998 21.9999ZM63.9998 18.9999C63.8467 20.2378 64.5675 20.3361 64.9998 20.9999C65.3781 21.5919 66.1983 21.9371 66.9998 21.9999C66.9638 22.1165 67.0359 22.8385 66.9998 22.9999C65.9281 22.8743 64.6573 22.6099 63.9998 21.9999C63.6936 21.7129 63.1079 21.1883 62.9998 20.9999C63.3331 20.1567 63.5856 19.7713 63.9998 18.9999ZM64.9998 18.9999C64.9368 19.3856 65.0179 18.6411 64.9998 18.9999C65.0989 18.3899 65.6756 17.4753 65.9998 16.9999C66.3601 16.4796 66.6036 15.4933 66.9998 14.9999C67.7654 14.0491 69.1172 13.8431 69.9998 12.9999C70.8104 12.2285 71.1082 10.6816 71.9998 9.99991C72.0899 10.1434 71.9098 10.7577 71.9998 10.9999C72.216 11.6188 73.3511 12.3046 72.9998 13.9999C72.4054 14.2511 71.6033 15.4258 70.9998 15.9999C69.757 17.184 69.1079 17.9504 68.9998 18.9999C68.9728 18.9551 68.9998 19.0358 68.9998 18.9999C68.9728 18.8923 69.0629 19.0896 68.9998 18.9999C69.0449 19.2242 69.0359 19.7757 68.9998 19.9999C68.9368 20.4394 69.3331 20.6949 68.9998 20.9999C68.5856 21.3856 67.5582 22.0627 66.9998 21.9999C66.4505 21.9371 65.3151 21.4843 64.9998 20.9999C64.6486 20.4617 64.9728 19.6278 64.9998 18.9999ZM73.9998 8.99991C74.1439 9.26004 74.8467 9.55141 74.9998 9.99991C75.288 10.8521 75.3151 12.3225 74.9998 13.9999C74.5225 13.982 73.5582 13.8564 72.9998 13.9999C73.3871 11.7484 73.3961 10.6099 72.9998 9.99991C73.4592 9.65905 73.5495 9.30489 73.9998 8.99991ZM80.9998 4.99991C80.9998 4.99991 83.3163 6.59594 86.9998 8.99991C86.5856 9.31386 86.27 9.45274 85.9998 9.99991C85.9728 10.0448 86.0179 9.94609 85.9998 9.99991C84.6129 9.08497 80.9998 6.99991 80.9998 6.99991C79.0004 7.81618 75.9905 9.44377 74.9998 9.99991C74.9458 9.80257 75.0719 10.1973 74.9998 9.99991C74.8197 9.49759 75.162 9.28695 74.9998 8.99991C78.5934 6.68565 80.9998 4.99991 80.9998 4.99991ZM85.9998 14.9999C85.9908 14.9551 85.9638 14.0448 85.9998 13.9999C86.0269 13.964 86.9548 14.0268 86.9998 13.9999C86.7567 13.9371 87.216 13.8743 86.9998 13.9999C87.0899 14.0268 87.9458 13.9192 87.9998 13.9999C88.0359 14.0627 88.0088 14.9551 87.9998 14.9999C87.9548 15.1524 87.1349 14.9909 86.9998 14.9999C86.8467 15.0179 87.1529 15.0358 86.9998 14.9999C86.9098 14.982 86.0269 15.0896 85.9998 14.9999ZM82.9998 10.9999L80.9998 11.9999C80.8467 12.1076 81.1529 12.1076 80.9998 11.9999C80.4685 11.6232 79.7203 11.4305 78.9998 10.9999C78.8287 10.8923 78.8197 10.0717 78.9998 9.99991C79.6123 9.73081 80.4234 9.32283 80.9998 8.99991C80.7657 8.82948 81.252 8.85639 80.9998 8.99991C81.5132 9.39459 82.4595 9.69493 82.9998 9.99991C83.1439 10.0806 83.1349 10.9012 82.9998 10.9999ZM82.9998 20.9999C82.9998 23.0271 82.4772 24.2913 81.9998 24.9999C81.6396 25.5291 81.207 25.8474 80.9998 25.9999C80.1082 25.1926 80.3151 24.2557 79.9998 22.9999C79.8287 22.3272 80.0088 21.3139 79.9998 20.9999C80.189 20.9192 80.8377 21.1165 80.9998 20.9999C81.3511 20.7667 80.7387 20.3497 80.9998 19.9999C81.243 19.6591 80.8467 19.4305 80.9998 18.9999C80.9638 18.9282 81.0269 19.0806 80.9998 18.9999C81.189 19.4574 81.6936 19.7129 81.9998 19.9999C82.3151 20.2959 82.5765 20.8743 82.9998 20.9999ZM85.9998 13.9999C85.2613 14.7534 84.9368 16.4438 84.9998 16.9999C84.9728 16.9192 85.0179 17.0896 84.9998 16.9999C85.0809 17.2152 84.8467 17.8205 84.9998 17.9999C85.7654 18.1703 85.9728 18.4079 85.9998 18.9999C86.0539 19.9328 86.2427 19.9371 84.9998 19.9999C84.2073 20.0448 83.4502 19.4305 82.9998 18.9999C82.4054 18.4348 82.162 18.7893 81.9998 17.9999C81.8017 17.076 81.7026 15.9059 81.9998 14.9999C82.3421 13.9414 83.0812 12.6727 83.9998 11.9999C84.9725 11.2913 85.5495 11.1345 85.9998 10.9999C85.9368 11.2331 86.0449 11.7488 85.9998 11.9999C85.8377 12.9597 85.9818 13.5694 85.9998 13.9999ZM75.9998 11.9999C75.9998 11.9192 76.0088 12.0806 75.9998 11.9999C76.5672 11.9371 77.2706 11.8607 78.9998 12.9999C79.6753 13.4394 80.5135 13.3541 80.9998 13.9999C81.4682 14.6278 80.9638 16.2016 80.9998 16.9999C81.0449 17.879 81.3241 18.1747 80.9998 18.9999C80.7297 19.6816 80.6303 19.5783 79.9998 19.9999C78.865 20.7624 77.7834 20.4394 76.9998 19.9999C76.2523 19.5873 75.9728 19.6727 75.9998 18.9999C76.0269 18.3541 75.6216 18.2511 75.9998 17.9999C76.7564 17.4707 78.9908 17.9999 78.9998 17.9999C79.0629 17.5424 79.18 16.4305 78.9998 15.9999C78.7297 15.3541 77.6123 15.3139 76.9998 14.9999C76.8647 14.9282 76.0179 13.9192 75.9998 13.9999C76.1349 13.2464 76.0629 12.7265 75.9998 11.9999ZM75.9998 27.9999C75.9548 28.1793 76.0629 27.8295 75.9998 27.9999C76.3331 28.0179 77.2703 27.8115 77.9998 27.9999C78.8644 28.2242 80.4955 29.0401 80.9998 29.9999C80.9188 30.1973 80.4321 30.5694 79.9998 30.9999C79.2253 31.7713 78.3868 31.9371 76.9998 31.9999C76.9188 31.8205 76.0989 31.1614 75.9998 30.9999C75.5495 30.2733 75.6843 30.1793 74.9998 29.9999C75.7654 29.5783 75.7026 28.7534 75.9998 27.9999ZM72.9998 26.9999C72.0001 26.5066 71.8107 25.7803 71.9998 24.9999C72.189 24.1926 72.2253 23.9999 72.9998 23.9999C73.9995 23.9999 75.7026 24.771 75.9998 25.9999C76.27 27.0943 75.5219 28.2016 73.9998 28.9999C72.757 29.6458 71.2877 29.6906 69.9998 28.9999C69.7927 28.8833 70.171 29.1255 69.9998 28.9999C69.8467 28.982 70.1349 29.0268 69.9998 28.9999C70.6033 29.0717 71.5405 29.1165 71.9998 28.9999C72.6123 28.8474 72.6666 28.4664 72.9998 27.9999V26.9999ZM82.9998 44.9999C82.8918 45.3946 83.0359 45.5963 82.9998 45.9999C82.9998 46.0448 83.0088 45.964 82.9998 45.9999C81.6309 45.7667 80.7744 45.8833 79.9998 45.9999C79.9728 45.6321 80.0629 45.3856 79.9998 44.9999C79.9908 44.9371 80.0088 45.0627 79.9998 44.9999C80.7474 44.9102 81.3337 44.8205 82.9998 44.9999ZM79.9998 36.9999C80.0179 36.7039 79.7927 35.6996 79.9998 34.9999C80.3691 33.762 80.0632 32.7713 80.9998 31.9999C81.207 32.1524 81.6666 32.5424 81.9998 32.9999C82.4862 33.6727 82.9008 35.1521 82.9998 36.9999C82.5045 37.2421 82.3871 37.6142 81.9998 37.9999C81.6126 38.3856 81.18 38.686 80.9998 38.9999C80.9278 38.8743 81.0989 38.1434 80.9998 37.9999C80.7657 37.659 81.288 37.26 80.9998 36.9999C80.6666 36.7039 80.3871 37.1883 79.9998 36.9999ZM76.9998 43.9999C75.3067 44.1614 73.3601 43.4082 72.9998 41.9999C72.6486 40.6275 73.7843 38.9418 75.9998 37.9999C77.4679 37.381 78.9101 36.5245 79.9998 36.9999C80.8284 37.3587 80.6756 38.5424 80.9998 38.9999C81.3601 39.5112 80.9998 39.9999 80.9998 39.9999V40.9999C80.9728 41.0627 81.0269 41.0627 80.9998 40.9999V39.9999C80.9998 39.9999 81.2703 38.7265 81.9998 37.9999C82.9815 37.0222 85.3247 36.8743 86.9998 36.9999C89.1794 37.1703 89.9458 38.484 89.9998 39.9999C90.0359 41.1391 89.657 42.7577 87.9998 42.9999C87.3604 43.0986 86.4952 43.3318 85.9998 42.9999C85.6126 42.7308 85.0179 42.0358 84.9998 41.9999C84.9188 41.8743 85.1529 41.9551 84.9998 41.9999C84.9278 42.0179 85.0539 41.9461 84.9998 41.9999C84.5495 42.583 84.252 43.3451 83.9998 43.9999C83.0902 43.8923 82.2517 43.9102 80.9998 43.9999C80.3514 44.0448 80.3061 43.964 79.9998 43.9999C79.7567 42.9773 79.1439 42.3497 78.9998 41.9999C78.9368 41.8295 79.171 41.9551 78.9998 41.9999C78.8287 42.0448 77.9818 41.8205 77.9998 41.9999C78.0449 42.6099 78.684 43.8385 76.9998 43.9999ZM80.9998 48.9999C79.4598 51.6371 77.1346 53.7308 75.9998 53.9999C76.0629 53.7398 75.9728 53.269 75.9998 52.9999C76.0539 52.4886 76.0359 51.3228 75.9998 50.9999C76.4051 50.9461 76.5585 51.1434 76.9998 50.9999C78.1977 50.5963 79.4955 50.0763 79.9998 48.9999C80.2971 48.363 79.9638 48.8521 79.9998 47.9999C79.9998 47.8564 79.9998 47.1434 79.9998 46.9999C80.7113 46.8923 81.7119 46.7398 82.9998 46.9999C82.9998 47.3408 82.9458 47.668 82.9998 47.9999C83.1079 48.574 83.7477 48.5155 83.9998 48.9999C84.3691 49.6996 84.4054 49.6142 84.9998 49.9999C85.3151 50.1973 85.6486 50.9012 85.9998 50.9999C86.279 51.0806 86.7026 50.9909 86.9998 50.9999C87.0719 51.5471 87.8017 52.4976 87.9998 52.9999C87.8557 52.7398 88.1079 53.278 87.9998 52.9999C84.4063 52.8385 80.9998 48.9999 80.9998 48.9999ZM81.9998 55.9999C82.1349 56.3139 82.0449 56.668 81.9998 56.9999C81.9728 57.1524 82.0449 57.8564 81.9998 57.9999C81.9638 58.1345 82.0629 57.8833 81.9998 57.9999C81.9458 58.1165 82.1079 57.9102 81.9998 57.9999C81.9008 58.0806 81.0989 58.9102 80.9998 58.9999C80.9008 59.0806 81.0179 58.8833 80.9998 58.9999C80.9818 59.1076 81.1169 58.964 80.9998 58.9999C80.8557 59.0358 81.0629 59.0986 80.9998 58.9999C80.9188 58.8654 81.0809 59.1255 80.9998 58.9999C80.8467 58.7308 81.1349 58.278 80.9998 57.9999C80.8738 57.7398 80.9548 57.2959 80.9998 56.9999C81.0449 56.7218 80.8287 56.2062 80.9998 55.9999C81.1439 55.8295 81.1259 55.2331 80.9998 54.9999C80.7477 54.9192 81.252 54.9461 80.9998 54.9999C80.7387 55.0537 80.27 56.0448 79.9998 55.9999C79.7657 55.9551 79.189 55.1345 78.9998 54.9999C78.6126 54.7129 78.27 54.4036 77.9998 53.9999C77.9638 54.0179 77.9818 53.973 77.9998 53.9999C78.234 53.8205 78.7297 54.1255 78.9998 53.9999C79.234 53.8923 79.7477 52.9909 79.9998 52.9999C80.261 53.0089 79.7927 53.8474 79.9998 53.9999C80.3421 54.269 80.5585 53.8833 80.9998 53.9999C81.0629 53.686 81.1349 54.269 80.9998 53.9999C80.8738 53.7488 81.0269 53.287 80.9998 52.9999C80.9728 52.7398 80.8467 52.2152 80.9998 51.9999C81.2971 51.5873 80.7657 51.4664 80.9998 50.9999C80.9818 50.9371 81.0359 50.9371 80.9998 50.9999C81.0179 51.0806 81.9548 50.9282 81.9998 50.9999C81.8828 50.8923 82.0899 51.1345 81.9998 50.9999C82.1259 51.1165 81.9188 51.8474 81.9998 51.9999C82.162 52.2959 82.0449 52.659 81.9998 52.9999C81.9818 53.1793 82.0809 52.8385 81.9998 52.9999C81.9188 53.1703 82.0899 53.8385 81.9998 53.9999C81.9188 54.1434 82.0088 53.8295 81.9998 53.9999C81.9728 54.0089 81.9998 54.0268 81.9998 53.9999C81.9638 54.0089 82.0359 53.9999 81.9998 53.9999C81.9278 54.0448 82.0809 53.964 81.9998 53.9999C82.162 53.9012 82.8647 54.1345 82.9998 53.9999C82.8107 54.0179 83.1349 53.8564 82.9998 53.9999C83.198 53.982 83.8197 53.9102 83.9998 53.9999C83.8107 53.8923 84.189 54.0986 83.9998 53.9999H84.9998C84.9458 53.9282 85.0809 54.0448 84.9998 53.9999C85.1259 54.1703 85.1079 54.8743 84.9998 54.9999C84.7837 55.269 84.3331 55.8743 83.9998 55.9999C83.3604 56.2421 82.5402 55.4125 81.9998 54.9999C81.9998 55.287 81.9008 55.7488 81.9998 55.9999ZM87.9998 27.9999C88.1439 28.3856 88.7297 28.5963 88.9998 28.9999C89.27 29.4036 89.8107 29.8026 89.9998 29.9999C89.7116 30.3318 89.27 31.2016 88.9998 31.9999C88.7116 32.0268 87.8284 32.1793 86.9998 31.9999C85.6129 31.686 83.8104 30.2019 82.9998 28.9999C83.4141 28.5245 85.0998 26.973 87.9998 26.9999C88.0269 27.0806 87.9638 27.9192 87.9998 27.9999ZM88.9998 20.9999C93.3229 20.8564 95.279 21.8112 94.9998 23.9999C94.8467 25.2378 93.9275 26.6142 92.9998 26.9999C93.0719 26.8295 92.9818 26.1883 92.9998 25.9999C93.0359 25.5873 93.225 25.4036 92.9998 24.9999C92.7747 24.6052 92.3871 24.2242 91.9998 23.9999C91.6126 23.7757 91.4321 23.982 90.9998 23.9999C90.5135 24.0179 89.4592 23.686 88.9998 23.9999C88.2163 24.5381 88.0629 25.1926 87.9998 25.9999C87.9818 26.1614 87.9908 26.8295 87.9998 26.9999C87.2343 26.9999 86.6753 26.8205 85.9998 26.9999C85.3514 27.1703 84.5312 27.677 83.9998 27.9999C83.0812 28.565 83.0179 28.973 82.9998 28.9999C83.5042 29.8072 84.2523 30.5155 84.9998 30.9999C85.5943 31.3856 86.2793 31.8385 86.9998 31.9999C87.5582 32.1255 87.6216 32.9999 87.9998 32.9999C88.1259 32.9999 87.9008 32.0089 87.9998 31.9999C87.9728 32.1973 87.9908 32.8026 87.9998 32.9999C88.0449 33.8431 89.2163 34.3899 89.9998 34.9999C90.3511 35.269 90.5495 35.9999 90.9998 35.9999C90.9008 36.0268 91.0989 35.9999 90.9998 35.9999C91.5042 35.9282 92.6306 35.3767 92.9998 34.9999C93.3331 34.668 92.9278 34.4484 92.9998 33.9999C94.4048 35.9733 92.9998 38.9999 92.9998 38.9999C95.0803 40.6504 93.3331 43.4169 92.9998 43.9999C92.9188 43.982 93.0809 43.9999 92.9998 43.9999C92.3784 43.964 91.5132 43.5424 90.9998 43.9999C90.2613 44.6637 89.9728 45.2733 89.9998 45.9999C90.0359 46.87 90.7026 47.7308 90.9998 47.9999C90.9368 48.26 91.3511 48.4886 90.9998 48.9999C90.3424 49.9597 89.3328 49.9461 87.9998 49.9999C86.757 50.0537 84.6573 49.2557 83.9998 47.9999C83.2703 46.6006 83.4147 45.2962 84.9998 42.9999C85.1349 43.1434 85.7837 42.8474 85.9998 42.9999C86.279 43.1883 86.6756 43.9192 86.9998 43.9999C87.3961 44.0986 87.5675 44.0627 87.9998 43.9999C88.8825 43.8654 89.5135 43.6816 89.9998 42.9999C90.4321 42.3899 91.0269 40.8341 90.9998 39.9999C90.9818 39.5245 90.171 39.4484 89.9998 38.9999C89.8197 38.5335 90.3151 38.3677 89.9998 37.9999C89.2883 37.1747 88.1617 36.0896 86.9998 35.9999C86.1172 35.9282 84.7384 35.7667 83.9998 35.9999C83.9368 35.2106 84.243 34.6727 83.9998 33.9999C83.7747 33.363 83.3691 32.5022 82.9998 31.9999C82.3604 31.1298 81.0269 31.0179 80.9998 30.9999C80.3334 31.4933 80.4412 32.3003 79.9998 32.9999C79.6486 33.5561 79.189 34.3361 78.9998 34.9999C78.8197 35.6099 79.0359 35.6321 78.9998 35.9999C77.8921 35.7129 76.3778 36.4079 74.9998 36.9999C74.4144 37.2511 74.4231 37.6232 73.9998 37.9999C73.6126 38.3587 73.225 38.5514 72.9998 38.9999C72.7927 39.4215 72.0449 40.5245 71.9998 40.9999C71.9638 41.4484 72.8828 41.5424 72.9998 41.9999C73.225 42.9059 73.3064 43.4258 73.9998 43.9999C74.3601 44.2959 74.5675 44.8564 74.9998 44.9999C75.4502 45.1524 76.5315 45.0448 76.9998 44.9999C77.5312 44.9461 77.6396 45.2511 77.9998 44.9999C78.3061 44.7846 78.8287 44.3497 78.9998 43.9999C78.9728 44.0717 79.0359 43.9282 78.9998 43.9999C79.4502 45.5069 79.8284 46.2149 78.9998 47.9999C78.5856 48.9059 78.0176 49.659 76.9998 49.9999C75.7029 50.4394 73.8735 50.5381 72.9998 49.9999C72.1532 49.4797 72.27 48.6637 71.9998 47.9999C71.8647 47.668 71.0629 48.2331 70.9998 47.9999C71.0809 47.9999 71.9008 47.9999 71.9998 47.9999C72.279 47.982 72.7747 48.1345 72.9998 47.9999C73.279 47.8295 72.8287 47.3318 72.9998 46.9999C73.198 46.5963 73.1259 46.4753 72.9998 45.9999C72.8828 45.5604 73.3511 45.3318 72.9998 44.9999C72.7657 44.7757 72.3241 44.0986 71.9998 43.9999C71.8107 43.9461 71.18 44.0717 70.9998 43.9999C70.2703 43.7039 70.0449 42.7265 69.9998 41.9999C69.9368 41.1029 70.1532 39.4215 70.9998 38.9999C70.9818 39.0179 71.0179 38.982 70.9998 38.9999C70.9998 38.9999 69.3424 38.0451 69.9998 35.9999C70.5042 34.4302 71.4685 33.9102 71.9998 33.9999C72.0539 34.565 72.5675 35.5335 72.9998 35.9999C73.4231 36.4664 74.2343 36.9999 74.9998 36.9999C74.8287 37.0179 75.162 36.9999 74.9998 36.9999C75.6483 36.9192 76.6486 36.5202 76.9998 35.9999C77.3061 35.5514 76.9908 34.6637 76.9998 33.9999C76.9998 33.5514 77.1259 33.4394 76.9998 32.9999C77.7654 32.9461 78.3964 32.26 78.9998 31.9999C79.5582 31.7577 80.6036 31.4125 80.9998 30.9999C81.6933 30.2913 80.9908 30.0268 80.9998 29.9999V28.9999C80.7387 28.4258 80.6123 28.3767 79.9998 27.9999C79.5315 27.7039 78.6573 27.1703 77.9998 26.9999C77.2613 26.8115 77.3781 27.0268 76.9998 26.9999C77.0088 26.6501 76.0899 26.3408 75.9998 25.9999C75.8287 25.3003 75.4862 24.4664 74.9998 23.9999C74.4685 23.4886 73.6753 22.9999 72.9998 22.9999C72.4775 22.9999 72.4682 23.6142 71.9998 23.9999C71.5315 24.3856 71.1259 24.4707 70.9998 24.9999C70.8828 25.5112 70.7477 26.5424 70.9998 26.9999C71.243 27.4394 71.4415 27.686 71.9998 27.9999C71.1172 28.7444 69.8194 28.2511 68.9998 27.9999C67.6399 27.4617 67.4144 25.8298 67.9998 23.9999C68.8464 21.3448 71.9998 20.9999 71.9998 20.9999C71.9998 20.9999 70.8924 17.7311 72.9998 15.9999C74.9272 14.4212 76.5765 14.8743 76.9998 14.9999C77.2971 15.1345 77.8017 15.7936 77.9998 15.9999C78.27 16.287 77.9278 16.5783 77.9998 16.9999C77.9908 16.9371 78.0088 17.0627 77.9998 16.9999C77.4595 16.9012 76.7023 16.5066 75.9998 16.9999C75.4505 17.3856 75.0449 18.1298 74.9998 18.9999C74.9638 19.9328 76.0272 20.4617 76.9998 20.9999C77.5762 21.3139 78.3334 20.9999 78.9998 20.9999C79.279 20.9999 79.7297 21.0627 79.9998 20.9999C80.0179 21.3587 79.8467 22.3989 79.9998 22.9999C80.162 23.6458 80.6936 24.4438 80.9998 24.9999C81.3871 25.6996 80.3964 25.4976 80.9998 25.9999V26.9999C80.9998 26.9999 82.3514 25.9328 82.9998 24.9999C83.3691 24.4617 83.8017 23.7085 83.9998 22.9999C84.207 22.2644 83.9998 21.879 83.9998 20.9999C83.8828 20.9999 84.1079 20.9999 83.9998 20.9999C84.0899 20.9999 84.9098 20.9999 84.9998 20.9999C86.657 20.9012 87.0629 20.2378 86.9998 18.9999C86.9818 18.686 87.1169 18.26 86.9998 17.9999C87.0179 17.5873 87.27 17.4215 86.9998 16.9999C86.4324 16.1119 85.9998 14.9999 85.9998 14.9999C87.684 15.4305 88.9998 14.9999 88.9998 14.9999C88.9998 14.9999 89.7477 15.5242 89.9998 17.9999C90.198 19.9643 89.4592 19.668 88.9998 19.9999C88.8828 20.0896 87.9728 19.8564 87.9998 19.9999C88.0359 20.1883 88.8107 21.0089 88.9998 20.9999ZM89.9998 9.99991C89.7026 10.3228 89.207 10.5873 88.9998 10.9999C88.8017 11.3856 88.1079 12.5604 87.9998 12.9999C87.9278 13.2959 88.0269 12.7757 87.9998 12.9999C87.5765 12.9192 87.4141 12.8654 86.9998 12.9999C86.7297 13.0896 86.207 13.8833 85.9998 13.9999C85.9998 13.5604 85.8918 12.6278 85.9998 11.9999C86.18 10.9414 86.9911 9.60987 87.9998 8.99991C88.5312 9.35871 89.4595 9.57832 89.9998 9.99991ZM80.9998 3.99991C80.9998 3.99991 81.0179 3.99991 80.9998 3.99991C80.9188 4.02682 81.0719 3.973 80.9998 3.99991C81.1259 3.94609 80.8738 4.05373 80.9998 3.99991C80.8287 4.07167 80.171 4.92815 79.9998 4.99991C79.7927 5.08961 80.207 4.90124 79.9998 4.99991C79.7567 5.10755 79.243 4.8833 78.9998 4.99991C78.7206 5.13446 78.279 5.85639 77.9998 5.99991C77.6936 6.1524 77.3061 5.83845 76.9998 5.99991C76.6666 6.17931 76.3151 6.81154 75.9998 6.99991C75.6486 7.19725 75.3421 6.7936 74.9998 6.99991C74.6396 7.22416 74.3511 7.76669 73.9998 7.99991C73.6306 8.25107 73.3601 8.73081 72.9998 8.99991C72.6216 9.27798 72.3601 9.71287 71.9998 9.99991C71.6216 10.2959 70.3691 10.686 69.9998 10.9999C69.6216 11.3228 69.3691 11.6591 68.9998 11.9999C68.6306 12.3497 68.3511 12.6321 67.9998 12.9999C67.6396 13.3767 67.3421 13.6052 66.9998 13.9999C66.6486 14.4036 66.3241 14.5783 65.9998 14.9999C65.7927 15.269 65.198 15.7218 64.9998 15.9999C64.7747 16.3139 65.207 16.677 64.9998 16.9999C64.8647 17.2062 64.1259 17.7846 63.9998 17.9999C63.7477 18.4305 64.234 18.5514 63.9998 18.9999C63.7657 19.4574 63.198 19.5245 62.9998 19.9999C62.7927 20.4843 62.18 20.5066 61.9998 20.9999C61.8197 21.5022 62.1349 22.4797 61.9998 22.9999C61.8557 23.5291 61.1079 23.4617 60.9998 23.9999C60.8918 24.5561 61.0719 25.4348 60.9998 25.9999C60.9278 26.583 61.0269 27.4079 60.9998 27.9999C60.9638 28.6099 60.9908 29.3899 60.9998 29.9999C60.9998 30.4305 60.9728 30.5694 60.9998 30.9999C62.2968 50.124 75.7311 59.8425 80.9998 62.9999C80.9998 62.9999 102.243 49.4024 101 27.9999C99.9371 9.61136 80.9998 3.99991 80.9998 3.99991Z" fill="white"/>
<path d="M225 51C220.116 56.1431 213.908 59 207 59C202.794 59 198.634 57.9767 195 56L194 58H192C183.139 53.6887 178 43.9374 178 34C178 27.5778 180.767 21.7764 185 17L186 16L188 18L187 19C183.322 23.1503 181 28.4186 181 34C181 40.288 183.6 45.7782 188 50L189 49V50C193.646 54.8927 200.427 58 207 58C213.573 58 219.354 54.8927 224 50L225 49L226 50L225 51ZM206 15H207V17H206C196.25 17 188 25.0626 188 35C188 44.9374 196.25 52 206 52H207V54H206C195.106 54 187 46.1002 187 35C187 23.8998 195.097 15 206 15ZM222 44C220.055 46.6208 218.265 47.9624 215 49H214C217.089 48.0161 219.196 45.4955 221 43L219 42C219 42 214.377 48 206 48C197.623 48 192 41.7013 192 34C192 26.2987 198.028 20 206 20C213.972 20 219 26 219 26L225 20C217.837 11.6995 207.31 9.18068 198 13H197V12C206.459 8.10912 218.723 10.5921 226 19H227C222.609 13.6243 216.82 9.84973 210 9C202.943 8.12343 195.588 10.5277 190 15H189L188 14H189C194.852 9.322 202.608 7.07871 210 8C217.084 8.88551 223.415 12.4454 228 18L230 16C230 16 222.349 4 206 4C188.049 4 174 17.7835 174 34C174 50.2165 188.049 64 206 64C222.349 64 230 52 230 52L222 44Z" fill="white"/>
</svg>
