<svg width="17" height="17" viewBox="0 0 17 17" fill="none" xmlns="http://www.w3.org/2000/svg">
<g clip-path="url(#clip0_5_1241)">
<path d="M14.5844 5.07509C12.4711 1.60304 9.28754 4.01859 9.28754 4.01859C9.08107 4.17463 8.70036 4.30293 8.44168 4.30352L7.58896 4.30412C7.33028 4.30442 6.94957 4.17612 6.7434 4.02008C6.7434 4.02008 3.55957 1.60394 1.44597 5.07598C-0.667035 8.54684 0.184492 12.3268 0.184492 12.3268C0.333674 13.2523 0.825376 13.8699 1.75328 13.7924C2.67851 13.7151 4.68679 11.2998 4.68679 11.2998C4.85268 11.1008 5.20027 10.9382 5.45835 10.9382L10.5705 10.9373C10.8289 10.9373 11.1762 11.0999 11.3418 11.2989C11.3418 11.2989 13.3503 13.7142 14.2771 13.7915C15.2038 13.869 15.6967 13.2508 15.845 12.3259C15.8447 12.3259 16.6977 8.54654 14.5844 5.07509ZM6.09387 7.90118H4.99768V8.95768C4.99768 8.95768 4.76555 9.13491 4.40633 9.13044C4.04769 9.12507 3.88538 8.9371 3.88538 8.9371V7.90148H2.85007C2.85007 7.90148 2.72087 7.76901 2.68626 7.42022C2.65225 7.07144 2.82918 6.78948 2.82918 6.78948H3.92566V5.6933C3.92566 5.6933 4.15123 5.57246 4.47555 5.58171C4.80016 5.59185 5.03796 5.71388 5.03796 5.71388L5.03348 6.78918H6.0688C6.0688 6.78918 6.24961 7.02131 6.26453 7.30177C6.27945 7.58253 6.09387 7.90118 6.09387 7.90118ZM11.1219 9.10537C10.6418 9.10537 10.2548 8.7172 10.2548 8.23774C10.2548 7.75737 10.6418 7.3701 11.1219 7.3701C11.5999 7.3701 11.9898 7.75737 11.9898 8.23774C11.9898 8.7175 11.5999 9.10537 11.1219 9.10537ZM11.1219 6.71817C10.6418 6.71817 10.2548 6.3303 10.2548 5.85083C10.2548 5.37047 10.6418 4.98319 11.1219 4.98319C11.5999 4.98319 11.9898 5.37047 11.9898 5.85083C11.9898 6.3306 11.5999 6.71817 11.1219 6.71817ZM13.2826 7.99964C12.8026 7.99964 12.4156 7.61177 12.4156 7.132C12.4156 6.65194 12.8026 6.26436 13.2826 6.26436C13.7606 6.26436 14.1506 6.65194 14.1506 7.132C14.1506 7.61177 13.7606 7.99964 13.2826 7.99964Z" fill="#252525"/>
</g>
<defs>
<clipPath id="clip0_5_1241">
<rect width="16" height="16" fill="white" transform="translate(0.0150146 0.5)"/>
</clipPath>
</defs>
</svg>
