<svg width="17" height="16" viewBox="0 0 17 16" fill="none" xmlns="http://www.w3.org/2000/svg">
<g clip-path="url(#clip0_1048_656)">
<path d="M5 4.00037C5 1.79903 6.79879 -1.52588e-05 9 -1.52588e-05C11.2012 -1.52588e-05 13 1.79903 13 4.00037C13 6.20171 11.2012 7.99998 9 7.99998C6.79879 7.99998 5 6.20171 5 4.00037Z" fill="#DAEF14"/>
<path fill-rule="evenodd" clip-rule="evenodd" d="M16.0908 11.2115C16.166 11.3453 16.2338 11.4842 16.2913 11.6281C16.3458 11.737 16.3276 11.864 16.237 11.9728C16.0919 12.2268 15.9286 12.4626 15.7472 12.6985C15.4932 13.0431 15.2029 13.3515 14.9127 13.6418C14.6587 13.8957 14.3685 14.1497 14.0782 14.3674C12.6514 15.433 10.9368 15.9951 9.16719 16H9.12077C7.3512 15.9951 5.63659 15.433 4.20973 14.3674C3.91946 14.1316 3.62921 13.8957 3.37525 13.6418C3.06685 13.3515 2.79473 13.0431 2.54077 12.6985C2.37751 12.4808 2.19612 12.2268 2.05098 11.9728C1.99657 11.864 1.97845 11.737 2.03286 11.6281C2.14168 11.3742 2.28682 11.1021 2.45008 10.8662C2.55626 10.7058 2.67072 10.5524 2.79271 10.4065C3.86187 9.63036 5.32866 9.11576 6.96839 9.01724C7.376 9.25138 7.81548 9.41579 8.27295 9.50815C8.27195 9.54532 8.26485 9.58314 8.25106 9.62112L6.89598 13.3464L9 14.7926L11.1035 13.3464L9.74894 9.62112C9.74158 9.60084 9.73612 9.5806 9.73248 9.56048C10.2902 9.48965 10.8266 9.31444 11.3178 9.03884C13.3505 9.22318 15.09 10.0494 16.0908 11.2115Z" fill="#DAEF14"/>
</g>
<defs>
<clipPath id="clip0_1048_656">
<rect width="16" height="16" fill="white" transform="translate(0.697266)"/>
</clipPath>
</defs>
</svg>
