<svg width="16" height="16" viewBox="0 0 16 16" fill="none" xmlns="http://www.w3.org/2000/svg">
<g clip-path="url(#clip0_838_1011)">
<path d="M16 10.8281C16 8.84265 14.861 7.07068 13.155 6.20874C13.1021 10.0156 10.0156 13.1021 6.20874 13.155C7.07068 14.861 8.84265 16 10.8281 16C11.759 16 12.6643 15.7521 13.4597 15.281L15.9774 15.9774L15.281 13.4597C15.7521 12.6643 16 11.759 16 10.8281Z" fill="#DAEF14"/>
<path d="M12.2188 6.10938C12.2188 2.7406 9.47815 0 6.10938 0C2.7406 0 0 2.7406 0 6.10938C0 7.20728 0.292236 8.27625 0.847168 9.21472L0.0224609 12.1962L3.00403 11.3716C3.94251 11.9265 5.01148 12.2188 6.10938 12.2188C9.47815 12.2188 12.2188 9.47815 12.2188 6.10938ZM5.17188 4.6875H4.23438C4.23438 3.65356 5.07544 2.8125 6.10938 2.8125C7.14331 2.8125 7.98438 3.65356 7.98438 4.6875C7.98438 5.21228 7.76221 5.71668 7.37463 6.07117L6.57813 6.80017V7.53125H5.64063V6.38733L6.7417 5.37952C6.93848 5.19946 7.04688 4.95374 7.04688 4.6875C7.04688 4.17053 6.62634 3.75 6.10938 3.75C5.59241 3.75 5.17188 4.17053 5.17188 4.6875ZM5.64063 8.46875H6.57813V9.40625H5.64063V8.46875Z" fill="#DAEF14"/>
</g>
<defs>
<clipPath id="clip0_838_1011">
<rect width="16" height="16" fill="white"/>
</clipPath>
</defs>
</svg>
