<svg width="17" height="16" viewBox="0 0 17 16" fill="none" xmlns="http://www.w3.org/2000/svg">
<g clip-path="url(#clip0_5_1248)">
<path d="M8.01623 8.3084C10.302 8.3084 12.1704 6.43993 12.1704 4.1542C12.1704 1.86847 10.302 0 8.01623 0C5.7305 0 3.86206 1.86847 3.86206 4.1542C3.86206 6.43993 5.73053 8.3084 8.01623 8.3084Z" fill="#DAEF14"/>
<path d="M15.1455 11.6281C15.0366 11.356 14.8915 11.102 14.7283 10.8662C13.8938 9.63263 12.6058 8.81631 11.1546 8.61676C10.9732 8.59863 10.7736 8.63488 10.6285 8.74374C9.86658 9.3061 8.95956 9.59634 8.01623 9.59634C7.07289 9.59634 6.16588 9.3061 5.40397 8.74374C5.25883 8.63488 5.05928 8.58047 4.87789 8.61676C3.42664 8.81631 2.12053 9.63263 1.30421 10.8662C1.14094 11.102 0.995802 11.3742 0.886983 11.6281C0.832573 11.737 0.850698 11.864 0.905108 11.9728C1.05025 12.2268 1.23164 12.4808 1.3949 12.6984C1.64886 13.0431 1.92098 13.3515 2.22938 13.6417C2.48334 13.8957 2.77358 14.1315 3.06386 14.3674C4.49695 15.4377 6.22032 16 7.9981 16C9.77588 16 11.4993 15.4376 12.9323 14.3674C13.2226 14.1497 13.5128 13.8957 13.7668 13.6417C14.0571 13.3515 14.3473 13.0431 14.6013 12.6984C14.7827 12.4626 14.946 12.2268 15.0911 11.9728C15.1818 11.864 15.1999 11.7369 15.1455 11.6281Z" fill="#DAEF14"/>
</g>
<defs>
<clipPath id="clip0_5_1248">
<rect width="16" height="16" fill="white" transform="translate(0.0150146)"/>
</clipPath>
</defs>
</svg>
